%TF.GenerationSoftware,KiCad,Pcbnew,9.0.7-1.fc43*%
%TF.CreationDate,2026-03-15T14:55:22+08:00*%
%TF.ProjectId,BoomBay,426f6f6d-4261-4792-9e6b-696361645f70,1.01*%
%TF.SameCoordinates,Original*%
%TF.FileFunction,Copper,L2,Bot*%
%TF.FilePolarity,Positive*%
%FSLAX46Y46*%
G04 Gerber Fmt 4.6, Leading zero omitted, Abs format (unit mm)*
G04 Created by KiCad (PCBNEW 9.0.7-1.fc43) date 2026-03-15 14:55:22*
%MOMM*%
%LPD*%
G01*
G04 APERTURE LIST*
G04 Aperture macros list*
%AMRoundRect*
0 Rectangle with rounded corners*
0 $1 Rounding radius*
0 $2 $3 $4 $5 $6 $7 $8 $9 X,Y pos of 4 corners*
0 Add a 4 corners polygon primitive as box body*
4,1,4,$2,$3,$4,$5,$6,$7,$8,$9,$2,$3,0*
0 Add four circle primitives for the rounded corners*
1,1,$1+$1,$2,$3*
1,1,$1+$1,$4,$5*
1,1,$1+$1,$6,$7*
1,1,$1+$1,$8,$9*
0 Add four rect primitives between the rounded corners*
20,1,$1+$1,$2,$3,$4,$5,0*
20,1,$1+$1,$4,$5,$6,$7,0*
20,1,$1+$1,$6,$7,$8,$9,0*
20,1,$1+$1,$8,$9,$2,$3,0*%
%AMOutline5P*
0 Free polygon, 5 corners , with rotation*
0 The origin of the aperture is its center*
0 number of corners: always 5*
0 $1 to $10 corner X, Y*
0 $11 Rotation angle, in degrees counterclockwise*
0 create outline with 5 corners*
4,1,5,$1,$2,$3,$4,$5,$6,$7,$8,$9,$10,$1,$2,$11*%
%AMOutline6P*
0 Free polygon, 6 corners , with rotation*
0 The origin of the aperture is its center*
0 number of corners: always 6*
0 $1 to $12 corner X, Y*
0 $13 Rotation angle, in degrees counterclockwise*
0 create outline with 6 corners*
4,1,6,$1,$2,$3,$4,$5,$6,$7,$8,$9,$10,$11,$12,$1,$2,$13*%
%AMOutline7P*
0 Free polygon, 7 corners , with rotation*
0 The origin of the aperture is its center*
0 number of corners: always 7*
0 $1 to $14 corner X, Y*
0 $15 Rotation angle, in degrees counterclockwise*
0 create outline with 7 corners*
4,1,7,$1,$2,$3,$4,$5,$6,$7,$8,$9,$10,$11,$12,$13,$14,$1,$2,$15*%
%AMOutline8P*
0 Free polygon, 8 corners , with rotation*
0 The origin of the aperture is its center*
0 number of corners: always 8*
0 $1 to $16 corner X, Y*
0 $17 Rotation angle, in degrees counterclockwise*
0 create outline with 8 corners*
4,1,8,$1,$2,$3,$4,$5,$6,$7,$8,$9,$10,$11,$12,$13,$14,$15,$16,$1,$2,$17*%
G04 Aperture macros list end*
%TA.AperFunction,ComponentPad*%
%ADD10O,1.200000X2.200000*%
%TD*%
%TA.AperFunction,ComponentPad*%
%ADD11O,1.600000X2.300000*%
%TD*%
%TA.AperFunction,ComponentPad*%
%ADD12O,2.200000X1.200000*%
%TD*%
%TA.AperFunction,ComponentPad*%
%ADD13O,1.600000X2.500000*%
%TD*%
%TA.AperFunction,ComponentPad*%
%ADD14C,1.600000*%
%TD*%
%TA.AperFunction,ComponentPad*%
%ADD15R,1.700000X1.700000*%
%TD*%
%TA.AperFunction,ComponentPad*%
%ADD16C,1.700000*%
%TD*%
%TA.AperFunction,ComponentPad*%
%ADD17RoundRect,0.250000X0.550000X0.550000X-0.550000X0.550000X-0.550000X-0.550000X0.550000X-0.550000X0*%
%TD*%
%TA.AperFunction,ComponentPad*%
%ADD18RoundRect,0.250000X-0.550000X-0.550000X0.550000X-0.550000X0.550000X0.550000X-0.550000X0.550000X0*%
%TD*%
%TA.AperFunction,ComponentPad*%
%ADD19C,2.000000*%
%TD*%
%TA.AperFunction,ComponentPad*%
%ADD20RoundRect,0.250000X-0.550000X0.550000X-0.550000X-0.550000X0.550000X-0.550000X0.550000X0.550000X0*%
%TD*%
%TA.AperFunction,ComponentPad*%
%ADD21Outline5P,-1.270000X0.381000X-1.016000X0.635000X1.270000X0.635000X1.270000X-0.635000X-1.270000X-0.635000X90.000000*%
%TD*%
%TA.AperFunction,ComponentPad*%
%ADD22RoundRect,0.190500X0.444500X-1.079500X0.444500X1.079500X-0.444500X1.079500X-0.444500X-1.079500X0*%
%TD*%
%TA.AperFunction,ComponentPad*%
%ADD23O,1.270000X2.540000*%
%TD*%
%TA.AperFunction,ComponentPad*%
%ADD24R,1.800000X1.800000*%
%TD*%
%TA.AperFunction,ComponentPad*%
%ADD25C,1.800000*%
%TD*%
%TA.AperFunction,ComponentPad*%
%ADD26R,2.780000X2.780000*%
%TD*%
%TA.AperFunction,ComponentPad*%
%ADD27C,2.780000*%
%TD*%
%TA.AperFunction,ViaPad*%
%ADD28C,0.600000*%
%TD*%
%TA.AperFunction,Conductor*%
%ADD29C,0.200000*%
%TD*%
%TA.AperFunction,Conductor*%
%ADD30C,1.500000*%
%TD*%
%TA.AperFunction,Conductor*%
%ADD31C,0.400000*%
%TD*%
G04 APERTURE END LIST*
D10*
%TO.P,CNR2,R*%
%TO.N,Net-(CNR2-PadR)*%
X165100000Y-60880000D03*
D11*
%TO.P,CNR2,RN*%
X162600000Y-60880000D03*
D12*
%TO.P,CNR2,S*%
%TO.N,GND*%
X160100000Y-55880000D03*
D10*
%TO.P,CNR2,T*%
%TO.N,Net-(CNR2-PadT)*%
X155100000Y-60880000D03*
D13*
%TO.P,CNR2,TN*%
X157600000Y-60880000D03*
%TD*%
D14*
%TO.P,R2,1*%
%TO.N,Net-(C2-Pad2)*%
X99060000Y-99060000D03*
%TO.P,R2,2*%
%TO.N,Net-(R2-Pad2)*%
X109220000Y-99060000D03*
%TD*%
%TO.P,R1,1*%
%TO.N,Net-(C1-Pad2)*%
X99060000Y-93980000D03*
%TO.P,R1,2*%
%TO.N,Net-(R1-Pad2)*%
X109220000Y-93980000D03*
%TD*%
D15*
%TO.P,J4,1,Pin_1*%
%TO.N,GND*%
X172720000Y-129540000D03*
D16*
%TO.P,J4,2,Pin_2*%
%TO.N,Net-(J4-Pin_2)*%
X175260000Y-129540000D03*
%TD*%
D14*
%TO.P,C2,1*%
%TO.N,GND*%
X116840000Y-104140000D03*
%TO.P,C2,2*%
%TO.N,Net-(C2-Pad2)*%
X116840000Y-99140000D03*
%TD*%
%TO.P,C1,1*%
%TO.N,GND*%
X116840000Y-116760000D03*
%TO.P,C1,2*%
%TO.N,Net-(C1-Pad2)*%
X116840000Y-111760000D03*
%TD*%
D17*
%TO.P,C5,1*%
%TO.N,IN1*%
X129540000Y-116840000D03*
D14*
%TO.P,C5,2*%
%TO.N,Net-(C2-Pad2)*%
X127040000Y-116840000D03*
%TD*%
D15*
%TO.P,J2,1,Pin_1*%
%TO.N,GND*%
X91440000Y-129540000D03*
D16*
%TO.P,J2,2,Pin_2*%
%TO.N,Net-(J2-Pin_2)*%
X93980000Y-129540000D03*
%TD*%
D18*
%TO.P,C9,1*%
%TO.N,Net-(U1-OUT.1)*%
X162600000Y-114300000D03*
D14*
%TO.P,C9,2*%
%TO.N,Net-(C9-Pad2)*%
X165100000Y-114300000D03*
%TD*%
D19*
%TO.P,C10,1*%
%TO.N,GND*%
X154940000Y-124460000D03*
%TO.P,C10,2*%
%TO.N,Net-(U1-OUT.1)*%
X154940000Y-114460000D03*
%TD*%
D20*
%TO.P,C15,1*%
%TO.N,+VDC*%
X111760000Y-76280000D03*
D14*
%TO.P,C15,2*%
%TO.N,GND*%
X111760000Y-81280000D03*
%TD*%
D15*
%TO.P,J3,1,Pin_1*%
%TO.N,+VDC*%
X121920000Y-65345000D03*
D16*
%TO.P,J3,2,Pin_2*%
%TO.N,GND*%
X124460000Y-65345000D03*
%TD*%
D21*
%TO.P,VR1,1,1*%
%TO.N,Net-(CNR2-PadT)*%
X125620000Y-137320000D03*
D22*
%TO.P,VR1,2,2*%
%TO.N,Net-(CNR2-PadR)*%
X127620000Y-137320000D03*
%TO.P,VR1,3,3*%
%TO.N,Net-(R2-Pad2)*%
X129620000Y-137320000D03*
%TO.P,VR1,4,4*%
%TO.N,Net-(R1-Pad2)*%
X131620000Y-137320000D03*
D21*
%TO.P,VR1,5,5*%
%TO.N,GND*%
X133620000Y-137320000D03*
D23*
%TO.P,VR1,G,GND*%
X124620000Y-147320000D03*
X134620000Y-147320000D03*
%TD*%
D18*
%TO.P,C13,1*%
%TO.N,Net-(U1-OUT.2)*%
X162600000Y-101600000D03*
D14*
%TO.P,C13,2*%
%TO.N,Net-(C13-Pad2)*%
X165100000Y-101600000D03*
%TD*%
D19*
%TO.P,C12,1*%
%TO.N,GND*%
X154940000Y-96440000D03*
%TO.P,C12,2*%
%TO.N,Net-(U1-OUT.2)*%
X154940000Y-86440000D03*
%TD*%
D17*
%TO.P,C4,1*%
%TO.N,IN2*%
X132080000Y-88900000D03*
D14*
%TO.P,C4,2*%
%TO.N,Net-(C1-Pad2)*%
X129580000Y-88900000D03*
%TD*%
%TO.P,C14,1*%
%TO.N,+VDC*%
X152668500Y-104120000D03*
%TO.P,C14,2*%
%TO.N,GND*%
X152668500Y-101620000D03*
%TD*%
D20*
%TO.P,U1,1,BRIDGE*%
%TO.N,GND*%
X147320000Y-99060000D03*
D14*
%TO.P,U1,2,OUT.2*%
%TO.N,Net-(U1-OUT.2)*%
X144780000Y-99060000D03*
%TO.P,U1,3,BOOT.2*%
%TO.N,BOOT2*%
X142240000Y-99060000D03*
%TO.P,U1,4,GND*%
%TO.N,GND*%
X139700000Y-99060000D03*
%TO.P,U1,5,GND*%
X137160000Y-99060000D03*
%TO.P,U1,6,FEEDBACK_R*%
%TO.N,FB_R*%
X134620000Y-99060000D03*
%TO.P,U1,7,IN.2+*%
%TO.N,IN2*%
X132080000Y-99060000D03*
%TO.P,U1,8,SVR*%
%TO.N,Net-(U1-SVR)*%
X129540000Y-99060000D03*
%TO.P,U1,9,GND_(sub)*%
%TO.N,GND*%
X129540000Y-106680000D03*
%TO.P,U1,10,IN.1+*%
%TO.N,IN1*%
X132080000Y-106680000D03*
%TO.P,U1,11,FEEDBACK_L*%
%TO.N,FB_L*%
X134620000Y-106680000D03*
%TO.P,U1,12,GND*%
%TO.N,GND*%
X137160000Y-106680000D03*
%TO.P,U1,13,GND*%
X139700000Y-106680000D03*
%TO.P,U1,14,BOOT.1*%
%TO.N,BOOT1*%
X142240000Y-106680000D03*
%TO.P,U1,15,OUT.1*%
%TO.N,Net-(U1-OUT.1)*%
X144780000Y-106680000D03*
%TO.P,U1,16,+Vs*%
%TO.N,+VDC*%
X147320000Y-106680000D03*
%TD*%
D24*
%TO.P,D1,1,K*%
%TO.N,GND*%
X142240000Y-137160000D03*
D25*
%TO.P,D1,2,A*%
%TO.N,Net-(D1-A)*%
X144780000Y-137160000D03*
%TD*%
D18*
%TO.P,C11,1*%
%TO.N,BOOT2*%
X144820000Y-88900000D03*
D14*
%TO.P,C11,2*%
%TO.N,Net-(U1-OUT.2)*%
X147320000Y-88900000D03*
%TD*%
D20*
%TO.P,C3,1*%
%TO.N,Net-(U1-SVR)*%
X123790400Y-98712800D03*
D14*
%TO.P,C3,2*%
%TO.N,GND*%
X123790400Y-101212800D03*
%TD*%
D17*
%TO.P,C7,1*%
%TO.N,FB_L*%
X137120000Y-116840000D03*
D14*
%TO.P,C7,2*%
%TO.N,Net-(C7-Pad2)*%
X134620000Y-116840000D03*
%TD*%
%TO.P,R4,1*%
%TO.N,Net-(C1-Pad2)*%
X109220000Y-109220000D03*
%TO.P,R4,2*%
%TO.N,GND*%
X99060000Y-109220000D03*
%TD*%
%TO.P,R6,1*%
%TO.N,Net-(C7-Pad2)*%
X109220000Y-119380000D03*
%TO.P,R6,2*%
%TO.N,GND*%
X99060000Y-119380000D03*
%TD*%
D10*
%TO.P,CNR1,R*%
%TO.N,Net-(C9-Pad2)*%
X155100000Y-139820000D03*
D11*
%TO.P,CNR1,RN*%
%TO.N,Net-(J4-Pin_2)*%
X157600000Y-139820000D03*
D12*
%TO.P,CNR1,S*%
%TO.N,GND*%
X160100000Y-144820000D03*
D10*
%TO.P,CNR1,T*%
%TO.N,Net-(C13-Pad2)*%
X165100000Y-139820000D03*
D13*
%TO.P,CNR1,TN*%
%TO.N,Net-(J2-Pin_2)*%
X162600000Y-139820000D03*
%TD*%
D14*
%TO.P,R5,1*%
%TO.N,GND*%
X99060000Y-114300000D03*
%TO.P,R5,2*%
%TO.N,Net-(C6-Pad2)*%
X109220000Y-114300000D03*
%TD*%
D17*
%TO.P,C6,1*%
%TO.N,FB_R*%
X139700000Y-88900000D03*
D14*
%TO.P,C6,2*%
%TO.N,Net-(C6-Pad2)*%
X137200000Y-88900000D03*
%TD*%
%TO.P,R3,1*%
%TO.N,Net-(C2-Pad2)*%
X109220000Y-104140000D03*
%TO.P,R3,2*%
%TO.N,GND*%
X99060000Y-104140000D03*
%TD*%
D18*
%TO.P,C8,1*%
%TO.N,BOOT1*%
X142280000Y-116840000D03*
D14*
%TO.P,C8,2*%
%TO.N,Net-(U1-OUT.1)*%
X144780000Y-116840000D03*
%TD*%
D26*
%TO.P,J5,1,Pin_1*%
%TO.N,+VDC*%
X93980000Y-66040000D03*
D27*
%TO.P,J5,2,Pin_2*%
%TO.N,GND*%
X99060000Y-66040000D03*
%TO.P,J5,3,Pin_3*%
X104140000Y-66040000D03*
%TO.P,J5,4,Pin_4*%
%TO.N,unconnected-(J5-Pin_4-Pad4)*%
X109220000Y-66040000D03*
%TD*%
D14*
%TO.P,R7,1*%
%TO.N,+VDC*%
X138430000Y-129540000D03*
%TO.P,R7,2*%
%TO.N,Net-(D1-A)*%
X148590000Y-129540000D03*
%TD*%
D28*
%TO.N,Net-(C6-Pad2)*%
X108115000Y-96520000D03*
%TO.N,+VDC*%
X127000000Y-103323000D03*
%TO.N,Net-(R1-Pad2)*%
X119380000Y-127000000D03*
%TO.N,Net-(R2-Pad2)*%
X116030200Y-129540000D03*
%TD*%
D29*
%TO.N,Net-(C9-Pad2)*%
X155100000Y-139820000D02*
X155100000Y-138979000D01*
D30*
X155100000Y-138979000D02*
X165100000Y-128979000D01*
X165100000Y-128979000D02*
X165100000Y-114300000D01*
D29*
%TO.N,GND*%
X133974000Y-136966000D02*
X133620000Y-137320000D01*
D30*
%TO.N,Net-(C13-Pad2)*%
X170180000Y-106680000D02*
X170180000Y-127000000D01*
X170180000Y-127000000D02*
X165100000Y-132080000D01*
X165100000Y-101600000D02*
X170180000Y-106680000D01*
X165100000Y-132080000D02*
X165100000Y-139820000D01*
%TO.N,Net-(C2-Pad2)*%
X127040000Y-109340000D02*
X116840000Y-99140000D01*
X127040000Y-116840000D02*
X127040000Y-109340000D01*
%TO.N,Net-(C6-Pad2)*%
X106680000Y-111760000D02*
X109220000Y-114300000D01*
X108115000Y-96520000D02*
X108115000Y-97186600D01*
X108115000Y-97186600D02*
X106680000Y-98621600D01*
X106680000Y-98621600D02*
X106680000Y-111760000D01*
D29*
%TO.N,Net-(C7-Pad2)*%
X134660000Y-116840000D02*
X134620000Y-116800000D01*
D30*
%TO.N,Net-(D1-A)*%
X148590000Y-133350000D02*
X144780000Y-137160000D01*
X148590000Y-129540000D02*
X148590000Y-133350000D01*
%TO.N,+VDC*%
X111760000Y-76280000D02*
X104220000Y-76280000D01*
X121920000Y-65345000D02*
X121920000Y-66496700D01*
X147320000Y-106680000D02*
X149860000Y-109220000D01*
X149860000Y-119380000D02*
X139700000Y-129540000D01*
X121920000Y-66496700D02*
X127000000Y-71576700D01*
X149860000Y-109220000D02*
X149860000Y-119380000D01*
X121920000Y-65345000D02*
X121920000Y-66120000D01*
X127000000Y-71576700D02*
X127000000Y-103323000D01*
X104220000Y-76280000D02*
X93980000Y-66040000D01*
X139700000Y-129540000D02*
X138430000Y-129540000D01*
X121920000Y-66120000D02*
X111760000Y-76280000D01*
%TO.N,FB_L*%
X137120000Y-114260000D02*
X134620000Y-111760000D01*
D29*
X137160000Y-114300000D02*
X137120000Y-114340000D01*
D30*
X134620000Y-111760000D02*
X134620000Y-106680000D01*
D29*
X137120000Y-114340000D02*
X137120000Y-114260000D01*
D30*
X137120000Y-114340000D02*
X137120000Y-116840000D01*
%TO.N,Net-(U1-OUT.2)*%
X147320000Y-91440000D02*
X147320000Y-88900000D01*
X144780000Y-93980000D02*
X147320000Y-91440000D01*
X144780000Y-99060000D02*
X144780000Y-93980000D01*
%TO.N,BOOT2*%
X142240000Y-91480000D02*
X142240000Y-99060000D01*
X144820000Y-88900000D02*
X142240000Y-91480000D01*
%TO.N,IN2*%
X132080000Y-99060000D02*
X132080000Y-88900000D01*
%TO.N,IN1*%
X132080000Y-114300000D02*
X129540000Y-116840000D01*
X132080000Y-106680000D02*
X132080000Y-114300000D01*
%TO.N,FB_R*%
X134620000Y-99060000D02*
X139700000Y-93980000D01*
X139700000Y-93980000D02*
X139700000Y-88900000D01*
D29*
%TO.N,BOOT1*%
X142280000Y-116840000D02*
X142240000Y-116800000D01*
D30*
X142240000Y-116800000D02*
X142240000Y-106680000D01*
%TO.N,Net-(U1-OUT.1)*%
X144780000Y-116840000D02*
X144780000Y-106680000D01*
%TO.N,Net-(CNR2-PadR)*%
X131270000Y-142240000D02*
X127620000Y-138590000D01*
X152400000Y-132080000D02*
X152400000Y-137160000D01*
X152400000Y-137160000D02*
X147320000Y-142240000D01*
X147320000Y-142240000D02*
X131270000Y-142240000D01*
X160020000Y-124460000D02*
X152400000Y-132080000D01*
X127620000Y-138590000D02*
X127620000Y-137320000D01*
X162600000Y-60880000D02*
X160020000Y-63460000D01*
X160020000Y-63460000D02*
X160020000Y-124460000D01*
D31*
%TO.N,Net-(CNR2-PadT)*%
X145986000Y-105474000D02*
X147320000Y-104140000D01*
D30*
X139598000Y-126852000D02*
X134944000Y-126852000D01*
X149809000Y-81331000D02*
X155100000Y-76040000D01*
X147320000Y-109220000D02*
X147320000Y-119130000D01*
D31*
X147320000Y-109220000D02*
X145986000Y-107886000D01*
D30*
X147320000Y-104140000D02*
X149809000Y-101651000D01*
X149809000Y-101651000D02*
X149809000Y-81331000D01*
X147320000Y-119130000D02*
X139598000Y-126852000D01*
X134944000Y-126852000D02*
X125620000Y-136176000D01*
X155100000Y-76040000D02*
X155100000Y-60880000D01*
X125620000Y-136176000D02*
X125620000Y-137320000D01*
D31*
X145986000Y-107886000D02*
X145986000Y-105474000D01*
D30*
%TO.N,Net-(R1-Pad2)*%
X109220000Y-93996300D02*
X109220000Y-93980000D01*
X114300000Y-99060000D02*
X109220000Y-93980000D01*
X119380000Y-127000000D02*
X114300000Y-121920000D01*
X114300000Y-121920000D02*
X114300000Y-99060000D01*
D29*
%TO.N,Net-(R2-Pad2)*%
X129620000Y-137320000D02*
X129620000Y-137556000D01*
D30*
X111760000Y-125269800D02*
X111760000Y-101600000D01*
X111760000Y-101600000D02*
X109220000Y-99060000D01*
X116030200Y-129540000D02*
X111760000Y-125269800D01*
%TD*%
%TA.AperFunction,Conductor*%
%TO.N,GND*%
G36*
X157342539Y-51900185D02*
G01*
X157388294Y-51952989D01*
X157399500Y-52004500D01*
X157399500Y-52468695D01*
X157434103Y-52642658D01*
X157434106Y-52642667D01*
X157501983Y-52806540D01*
X157501990Y-52806553D01*
X157600535Y-52954034D01*
X157600538Y-52954038D01*
X157725961Y-53079461D01*
X157725965Y-53079464D01*
X157873446Y-53178009D01*
X157873459Y-53178016D01*
X157996363Y-53228923D01*
X158037334Y-53245894D01*
X158037336Y-53245894D01*
X158037341Y-53245896D01*
X158211304Y-53280499D01*
X158211307Y-53280500D01*
X158211309Y-53280500D01*
X161988693Y-53280500D01*
X161988694Y-53280499D01*
X162046682Y-53268964D01*
X162162658Y-53245896D01*
X162162661Y-53245894D01*
X162162666Y-53245894D01*
X162326547Y-53178013D01*
X162474035Y-53079464D01*
X162599464Y-52954035D01*
X162698013Y-52806547D01*
X162765894Y-52642666D01*
X162769151Y-52626295D01*
X162800499Y-52468695D01*
X162800500Y-52468693D01*
X162800500Y-52004500D01*
X162820185Y-51937461D01*
X162872989Y-51891706D01*
X162924500Y-51880500D01*
X166534108Y-51880500D01*
X181825500Y-51880500D01*
X181892539Y-51900185D01*
X181938294Y-51952989D01*
X181949500Y-52004500D01*
X181949500Y-148695500D01*
X181929815Y-148762539D01*
X181877011Y-148808294D01*
X181825500Y-148819500D01*
X162924500Y-148819500D01*
X162857461Y-148799815D01*
X162811706Y-148747011D01*
X162800500Y-148695500D01*
X162800500Y-148231306D01*
X162800499Y-148231304D01*
X162765896Y-148057341D01*
X162765893Y-148057332D01*
X162698016Y-147893459D01*
X162698009Y-147893446D01*
X162599464Y-147745965D01*
X162599461Y-147745961D01*
X162474038Y-147620538D01*
X162474034Y-147620535D01*
X162326553Y-147521990D01*
X162326540Y-147521983D01*
X162162667Y-147454106D01*
X162162658Y-147454103D01*
X161988694Y-147419500D01*
X161988691Y-147419500D01*
X161965892Y-147419500D01*
X158365892Y-147419500D01*
X158300000Y-147419500D01*
X158211309Y-147419500D01*
X158211306Y-147419500D01*
X158037341Y-147454103D01*
X158037332Y-147454106D01*
X157873459Y-147521983D01*
X157873446Y-147521990D01*
X157725965Y-147620535D01*
X157725961Y-147620538D01*
X157600538Y-147745961D01*
X157600535Y-147745965D01*
X157501990Y-147893446D01*
X157501983Y-147893459D01*
X157434106Y-148057332D01*
X157434103Y-148057341D01*
X157399500Y-148231304D01*
X157399500Y-148695500D01*
X157379815Y-148762539D01*
X157327011Y-148808294D01*
X157275500Y-148819500D01*
X83174500Y-148819500D01*
X83107461Y-148799815D01*
X83061706Y-148747011D01*
X83050500Y-148695500D01*
X83050500Y-147236228D01*
X154249500Y-147236228D01*
X154249500Y-147403771D01*
X154282182Y-147568074D01*
X154282184Y-147568082D01*
X154346295Y-147722860D01*
X154439373Y-147862162D01*
X154557837Y-147980626D01*
X154650494Y-148042537D01*
X154697137Y-148073703D01*
X154851918Y-148137816D01*
X155016228Y-148170499D01*
X155016232Y-148170500D01*
X155016233Y-148170500D01*
X155183768Y-148170500D01*
X155183769Y-148170499D01*
X155348082Y-148137816D01*
X155502863Y-148073703D01*
X155642162Y-147980626D01*
X155760626Y-147862162D01*
X155853703Y-147722863D01*
X155917816Y-147568082D01*
X155950500Y-147403767D01*
X155950500Y-147236233D01*
X155950499Y-147236228D01*
X164249500Y-147236228D01*
X164249500Y-147403771D01*
X164282182Y-147568074D01*
X164282184Y-147568082D01*
X164346295Y-147722860D01*
X164439373Y-147862162D01*
X164557837Y-147980626D01*
X164650494Y-148042537D01*
X164697137Y-148073703D01*
X164851918Y-148137816D01*
X165016228Y-148170499D01*
X165016232Y-148170500D01*
X165016233Y-148170500D01*
X165183768Y-148170500D01*
X165183769Y-148170499D01*
X165348082Y-148137816D01*
X165502863Y-148073703D01*
X165642162Y-147980626D01*
X165760626Y-147862162D01*
X165853703Y-147722863D01*
X165917816Y-147568082D01*
X165950500Y-147403767D01*
X165950500Y-147236233D01*
X165917816Y-147071918D01*
X165853703Y-146917137D01*
X165822537Y-146870494D01*
X165760626Y-146777837D01*
X165642162Y-146659373D01*
X165502860Y-146566295D01*
X165348082Y-146502184D01*
X165348074Y-146502182D01*
X165183771Y-146469500D01*
X165183767Y-146469500D01*
X165016233Y-146469500D01*
X165016228Y-146469500D01*
X164851925Y-146502182D01*
X164851917Y-146502184D01*
X164697139Y-146566295D01*
X164557837Y-146659373D01*
X164439373Y-146777837D01*
X164346295Y-146917139D01*
X164282184Y-147071917D01*
X164282182Y-147071925D01*
X164249500Y-147236228D01*
X155950499Y-147236228D01*
X155917816Y-147071918D01*
X155853703Y-146917137D01*
X155822537Y-146870494D01*
X155760626Y-146777837D01*
X155642162Y-146659373D01*
X155502860Y-146566295D01*
X155348082Y-146502184D01*
X155348074Y-146502182D01*
X155183771Y-146469500D01*
X155183767Y-146469500D01*
X155016233Y-146469500D01*
X155016228Y-146469500D01*
X154851925Y-146502182D01*
X154851917Y-146502184D01*
X154697139Y-146566295D01*
X154557837Y-146659373D01*
X154439373Y-146777837D01*
X154346295Y-146917139D01*
X154282184Y-147071917D01*
X154282182Y-147071925D01*
X154249500Y-147236228D01*
X83050500Y-147236228D01*
X83050500Y-142069244D01*
X88399500Y-142069244D01*
X88399500Y-142410755D01*
X88437734Y-142750092D01*
X88437736Y-142750108D01*
X88513726Y-143083044D01*
X88513730Y-143083056D01*
X88626515Y-143405375D01*
X88626524Y-143405397D01*
X88774686Y-143713059D01*
X88774690Y-143713065D01*
X88956380Y-144002222D01*
X89169303Y-144269219D01*
X89410781Y-144510697D01*
X89677778Y-144723620D01*
X89964481Y-144903768D01*
X89966940Y-144905313D01*
X90274602Y-145053475D01*
X90274611Y-145053478D01*
X90274618Y-145053482D01*
X90316342Y-145068082D01*
X90596943Y-145166269D01*
X90596955Y-145166273D01*
X90929895Y-145242264D01*
X91269245Y-145280499D01*
X91269246Y-145280500D01*
X91269249Y-145280500D01*
X91610754Y-145280500D01*
X91610754Y-145280499D01*
X91950105Y-145242264D01*
X92283045Y-145166273D01*
X92605382Y-145053482D01*
X92913065Y-144905310D01*
X93202222Y-144723620D01*
X93469219Y-144510697D01*
X93710697Y-144269219D01*
X93923620Y-144002222D01*
X94105310Y-143713065D01*
X94167110Y-143584736D01*
X94253475Y-143405397D01*
X94253476Y-143405393D01*
X94253482Y-143405382D01*
X94366273Y-143083045D01*
X94442264Y-142750105D01*
X94480500Y-142410751D01*
X94480500Y-142069249D01*
X94480499Y-142069244D01*
X106179500Y-142069244D01*
X106179500Y-142410755D01*
X106217734Y-142750092D01*
X106217736Y-142750108D01*
X106293726Y-143083044D01*
X106293730Y-143083056D01*
X106406515Y-143405375D01*
X106406524Y-143405397D01*
X106554686Y-143713059D01*
X106554690Y-143713065D01*
X106736380Y-144002222D01*
X106949303Y-144269219D01*
X107190781Y-144510697D01*
X107457778Y-144723620D01*
X107744481Y-144903768D01*
X107746940Y-144905313D01*
X108054602Y-145053475D01*
X108054611Y-145053478D01*
X108054618Y-145053482D01*
X108096342Y-145068082D01*
X108376943Y-145166269D01*
X108376955Y-145166273D01*
X108709895Y-145242264D01*
X109049245Y-145280499D01*
X109049246Y-145280500D01*
X109049249Y-145280500D01*
X109390754Y-145280500D01*
X109390754Y-145280499D01*
X109730105Y-145242264D01*
X110063045Y-145166273D01*
X110385382Y-145053482D01*
X110693065Y-144905310D01*
X110962157Y-144736228D01*
X154249500Y-144736228D01*
X154249500Y-144903771D01*
X154282182Y-145068074D01*
X154282184Y-145068082D01*
X154346295Y-145222860D01*
X154439373Y-145362162D01*
X154557837Y-145480626D01*
X154650494Y-145542537D01*
X154697137Y-145573703D01*
X154851918Y-145637816D01*
X155016228Y-145670499D01*
X155016232Y-145670500D01*
X155016233Y-145670500D01*
X155183768Y-145670500D01*
X155183769Y-145670499D01*
X155348082Y-145637816D01*
X155502863Y-145573703D01*
X155642162Y-145480626D01*
X155760626Y-145362162D01*
X155853703Y-145222863D01*
X155917816Y-145068082D01*
X155950500Y-144903767D01*
X155950500Y-144736233D01*
X155950499Y-144736228D01*
X164249500Y-144736228D01*
X164249500Y-144903771D01*
X164282182Y-145068074D01*
X164282184Y-145068082D01*
X164346295Y-145222860D01*
X164439373Y-145362162D01*
X164557837Y-145480626D01*
X164650494Y-145542537D01*
X164697137Y-145573703D01*
X164851918Y-145637816D01*
X165016228Y-145670499D01*
X165016232Y-145670500D01*
X165016233Y-145670500D01*
X165183768Y-145670500D01*
X165183769Y-145670499D01*
X165348082Y-145637816D01*
X165502863Y-145573703D01*
X165642162Y-145480626D01*
X165760626Y-145362162D01*
X165853703Y-145222863D01*
X165917816Y-145068082D01*
X165950500Y-144903767D01*
X165950500Y-144736233D01*
X165917816Y-144571918D01*
X165853703Y-144417137D01*
X165822537Y-144370494D01*
X165760626Y-144277837D01*
X165642162Y-144159373D01*
X165502860Y-144066295D01*
X165348082Y-144002184D01*
X165348074Y-144002182D01*
X165183771Y-143969500D01*
X165183767Y-143969500D01*
X165016233Y-143969500D01*
X165016228Y-143969500D01*
X164851925Y-144002182D01*
X164851917Y-144002184D01*
X164697139Y-144066295D01*
X164557837Y-144159373D01*
X164439373Y-144277837D01*
X164346295Y-144417139D01*
X164282184Y-144571917D01*
X164282182Y-144571925D01*
X164249500Y-144736228D01*
X155950499Y-144736228D01*
X155917816Y-144571918D01*
X155853703Y-144417137D01*
X155822537Y-144370494D01*
X155760626Y-144277837D01*
X155642162Y-144159373D01*
X155502860Y-144066295D01*
X155348082Y-144002184D01*
X155348074Y-144002182D01*
X155183771Y-143969500D01*
X155183767Y-143969500D01*
X155016233Y-143969500D01*
X155016228Y-143969500D01*
X154851925Y-144002182D01*
X154851917Y-144002184D01*
X154697139Y-144066295D01*
X154557837Y-144159373D01*
X154439373Y-144277837D01*
X154346295Y-144417139D01*
X154282184Y-144571917D01*
X154282182Y-144571925D01*
X154249500Y-144736228D01*
X110962157Y-144736228D01*
X110982222Y-144723620D01*
X111249219Y-144510697D01*
X111490697Y-144269219D01*
X111703620Y-144002222D01*
X111885310Y-143713065D01*
X111947110Y-143584736D01*
X112033475Y-143405397D01*
X112033476Y-143405393D01*
X112033482Y-143405382D01*
X112146273Y-143083045D01*
X112222264Y-142750105D01*
X112260500Y-142410751D01*
X112260500Y-142069249D01*
X112222264Y-141729895D01*
X112146273Y-141396955D01*
X112141140Y-141382287D01*
X112064046Y-141161966D01*
X112033482Y-141074618D01*
X112033478Y-141074611D01*
X112033475Y-141074602D01*
X111885313Y-140766940D01*
X111840579Y-140695746D01*
X111703620Y-140477778D01*
X111490697Y-140210781D01*
X111249219Y-139969303D01*
X110982222Y-139756380D01*
X110808104Y-139646974D01*
X110693059Y-139574686D01*
X110385397Y-139426524D01*
X110385375Y-139426515D01*
X110063056Y-139313730D01*
X110063044Y-139313726D01*
X109730108Y-139237736D01*
X109730092Y-139237734D01*
X109390755Y-139199500D01*
X109390751Y-139199500D01*
X109049249Y-139199500D01*
X109049244Y-139199500D01*
X108709907Y-139237734D01*
X108709891Y-139237736D01*
X108376955Y-139313726D01*
X108376943Y-139313730D01*
X108054624Y-139426515D01*
X108054602Y-139426524D01*
X107746940Y-139574686D01*
X107457779Y-139756379D01*
X107190781Y-139969302D01*
X106949302Y-140210781D01*
X106736379Y-140477779D01*
X106554686Y-140766940D01*
X106406524Y-141074602D01*
X106406515Y-141074624D01*
X106293730Y-141396943D01*
X106293726Y-141396955D01*
X106217736Y-141729891D01*
X106217734Y-141729907D01*
X106179500Y-142069244D01*
X94480499Y-142069244D01*
X94442264Y-141729895D01*
X94366273Y-141396955D01*
X94361140Y-141382287D01*
X94284046Y-141161966D01*
X94253482Y-141074618D01*
X94253478Y-141074611D01*
X94253475Y-141074602D01*
X94105313Y-140766940D01*
X94060579Y-140695746D01*
X93923620Y-140477778D01*
X93710697Y-140210781D01*
X93469219Y-139969303D01*
X93202222Y-139756380D01*
X93028104Y-139646974D01*
X92913059Y-139574686D01*
X92605397Y-139426524D01*
X92605375Y-139426515D01*
X92283056Y-139313730D01*
X92283044Y-139313726D01*
X91950108Y-139237736D01*
X91950092Y-139237734D01*
X91610755Y-139199500D01*
X91610751Y-139199500D01*
X91269249Y-139199500D01*
X91269244Y-139199500D01*
X90929907Y-139237734D01*
X90929891Y-139237736D01*
X90596955Y-139313726D01*
X90596943Y-139313730D01*
X90274624Y-139426515D01*
X90274602Y-139426524D01*
X89966940Y-139574686D01*
X89677779Y-139756379D01*
X89410781Y-139969302D01*
X89169302Y-140210781D01*
X88956379Y-140477779D01*
X88774686Y-140766940D01*
X88626524Y-141074602D01*
X88626515Y-141074624D01*
X88513730Y-141396943D01*
X88513726Y-141396955D01*
X88437736Y-141729891D01*
X88437734Y-141729907D01*
X88399500Y-142069244D01*
X83050500Y-142069244D01*
X83050500Y-129433713D01*
X92629500Y-129433713D01*
X92629500Y-129646286D01*
X92660898Y-129844530D01*
X92662754Y-129856243D01*
X92676926Y-129899861D01*
X92728444Y-130058414D01*
X92824951Y-130247820D01*
X92949890Y-130419786D01*
X93100213Y-130570109D01*
X93272179Y-130695048D01*
X93272181Y-130695049D01*
X93272184Y-130695051D01*
X93461588Y-130791557D01*
X93663757Y-130857246D01*
X93873713Y-130890500D01*
X93873714Y-130890500D01*
X94086286Y-130890500D01*
X94086287Y-130890500D01*
X94296243Y-130857246D01*
X94498412Y-130791557D01*
X94687816Y-130695051D01*
X94805535Y-130609524D01*
X94859786Y-130570109D01*
X94859788Y-130570106D01*
X94859792Y-130570104D01*
X95010104Y-130419792D01*
X95010106Y-130419788D01*
X95010109Y-130419786D01*
X95135048Y-130247820D01*
X95135047Y-130247820D01*
X95135051Y-130247816D01*
X95231557Y-130058412D01*
X95297246Y-129856243D01*
X95330500Y-129646287D01*
X95330500Y-129433713D01*
X95297246Y-129223757D01*
X95231557Y-129021588D01*
X95135051Y-128832184D01*
X95135049Y-128832181D01*
X95135048Y-128832179D01*
X95010109Y-128660213D01*
X94859786Y-128509890D01*
X94687820Y-128384951D01*
X94498414Y-128288444D01*
X94498413Y-128288443D01*
X94498412Y-128288443D01*
X94296243Y-128222754D01*
X94296241Y-128222753D01*
X94296240Y-128222753D01*
X94134957Y-128197208D01*
X94086287Y-128189500D01*
X93873713Y-128189500D01*
X93825042Y-128197208D01*
X93663760Y-128222753D01*
X93461585Y-128288444D01*
X93272179Y-128384951D01*
X93100213Y-128509890D01*
X92949890Y-128660213D01*
X92824951Y-128832179D01*
X92728444Y-129021585D01*
X92662753Y-129223760D01*
X92629500Y-129433713D01*
X83050500Y-129433713D01*
X83050500Y-116669244D01*
X88399500Y-116669244D01*
X88399500Y-117010755D01*
X88437734Y-117350092D01*
X88437736Y-117350108D01*
X88513726Y-117683044D01*
X88513730Y-117683056D01*
X88626515Y-118005375D01*
X88626524Y-118005397D01*
X88774686Y-118313059D01*
X88821796Y-118388034D01*
X88956380Y-118602222D01*
X89169303Y-118869219D01*
X89410781Y-119110697D01*
X89677778Y-119323620D01*
X89924142Y-119478421D01*
X89966940Y-119505313D01*
X90274602Y-119653475D01*
X90274611Y-119653478D01*
X90274618Y-119653482D01*
X90274624Y-119653484D01*
X90596943Y-119766269D01*
X90596955Y-119766273D01*
X90929895Y-119842264D01*
X91269245Y-119880499D01*
X91269246Y-119880500D01*
X91269249Y-119880500D01*
X91610754Y-119880500D01*
X91610754Y-119880499D01*
X91950105Y-119842264D01*
X92283045Y-119766273D01*
X92605382Y-119653482D01*
X92913065Y-119505310D01*
X93202222Y-119323620D01*
X93469219Y-119110697D01*
X93710697Y-118869219D01*
X93923620Y-118602222D01*
X94105310Y-118313065D01*
X94171904Y-118174781D01*
X94253475Y-118005397D01*
X94253476Y-118005393D01*
X94253482Y-118005382D01*
X94366273Y-117683045D01*
X94442264Y-117350105D01*
X94480500Y-117010751D01*
X94480500Y-116669249D01*
X94442264Y-116329895D01*
X94366273Y-115996955D01*
X94364812Y-115992781D01*
X94277530Y-115743342D01*
X94253482Y-115674618D01*
X94253478Y-115674611D01*
X94253475Y-115674602D01*
X94105313Y-115366940D01*
X94103586Y-115364191D01*
X93923620Y-115077778D01*
X93710697Y-114810781D01*
X93469219Y-114569303D01*
X93202222Y-114356380D01*
X93019524Y-114241583D01*
X92913059Y-114174686D01*
X92605397Y-114026524D01*
X92605375Y-114026515D01*
X92283056Y-113913730D01*
X92283044Y-113913726D01*
X91950108Y-113837736D01*
X91950092Y-113837734D01*
X91610755Y-113799500D01*
X91610751Y-113799500D01*
X91269249Y-113799500D01*
X91269244Y-113799500D01*
X90929907Y-113837734D01*
X90929891Y-113837736D01*
X90596955Y-113913726D01*
X90596943Y-113913730D01*
X90274624Y-114026515D01*
X90274602Y-114026524D01*
X89966940Y-114174686D01*
X89677779Y-114356379D01*
X89410781Y-114569302D01*
X89169302Y-114810781D01*
X88956379Y-115077779D01*
X88774686Y-115366940D01*
X88626524Y-115674602D01*
X88626515Y-115674624D01*
X88513730Y-115996943D01*
X88513726Y-115996955D01*
X88437736Y-116329891D01*
X88437734Y-116329907D01*
X88399500Y-116669244D01*
X83050500Y-116669244D01*
X83050500Y-98957648D01*
X97759500Y-98957648D01*
X97759500Y-99162351D01*
X97791522Y-99364534D01*
X97854781Y-99559223D01*
X97914225Y-99675887D01*
X97947710Y-99741605D01*
X97947715Y-99741613D01*
X98068028Y-99907213D01*
X98212786Y-100051971D01*
X98322891Y-100131965D01*
X98378390Y-100172287D01*
X98494607Y-100231503D01*
X98560776Y-100265218D01*
X98560778Y-100265218D01*
X98560781Y-100265220D01*
X98644999Y-100292584D01*
X98755465Y-100328477D01*
X98774697Y-100331523D01*
X98957648Y-100360500D01*
X98957649Y-100360500D01*
X99162351Y-100360500D01*
X99162352Y-100360500D01*
X99364534Y-100328477D01*
X99559219Y-100265220D01*
X99741610Y-100172287D01*
X99834590Y-100104732D01*
X99907213Y-100051971D01*
X99907215Y-100051968D01*
X99907219Y-100051966D01*
X100051966Y-99907219D01*
X100051968Y-99907215D01*
X100051971Y-99907213D01*
X100135935Y-99791644D01*
X100172287Y-99741610D01*
X100265220Y-99559219D01*
X100328477Y-99364534D01*
X100360500Y-99162352D01*
X100360500Y-98957648D01*
X100328477Y-98755466D01*
X100328476Y-98755462D01*
X100328476Y-98755461D01*
X100298076Y-98661901D01*
X100265220Y-98560781D01*
X100246060Y-98523177D01*
X105429500Y-98523177D01*
X105429500Y-111858422D01*
X105460290Y-112052826D01*
X105521117Y-112240030D01*
X105588120Y-112371529D01*
X105610476Y-112415405D01*
X105726172Y-112574646D01*
X105726174Y-112574648D01*
X108067413Y-114915887D01*
X108090216Y-114947272D01*
X108107713Y-114981611D01*
X108228028Y-115147213D01*
X108372786Y-115291971D01*
X108507802Y-115390064D01*
X108538390Y-115412287D01*
X108654607Y-115471503D01*
X108720776Y-115505218D01*
X108720778Y-115505218D01*
X108720781Y-115505220D01*
X108811856Y-115534812D01*
X108915465Y-115568477D01*
X108934697Y-115571523D01*
X109117648Y-115600500D01*
X109117649Y-115600500D01*
X109322351Y-115600500D01*
X109322352Y-115600500D01*
X109524534Y-115568477D01*
X109719219Y-115505220D01*
X109901610Y-115412287D01*
X110004523Y-115337517D01*
X110067213Y-115291971D01*
X110067215Y-115291968D01*
X110067219Y-115291966D01*
X110211966Y-115147219D01*
X110285181Y-115046445D01*
X110340511Y-115003780D01*
X110410125Y-114997801D01*
X110471920Y-115030406D01*
X110506277Y-115091245D01*
X110509500Y-115119331D01*
X110509500Y-118560668D01*
X110489815Y-118627707D01*
X110437011Y-118673462D01*
X110367853Y-118683406D01*
X110304297Y-118654381D01*
X110285182Y-118633553D01*
X110211971Y-118532787D01*
X110211967Y-118532782D01*
X110067213Y-118388028D01*
X109901613Y-118267715D01*
X109901612Y-118267714D01*
X109901610Y-118267713D01*
X109844653Y-118238691D01*
X109719223Y-118174781D01*
X109524534Y-118111522D01*
X109349995Y-118083878D01*
X109322352Y-118079500D01*
X109117648Y-118079500D01*
X109093329Y-118083351D01*
X108915465Y-118111522D01*
X108720776Y-118174781D01*
X108538386Y-118267715D01*
X108372786Y-118388028D01*
X108228028Y-118532786D01*
X108107715Y-118698386D01*
X108014781Y-118880776D01*
X107951522Y-119075465D01*
X107919500Y-119277648D01*
X107919500Y-119482351D01*
X107951522Y-119684534D01*
X108014781Y-119879223D01*
X108078691Y-120004653D01*
X108094362Y-120035408D01*
X108107715Y-120061613D01*
X108228028Y-120227213D01*
X108372786Y-120371971D01*
X108527749Y-120484556D01*
X108538390Y-120492287D01*
X108654607Y-120551503D01*
X108720776Y-120585218D01*
X108720778Y-120585218D01*
X108720781Y-120585220D01*
X108825137Y-120619127D01*
X108915465Y-120648477D01*
X109016557Y-120664488D01*
X109117648Y-120680500D01*
X109117649Y-120680500D01*
X109322351Y-120680500D01*
X109322352Y-120680500D01*
X109524534Y-120648477D01*
X109719219Y-120585220D01*
X109901610Y-120492287D01*
X109994590Y-120424732D01*
X110067213Y-120371971D01*
X110067215Y-120371968D01*
X110067219Y-120371966D01*
X110211966Y-120227219D01*
X110285181Y-120126445D01*
X110340511Y-120083780D01*
X110410125Y-120077801D01*
X110471920Y-120110406D01*
X110506277Y-120171245D01*
X110509500Y-120199331D01*
X110509500Y-125368222D01*
X110540290Y-125562626D01*
X110601117Y-125749830D01*
X110676702Y-125898172D01*
X110690476Y-125925205D01*
X110806172Y-126084446D01*
X110806174Y-126084448D01*
X115215555Y-130493830D01*
X115215560Y-130493834D01*
X115268045Y-130531966D01*
X115374795Y-130609524D01*
X115486545Y-130666463D01*
X115550169Y-130698882D01*
X115550171Y-130698882D01*
X115550174Y-130698884D01*
X115650518Y-130731487D01*
X115737373Y-130759709D01*
X115931779Y-130790500D01*
X115931784Y-130790500D01*
X116128622Y-130790500D01*
X116323027Y-130759709D01*
X116367625Y-130745218D01*
X116510226Y-130698884D01*
X116685605Y-130609524D01*
X116844846Y-130493829D01*
X116984029Y-130354646D01*
X117099724Y-130195405D01*
X117189084Y-130020026D01*
X117249909Y-129832827D01*
X117279454Y-129646286D01*
X117280700Y-129638422D01*
X117280700Y-129441578D01*
X117249909Y-129247173D01*
X117221687Y-129160318D01*
X117189084Y-129059974D01*
X117189082Y-129059971D01*
X117189082Y-129059969D01*
X117156663Y-128996345D01*
X117099724Y-128884595D01*
X117080682Y-128858386D01*
X116984034Y-128725360D01*
X116984030Y-128725355D01*
X113046819Y-124788144D01*
X113013334Y-124726821D01*
X113010500Y-124700463D01*
X113010500Y-122654267D01*
X113030185Y-122587228D01*
X113082989Y-122541473D01*
X113152147Y-122531529D01*
X113215703Y-122560554D01*
X113234817Y-122581380D01*
X113346172Y-122734646D01*
X118565354Y-127953828D01*
X118724595Y-128069524D01*
X118789314Y-128102500D01*
X118899969Y-128158882D01*
X118899971Y-128158882D01*
X118899974Y-128158884D01*
X118994200Y-128189500D01*
X119087173Y-128219709D01*
X119281579Y-128250500D01*
X119281584Y-128250500D01*
X119478422Y-128250500D01*
X119672826Y-128219709D01*
X119860026Y-128158884D01*
X120035405Y-128069524D01*
X120194646Y-127953828D01*
X120333828Y-127814646D01*
X120449524Y-127655405D01*
X120538884Y-127480026D01*
X120599709Y-127292826D01*
X120630500Y-127098422D01*
X120630500Y-126901578D01*
X120599709Y-126707173D01*
X120538882Y-126519969D01*
X120449523Y-126344594D01*
X120333828Y-126185354D01*
X115586819Y-121438345D01*
X115553334Y-121377022D01*
X115550500Y-121350664D01*
X115550500Y-112579331D01*
X115570185Y-112512292D01*
X115622989Y-112466537D01*
X115692147Y-112456593D01*
X115755703Y-112485618D01*
X115774819Y-112506446D01*
X115848034Y-112607219D01*
X115992786Y-112751971D01*
X116147749Y-112864556D01*
X116158390Y-112872287D01*
X116274607Y-112931503D01*
X116340776Y-112965218D01*
X116340778Y-112965218D01*
X116340781Y-112965220D01*
X116436885Y-112996446D01*
X116535465Y-113028477D01*
X116554697Y-113031523D01*
X116737648Y-113060500D01*
X116737649Y-113060500D01*
X116942351Y-113060500D01*
X116942352Y-113060500D01*
X117144534Y-113028477D01*
X117339219Y-112965220D01*
X117521610Y-112872287D01*
X117614590Y-112804732D01*
X117687213Y-112751971D01*
X117687215Y-112751968D01*
X117687219Y-112751966D01*
X117831966Y-112607219D01*
X117831968Y-112607215D01*
X117831971Y-112607213D01*
X117905181Y-112506446D01*
X117952287Y-112441610D01*
X118045220Y-112259219D01*
X118108477Y-112064534D01*
X118140500Y-111862352D01*
X118140500Y-111657648D01*
X118108477Y-111455466D01*
X118045220Y-111260781D01*
X118045218Y-111260778D01*
X118045218Y-111260776D01*
X118009494Y-111190664D01*
X117952287Y-111078390D01*
X117936179Y-111056219D01*
X117831971Y-110912786D01*
X117687213Y-110768028D01*
X117521613Y-110647715D01*
X117521612Y-110647714D01*
X117521610Y-110647713D01*
X117464653Y-110618691D01*
X117339223Y-110554781D01*
X117144534Y-110491522D01*
X116969995Y-110463878D01*
X116942352Y-110459500D01*
X116737648Y-110459500D01*
X116713329Y-110463351D01*
X116535465Y-110491522D01*
X116340776Y-110554781D01*
X116158386Y-110647715D01*
X115992786Y-110768028D01*
X115848032Y-110912782D01*
X115848028Y-110912787D01*
X115774818Y-111013553D01*
X115719488Y-111056219D01*
X115649875Y-111062198D01*
X115588080Y-111029592D01*
X115553723Y-110968754D01*
X115550500Y-110940668D01*
X115550500Y-99959331D01*
X115570185Y-99892292D01*
X115622989Y-99846537D01*
X115692147Y-99836593D01*
X115755703Y-99865618D01*
X115774817Y-99886444D01*
X115848034Y-99987219D01*
X115992781Y-100131966D01*
X116158390Y-100252287D01*
X116192724Y-100269781D01*
X116224110Y-100292584D01*
X125753181Y-109821655D01*
X125786666Y-109882978D01*
X125789500Y-109909336D01*
X125789500Y-116460498D01*
X125783431Y-116498816D01*
X125771523Y-116535464D01*
X125739500Y-116737648D01*
X125739500Y-116942351D01*
X125771522Y-117144534D01*
X125834781Y-117339223D01*
X125927715Y-117521613D01*
X126048028Y-117687213D01*
X126192786Y-117831971D01*
X126347749Y-117944556D01*
X126358390Y-117952287D01*
X126462581Y-118005375D01*
X126540776Y-118045218D01*
X126540778Y-118045218D01*
X126540781Y-118045220D01*
X126631856Y-118074812D01*
X126735465Y-118108477D01*
X126754697Y-118111523D01*
X126937648Y-118140500D01*
X126937649Y-118140500D01*
X127142351Y-118140500D01*
X127142352Y-118140500D01*
X127344534Y-118108477D01*
X127539219Y-118045220D01*
X127721610Y-117952287D01*
X127850482Y-117858657D01*
X127887213Y-117831971D01*
X127887215Y-117831968D01*
X127887219Y-117831966D01*
X128031966Y-117687219D01*
X128072550Y-117631358D01*
X128127878Y-117588694D01*
X128197491Y-117582713D01*
X128259287Y-117615318D01*
X128290573Y-117665238D01*
X128305183Y-117709327D01*
X128305185Y-117709331D01*
X128305186Y-117709334D01*
X128397288Y-117858656D01*
X128521344Y-117982712D01*
X128670666Y-118074814D01*
X128837203Y-118129999D01*
X128939991Y-118140500D01*
X130140008Y-118140499D01*
X130242797Y-118129999D01*
X130409334Y-118074814D01*
X130558656Y-117982712D01*
X130682712Y-117858656D01*
X130774814Y-117709334D01*
X130829999Y-117542797D01*
X130840500Y-117440009D01*
X130840499Y-117359334D01*
X130860183Y-117292297D01*
X130876813Y-117271659D01*
X133033828Y-115114646D01*
X133083379Y-115046446D01*
X133090975Y-115035992D01*
X133130485Y-114981610D01*
X133149524Y-114955405D01*
X133238884Y-114780025D01*
X133299709Y-114592826D01*
X133303435Y-114569302D01*
X133330500Y-114398422D01*
X133330500Y-112494267D01*
X133350185Y-112427228D01*
X133402989Y-112381473D01*
X133472147Y-112371529D01*
X133535703Y-112400554D01*
X133554817Y-112421380D01*
X133666172Y-112574646D01*
X133666174Y-112574648D01*
X135833181Y-114741655D01*
X135866666Y-114802978D01*
X135869500Y-114829336D01*
X135869500Y-115965613D01*
X135849815Y-116032652D01*
X135797011Y-116078407D01*
X135727853Y-116088351D01*
X135664297Y-116059326D01*
X135645182Y-116038498D01*
X135611971Y-115992786D01*
X135467213Y-115848028D01*
X135301613Y-115727715D01*
X135301612Y-115727714D01*
X135301610Y-115727713D01*
X135241898Y-115697288D01*
X135119223Y-115634781D01*
X134924534Y-115571522D01*
X134749995Y-115543878D01*
X134722352Y-115539500D01*
X134517648Y-115539500D01*
X134493329Y-115543351D01*
X134315465Y-115571522D01*
X134120776Y-115634781D01*
X133938386Y-115727715D01*
X133772786Y-115848028D01*
X133628028Y-115992786D01*
X133507715Y-116158386D01*
X133414781Y-116340776D01*
X133351522Y-116535465D01*
X133319500Y-116737648D01*
X133319500Y-116942351D01*
X133351522Y-117144534D01*
X133414781Y-117339223D01*
X133507715Y-117521613D01*
X133628028Y-117687213D01*
X133772786Y-117831971D01*
X133927749Y-117944556D01*
X133938390Y-117952287D01*
X134042581Y-118005375D01*
X134120776Y-118045218D01*
X134120778Y-118045218D01*
X134120781Y-118045220D01*
X134211856Y-118074812D01*
X134315465Y-118108477D01*
X134334697Y-118111523D01*
X134517648Y-118140500D01*
X134517649Y-118140500D01*
X134722351Y-118140500D01*
X134722352Y-118140500D01*
X134924534Y-118108477D01*
X135119219Y-118045220D01*
X135301610Y-117952287D01*
X135430482Y-117858657D01*
X135467213Y-117831971D01*
X135467215Y-117831968D01*
X135467219Y-117831966D01*
X135611966Y-117687219D01*
X135652550Y-117631358D01*
X135707878Y-117588694D01*
X135777491Y-117582713D01*
X135839287Y-117615318D01*
X135870573Y-117665238D01*
X135885183Y-117709327D01*
X135885185Y-117709331D01*
X135885186Y-117709334D01*
X135977288Y-117858656D01*
X136101344Y-117982712D01*
X136250666Y-118074814D01*
X136417203Y-118129999D01*
X136519991Y-118140500D01*
X137720008Y-118140499D01*
X137822797Y-118129999D01*
X137989334Y-118074814D01*
X138138656Y-117982712D01*
X138262712Y-117858656D01*
X138354814Y-117709334D01*
X138409999Y-117542797D01*
X138420500Y-117440009D01*
X138420499Y-116239992D01*
X138409999Y-116137203D01*
X138384193Y-116059326D01*
X138376794Y-116036996D01*
X138370500Y-115997992D01*
X138370500Y-114161578D01*
X138339709Y-113967173D01*
X138291351Y-113818344D01*
X138278884Y-113779974D01*
X138278882Y-113779971D01*
X138278882Y-113779969D01*
X138224666Y-113673566D01*
X138189524Y-113604595D01*
X138073828Y-113445354D01*
X135906819Y-111278345D01*
X135873334Y-111217022D01*
X135870500Y-111190664D01*
X135870500Y-107059500D01*
X135876569Y-107021182D01*
X135888477Y-106984534D01*
X135920500Y-106782352D01*
X135920500Y-106577648D01*
X135888477Y-106375465D01*
X135831740Y-106200847D01*
X135825220Y-106180781D01*
X135825218Y-106180778D01*
X135825218Y-106180776D01*
X135758697Y-106050223D01*
X135732287Y-105998390D01*
X135724556Y-105987749D01*
X135611971Y-105832786D01*
X135467213Y-105688028D01*
X135301613Y-105567715D01*
X135301612Y-105567714D01*
X135301610Y-105567713D01*
X135244653Y-105538691D01*
X135119223Y-105474781D01*
X134924534Y-105411522D01*
X134749995Y-105383878D01*
X134722352Y-105379500D01*
X134517648Y-105379500D01*
X134493329Y-105383351D01*
X134315465Y-105411522D01*
X134120776Y-105474781D01*
X133938386Y-105567715D01*
X133772786Y-105688028D01*
X133628028Y-105832786D01*
X133507715Y-105998386D01*
X133460485Y-106091080D01*
X133412510Y-106141876D01*
X133344689Y-106158671D01*
X133278554Y-106136134D01*
X133239515Y-106091080D01*
X133218697Y-106050223D01*
X133192287Y-105998390D01*
X133184556Y-105987749D01*
X133071971Y-105832786D01*
X132927213Y-105688028D01*
X132761613Y-105567715D01*
X132761612Y-105567714D01*
X132761610Y-105567713D01*
X132704653Y-105538691D01*
X132579223Y-105474781D01*
X132384534Y-105411522D01*
X132209995Y-105383878D01*
X132182352Y-105379500D01*
X131977648Y-105379500D01*
X131953329Y-105383351D01*
X131775465Y-105411522D01*
X131580776Y-105474781D01*
X131398386Y-105567715D01*
X131232786Y-105688028D01*
X131088028Y-105832786D01*
X130967715Y-105998386D01*
X130874781Y-106180776D01*
X130811522Y-106375465D01*
X130779500Y-106577648D01*
X130779500Y-106782351D01*
X130811522Y-106984530D01*
X130811522Y-106984531D01*
X130823431Y-107021182D01*
X130829500Y-107059500D01*
X130829500Y-113730663D01*
X130809815Y-113797702D01*
X130793181Y-113818344D01*
X129108343Y-115503181D01*
X129047020Y-115536666D01*
X129020663Y-115539500D01*
X128939999Y-115539500D01*
X128939980Y-115539501D01*
X128837203Y-115550000D01*
X128837200Y-115550001D01*
X128670668Y-115605185D01*
X128670663Y-115605187D01*
X128521342Y-115697289D01*
X128502181Y-115716451D01*
X128440858Y-115749936D01*
X128371166Y-115744952D01*
X128315233Y-115703080D01*
X128290816Y-115637616D01*
X128290500Y-115628770D01*
X128290500Y-109241577D01*
X128259709Y-109047173D01*
X128198882Y-108859970D01*
X128137739Y-108739970D01*
X128109524Y-108684595D01*
X127993828Y-108525354D01*
X127854646Y-108386172D01*
X117992584Y-98524110D01*
X117969780Y-98492723D01*
X117952287Y-98458390D01*
X117831966Y-98292781D01*
X117687219Y-98148034D01*
X117687213Y-98148028D01*
X117638701Y-98112783D01*
X122489900Y-98112783D01*
X122489900Y-99312801D01*
X122489901Y-99312818D01*
X122500400Y-99415596D01*
X122500401Y-99415599D01*
X122555585Y-99582131D01*
X122555587Y-99582136D01*
X122568990Y-99603865D01*
X122647688Y-99731456D01*
X122771744Y-99855512D01*
X122921066Y-99947614D01*
X123087603Y-100002799D01*
X123190391Y-100013300D01*
X124390408Y-100013299D01*
X124493197Y-100002799D01*
X124659734Y-99947614D01*
X124809056Y-99855512D01*
X124933112Y-99731456D01*
X125025214Y-99582134D01*
X125080399Y-99415597D01*
X125090900Y-99312809D01*
X125090899Y-98112792D01*
X125080399Y-98010003D01*
X125025214Y-97843466D01*
X124933112Y-97694144D01*
X124809056Y-97570088D01*
X124662069Y-97479426D01*
X124659736Y-97477987D01*
X124659731Y-97477985D01*
X124658262Y-97477498D01*
X124493197Y-97422801D01*
X124493195Y-97422800D01*
X124390410Y-97412300D01*
X123190398Y-97412300D01*
X123190381Y-97412301D01*
X123087603Y-97422800D01*
X123087600Y-97422801D01*
X122921068Y-97477985D01*
X122921063Y-97477987D01*
X122771742Y-97570089D01*
X122647689Y-97694142D01*
X122555587Y-97843463D01*
X122555585Y-97843468D01*
X122546289Y-97871522D01*
X122500401Y-98010003D01*
X122500401Y-98010004D01*
X122500400Y-98010004D01*
X122489900Y-98112783D01*
X117638701Y-98112783D01*
X117521613Y-98027715D01*
X117521612Y-98027714D01*
X117521610Y-98027713D01*
X117464653Y-97998691D01*
X117339223Y-97934781D01*
X117144534Y-97871522D01*
X116969995Y-97843878D01*
X116942352Y-97839500D01*
X116737648Y-97839500D01*
X116713329Y-97843351D01*
X116535465Y-97871522D01*
X116340776Y-97934781D01*
X116158386Y-98027715D01*
X115992786Y-98148028D01*
X115848028Y-98292786D01*
X115727715Y-98458386D01*
X115672808Y-98566146D01*
X115624833Y-98616942D01*
X115557012Y-98633737D01*
X115490877Y-98611199D01*
X115451838Y-98566146D01*
X115369524Y-98404595D01*
X115253828Y-98245354D01*
X110372584Y-93364110D01*
X110349780Y-93332723D01*
X110345639Y-93324595D01*
X110332287Y-93298390D01*
X110211966Y-93132781D01*
X110067219Y-92988034D01*
X110067213Y-92988028D01*
X109901613Y-92867715D01*
X109901612Y-92867714D01*
X109901610Y-92867713D01*
X109844653Y-92838691D01*
X109719223Y-92774781D01*
X109524534Y-92711522D01*
X109349995Y-92683878D01*
X109322352Y-92679500D01*
X109117648Y-92679500D01*
X109093329Y-92683351D01*
X108915465Y-92711522D01*
X108720776Y-92774781D01*
X108538386Y-92867715D01*
X108372786Y-92988028D01*
X108228028Y-93132786D01*
X108107715Y-93298386D01*
X108014781Y-93480776D01*
X107951522Y-93675465D01*
X107919500Y-93877648D01*
X107919500Y-94082351D01*
X107951522Y-94284534D01*
X108014781Y-94479223D01*
X108107715Y-94661613D01*
X108228028Y-94827213D01*
X108228034Y-94827219D01*
X108372781Y-94971966D01*
X108528543Y-95085133D01*
X108571208Y-95140461D01*
X108577187Y-95210074D01*
X108544582Y-95271870D01*
X108483744Y-95306227D01*
X108417341Y-95303382D01*
X108407827Y-95300291D01*
X108213422Y-95269500D01*
X108213417Y-95269500D01*
X108016583Y-95269500D01*
X108016578Y-95269500D01*
X107822173Y-95300290D01*
X107634970Y-95361117D01*
X107459594Y-95450476D01*
X107368741Y-95516485D01*
X107300354Y-95566172D01*
X107300352Y-95566174D01*
X107300351Y-95566174D01*
X107161174Y-95705351D01*
X107161174Y-95705352D01*
X107161172Y-95705354D01*
X107111485Y-95773741D01*
X107045476Y-95864594D01*
X106956117Y-96039970D01*
X106895290Y-96227173D01*
X106864500Y-96421577D01*
X106864500Y-96617264D01*
X106844815Y-96684303D01*
X106828181Y-96704945D01*
X105726174Y-97806951D01*
X105726174Y-97806952D01*
X105726172Y-97806954D01*
X105679260Y-97871522D01*
X105610476Y-97966194D01*
X105521115Y-98141573D01*
X105521114Y-98141576D01*
X105478054Y-98274105D01*
X105460291Y-98328772D01*
X105460290Y-98328777D01*
X105429500Y-98523177D01*
X100246060Y-98523177D01*
X100172287Y-98378390D01*
X100140313Y-98334381D01*
X100051971Y-98212786D01*
X99907213Y-98068028D01*
X99741613Y-97947715D01*
X99741612Y-97947714D01*
X99741610Y-97947713D01*
X99662519Y-97907414D01*
X99559223Y-97854781D01*
X99364534Y-97791522D01*
X99189995Y-97763878D01*
X99162352Y-97759500D01*
X98957648Y-97759500D01*
X98933329Y-97763351D01*
X98755465Y-97791522D01*
X98560776Y-97854781D01*
X98378386Y-97947715D01*
X98212786Y-98068028D01*
X98068028Y-98212786D01*
X97947715Y-98378386D01*
X97854781Y-98560776D01*
X97791522Y-98755465D01*
X97759500Y-98957648D01*
X83050500Y-98957648D01*
X83050500Y-93877648D01*
X97759500Y-93877648D01*
X97759500Y-94082351D01*
X97791522Y-94284534D01*
X97854781Y-94479223D01*
X97947715Y-94661613D01*
X98068028Y-94827213D01*
X98212786Y-94971971D01*
X98367749Y-95084556D01*
X98378390Y-95092287D01*
X98472937Y-95140461D01*
X98560776Y-95185218D01*
X98560778Y-95185218D01*
X98560781Y-95185220D01*
X98637274Y-95210074D01*
X98755465Y-95248477D01*
X98856557Y-95264488D01*
X98957648Y-95280500D01*
X98957649Y-95280500D01*
X99162351Y-95280500D01*
X99162352Y-95280500D01*
X99364534Y-95248477D01*
X99559219Y-95185220D01*
X99741610Y-95092287D01*
X99834590Y-95024732D01*
X99907213Y-94971971D01*
X99907215Y-94971968D01*
X99907219Y-94971966D01*
X100051966Y-94827219D01*
X100051968Y-94827215D01*
X100051971Y-94827213D01*
X100104732Y-94754590D01*
X100172287Y-94661610D01*
X100265220Y-94479219D01*
X100328477Y-94284534D01*
X100360500Y-94082352D01*
X100360500Y-93877648D01*
X100328477Y-93675465D01*
X100299127Y-93585137D01*
X100265220Y-93480781D01*
X100265218Y-93480778D01*
X100265218Y-93480776D01*
X100205773Y-93364110D01*
X100172287Y-93298390D01*
X100134029Y-93245732D01*
X100051971Y-93132786D01*
X99907213Y-92988028D01*
X99741613Y-92867715D01*
X99741612Y-92867714D01*
X99741610Y-92867713D01*
X99684653Y-92838691D01*
X99559223Y-92774781D01*
X99364534Y-92711522D01*
X99189995Y-92683878D01*
X99162352Y-92679500D01*
X98957648Y-92679500D01*
X98933329Y-92683351D01*
X98755465Y-92711522D01*
X98560776Y-92774781D01*
X98378386Y-92867715D01*
X98212786Y-92988028D01*
X98068028Y-93132786D01*
X97947715Y-93298386D01*
X97854781Y-93480776D01*
X97791522Y-93675465D01*
X97759500Y-93877648D01*
X83050500Y-93877648D01*
X83050500Y-83649244D01*
X88399500Y-83649244D01*
X88399500Y-83990755D01*
X88437734Y-84330092D01*
X88437736Y-84330108D01*
X88513726Y-84663044D01*
X88513730Y-84663056D01*
X88626515Y-84985375D01*
X88626524Y-84985397D01*
X88774686Y-85293059D01*
X88812587Y-85353377D01*
X88956380Y-85582222D01*
X89169303Y-85849219D01*
X89410781Y-86090697D01*
X89677778Y-86303620D01*
X89857234Y-86416380D01*
X89966940Y-86485313D01*
X90274602Y-86633475D01*
X90274611Y-86633478D01*
X90274618Y-86633482D01*
X90274624Y-86633484D01*
X90596943Y-86746269D01*
X90596955Y-86746273D01*
X90929895Y-86822264D01*
X91269245Y-86860499D01*
X91269246Y-86860500D01*
X91269249Y-86860500D01*
X91610754Y-86860500D01*
X91610754Y-86860499D01*
X91950105Y-86822264D01*
X92283045Y-86746273D01*
X92605382Y-86633482D01*
X92761932Y-86558092D01*
X92913059Y-86485313D01*
X92913059Y-86485312D01*
X92913065Y-86485310D01*
X93202222Y-86303620D01*
X93469219Y-86090697D01*
X93710697Y-85849219D01*
X93923620Y-85582222D01*
X94105310Y-85293065D01*
X94167110Y-85164736D01*
X94253475Y-84985397D01*
X94253476Y-84985393D01*
X94253482Y-84985382D01*
X94366273Y-84663045D01*
X94442264Y-84330105D01*
X94480500Y-83990751D01*
X94480500Y-83649249D01*
X94442264Y-83309895D01*
X94366273Y-82976955D01*
X94253482Y-82654618D01*
X94253478Y-82654611D01*
X94253475Y-82654602D01*
X94105313Y-82346940D01*
X93965367Y-82124218D01*
X93923620Y-82057778D01*
X93710697Y-81790781D01*
X93469219Y-81549303D01*
X93202222Y-81336380D01*
X92913065Y-81154690D01*
X92913066Y-81154690D01*
X92913059Y-81154686D01*
X92605397Y-81006524D01*
X92605375Y-81006515D01*
X92283056Y-80893730D01*
X92283044Y-80893726D01*
X91950108Y-80817736D01*
X91950092Y-80817734D01*
X91610755Y-80779500D01*
X91610751Y-80779500D01*
X91269249Y-80779500D01*
X91269244Y-80779500D01*
X90929907Y-80817734D01*
X90929891Y-80817736D01*
X90596955Y-80893726D01*
X90596943Y-80893730D01*
X90274624Y-81006515D01*
X90274602Y-81006524D01*
X89966940Y-81154686D01*
X89677779Y-81336379D01*
X89410781Y-81549302D01*
X89169302Y-81790781D01*
X88956379Y-82057779D01*
X88774686Y-82346940D01*
X88626524Y-82654602D01*
X88626515Y-82654624D01*
X88513730Y-82976943D01*
X88513726Y-82976955D01*
X88437736Y-83309891D01*
X88437734Y-83309907D01*
X88399500Y-83649244D01*
X83050500Y-83649244D01*
X83050500Y-64602135D01*
X92089500Y-64602135D01*
X92089500Y-67477870D01*
X92089501Y-67477876D01*
X92095908Y-67537483D01*
X92146202Y-67672328D01*
X92146206Y-67672335D01*
X92232452Y-67787544D01*
X92232455Y-67787547D01*
X92347664Y-67873793D01*
X92347671Y-67873797D01*
X92482517Y-67924091D01*
X92482516Y-67924091D01*
X92489444Y-67924835D01*
X92542127Y-67930500D01*
X94050663Y-67930499D01*
X94117702Y-67950184D01*
X94138344Y-67966818D01*
X103405354Y-77233828D01*
X103564595Y-77349524D01*
X103647454Y-77391742D01*
X103739969Y-77438882D01*
X103739971Y-77438882D01*
X103739974Y-77438884D01*
X103840318Y-77471487D01*
X103927173Y-77499709D01*
X104121578Y-77530500D01*
X104121583Y-77530500D01*
X104121584Y-77530500D01*
X104318417Y-77530500D01*
X110917993Y-77530500D01*
X110956997Y-77536794D01*
X111057203Y-77569999D01*
X111159991Y-77580500D01*
X112360008Y-77580499D01*
X112462797Y-77569999D01*
X112629334Y-77514814D01*
X112778656Y-77422712D01*
X112902712Y-77298656D01*
X112994814Y-77149334D01*
X113049999Y-76982797D01*
X113060500Y-76880009D01*
X113060499Y-76799334D01*
X113080183Y-76732297D01*
X113096813Y-76711659D01*
X121643972Y-68164501D01*
X121705291Y-68131019D01*
X121774983Y-68136003D01*
X121819330Y-68164504D01*
X125713181Y-72058355D01*
X125746666Y-72119678D01*
X125749500Y-72146036D01*
X125749500Y-103421422D01*
X125780290Y-103615826D01*
X125841117Y-103803029D01*
X125903313Y-103925095D01*
X125930476Y-103978405D01*
X126046172Y-104137646D01*
X126185354Y-104276828D01*
X126344595Y-104392524D01*
X126403321Y-104422446D01*
X126519970Y-104481882D01*
X126519972Y-104481882D01*
X126519975Y-104481884D01*
X126620317Y-104514487D01*
X126707173Y-104542709D01*
X126901578Y-104573500D01*
X126901583Y-104573500D01*
X127098422Y-104573500D01*
X127292826Y-104542709D01*
X127480025Y-104481884D01*
X127655405Y-104392524D01*
X127814646Y-104276828D01*
X127953828Y-104137646D01*
X128069524Y-103978405D01*
X128158884Y-103803025D01*
X128219709Y-103615826D01*
X128240494Y-103484594D01*
X128250500Y-103421422D01*
X128250500Y-99879331D01*
X128270185Y-99812292D01*
X128322989Y-99766537D01*
X128392147Y-99756593D01*
X128455703Y-99785618D01*
X128474819Y-99806446D01*
X128548034Y-99907219D01*
X128692786Y-100051971D01*
X128802891Y-100131965D01*
X128858390Y-100172287D01*
X128974607Y-100231503D01*
X129040776Y-100265218D01*
X129040778Y-100265218D01*
X129040781Y-100265220D01*
X129124999Y-100292584D01*
X129235465Y-100328477D01*
X129254697Y-100331523D01*
X129437648Y-100360500D01*
X129437649Y-100360500D01*
X129642351Y-100360500D01*
X129642352Y-100360500D01*
X129844534Y-100328477D01*
X130039219Y-100265220D01*
X130221610Y-100172287D01*
X130314590Y-100104732D01*
X130387213Y-100051971D01*
X130387215Y-100051968D01*
X130387219Y-100051966D01*
X130531966Y-99907219D01*
X130531968Y-99907215D01*
X130531971Y-99907213D01*
X130652284Y-99741614D01*
X130652285Y-99741613D01*
X130652287Y-99741610D01*
X130699516Y-99648917D01*
X130747489Y-99598123D01*
X130815310Y-99581328D01*
X130881445Y-99603865D01*
X130920483Y-99648917D01*
X130941302Y-99689776D01*
X130967715Y-99741614D01*
X131088028Y-99907213D01*
X131232786Y-100051971D01*
X131342891Y-100131965D01*
X131398390Y-100172287D01*
X131514607Y-100231503D01*
X131580776Y-100265218D01*
X131580778Y-100265218D01*
X131580781Y-100265220D01*
X131664999Y-100292584D01*
X131775465Y-100328477D01*
X131794697Y-100331523D01*
X131977648Y-100360500D01*
X131977649Y-100360500D01*
X132182351Y-100360500D01*
X132182352Y-100360500D01*
X132384534Y-100328477D01*
X132579219Y-100265220D01*
X132761610Y-100172287D01*
X132854590Y-100104732D01*
X132927213Y-100051971D01*
X132927215Y-100051968D01*
X132927219Y-100051966D01*
X133071966Y-99907219D01*
X133071968Y-99907215D01*
X133071971Y-99907213D01*
X133192284Y-99741614D01*
X133192285Y-99741613D01*
X133192287Y-99741610D01*
X133239516Y-99648917D01*
X133287489Y-99598123D01*
X133355310Y-99581328D01*
X133421445Y-99603865D01*
X133460483Y-99648917D01*
X133481302Y-99689776D01*
X133507715Y-99741614D01*
X133628028Y-99907213D01*
X133772786Y-100051971D01*
X133882891Y-100131965D01*
X133938390Y-100172287D01*
X134054607Y-100231503D01*
X134120776Y-100265218D01*
X134120778Y-100265218D01*
X134120781Y-100265220D01*
X134204999Y-100292584D01*
X134315465Y-100328477D01*
X134334697Y-100331523D01*
X134517648Y-100360500D01*
X134517649Y-100360500D01*
X134722351Y-100360500D01*
X134722352Y-100360500D01*
X134924534Y-100328477D01*
X135119219Y-100265220D01*
X135301610Y-100172287D01*
X135394590Y-100104732D01*
X135467213Y-100051971D01*
X135467215Y-100051968D01*
X135467219Y-100051966D01*
X135611966Y-99907219D01*
X135732287Y-99741610D01*
X135749780Y-99707275D01*
X135772582Y-99675890D01*
X140653828Y-94794646D01*
X140765182Y-94641380D01*
X140820512Y-94598716D01*
X140890126Y-94592737D01*
X140951921Y-94625343D01*
X140986278Y-94686182D01*
X140989500Y-94714267D01*
X140989500Y-98680498D01*
X140983431Y-98718816D01*
X140971523Y-98755464D01*
X140939500Y-98957648D01*
X140939500Y-99162351D01*
X140971522Y-99364534D01*
X141034781Y-99559223D01*
X141094225Y-99675887D01*
X141127710Y-99741605D01*
X141127715Y-99741613D01*
X141248028Y-99907213D01*
X141392786Y-100051971D01*
X141502891Y-100131965D01*
X141558390Y-100172287D01*
X141674607Y-100231503D01*
X141740776Y-100265218D01*
X141740778Y-100265218D01*
X141740781Y-100265220D01*
X141824999Y-100292584D01*
X141935465Y-100328477D01*
X141954697Y-100331523D01*
X142137648Y-100360500D01*
X142137649Y-100360500D01*
X142342351Y-100360500D01*
X142342352Y-100360500D01*
X142544534Y-100328477D01*
X142739219Y-100265220D01*
X142921610Y-100172287D01*
X143014590Y-100104732D01*
X143087213Y-100051971D01*
X143087215Y-100051968D01*
X143087219Y-100051966D01*
X143231966Y-99907219D01*
X143231968Y-99907215D01*
X143231971Y-99907213D01*
X143352284Y-99741614D01*
X143352285Y-99741613D01*
X143352287Y-99741610D01*
X143399516Y-99648917D01*
X143447489Y-99598123D01*
X143515310Y-99581328D01*
X143581445Y-99603865D01*
X143620483Y-99648917D01*
X143641302Y-99689776D01*
X143667715Y-99741614D01*
X143788028Y-99907213D01*
X143932786Y-100051971D01*
X144042891Y-100131965D01*
X144098390Y-100172287D01*
X144214607Y-100231503D01*
X144280776Y-100265218D01*
X144280778Y-100265218D01*
X144280781Y-100265220D01*
X144364999Y-100292584D01*
X144475465Y-100328477D01*
X144494697Y-100331523D01*
X144677648Y-100360500D01*
X144677649Y-100360500D01*
X144882351Y-100360500D01*
X144882352Y-100360500D01*
X145084534Y-100328477D01*
X145279219Y-100265220D01*
X145461610Y-100172287D01*
X145554590Y-100104732D01*
X145627213Y-100051971D01*
X145627215Y-100051968D01*
X145627219Y-100051966D01*
X145771966Y-99907219D01*
X145771968Y-99907215D01*
X145771971Y-99907213D01*
X145855935Y-99791644D01*
X145892287Y-99741610D01*
X145985220Y-99559219D01*
X146048477Y-99364534D01*
X146080500Y-99162352D01*
X146080500Y-98957648D01*
X146048477Y-98755466D01*
X146036569Y-98718816D01*
X146030500Y-98680498D01*
X146030500Y-94549336D01*
X146050185Y-94482297D01*
X146066819Y-94461655D01*
X147167191Y-93361283D01*
X148273828Y-92254646D01*
X148334182Y-92171575D01*
X148389512Y-92128910D01*
X148459125Y-92122931D01*
X148520920Y-92155537D01*
X148555277Y-92216375D01*
X148558500Y-92244461D01*
X148558500Y-101081664D01*
X148538815Y-101148703D01*
X148522181Y-101169345D01*
X146366174Y-103325351D01*
X146366174Y-103325352D01*
X146366172Y-103325354D01*
X146349171Y-103348754D01*
X146250476Y-103484594D01*
X146161117Y-103659969D01*
X146100290Y-103847173D01*
X146069500Y-104041577D01*
X146069500Y-104238422D01*
X146081687Y-104315367D01*
X146072733Y-104384660D01*
X146046895Y-104422446D01*
X145441887Y-105027454D01*
X145365222Y-105142192D01*
X145312421Y-105269667D01*
X145312418Y-105269677D01*
X145299305Y-105335601D01*
X145266920Y-105397512D01*
X145206204Y-105432086D01*
X145139369Y-105429340D01*
X145084534Y-105411522D01*
X144909995Y-105383878D01*
X144882352Y-105379500D01*
X144677648Y-105379500D01*
X144653329Y-105383351D01*
X144475465Y-105411522D01*
X144280776Y-105474781D01*
X144098386Y-105567715D01*
X143932786Y-105688028D01*
X143788028Y-105832786D01*
X143667715Y-105998386D01*
X143620485Y-106091080D01*
X143572510Y-106141876D01*
X143504689Y-106158671D01*
X143438554Y-106136134D01*
X143399515Y-106091080D01*
X143378697Y-106050223D01*
X143352287Y-105998390D01*
X143344556Y-105987749D01*
X143231971Y-105832786D01*
X143087213Y-105688028D01*
X142921613Y-105567715D01*
X142921612Y-105567714D01*
X142921610Y-105567713D01*
X142864653Y-105538691D01*
X142739223Y-105474781D01*
X142544534Y-105411522D01*
X142369995Y-105383878D01*
X142342352Y-105379500D01*
X142137648Y-105379500D01*
X142113329Y-105383351D01*
X141935465Y-105411522D01*
X141740776Y-105474781D01*
X141558386Y-105567715D01*
X141392786Y-105688028D01*
X141248028Y-105832786D01*
X141127715Y-105998386D01*
X141034781Y-106180776D01*
X140971522Y-106375465D01*
X140939500Y-106577648D01*
X140939500Y-106782351D01*
X140971522Y-106984530D01*
X140971522Y-106984531D01*
X140983431Y-107021182D01*
X140989500Y-107059500D01*
X140989500Y-116135788D01*
X140988858Y-116148391D01*
X140979500Y-116239983D01*
X140979500Y-117440001D01*
X140979501Y-117440018D01*
X140990000Y-117542796D01*
X140990001Y-117542799D01*
X141030574Y-117665238D01*
X141045186Y-117709334D01*
X141137288Y-117858656D01*
X141261344Y-117982712D01*
X141410666Y-118074814D01*
X141577203Y-118129999D01*
X141679991Y-118140500D01*
X142880008Y-118140499D01*
X142982797Y-118129999D01*
X143149334Y-118074814D01*
X143298656Y-117982712D01*
X143422712Y-117858656D01*
X143514814Y-117709334D01*
X143529426Y-117665237D01*
X143569195Y-117607796D01*
X143633711Y-117580972D01*
X143702487Y-117593286D01*
X143747448Y-117631358D01*
X143788032Y-117687217D01*
X143932786Y-117831971D01*
X144087749Y-117944556D01*
X144098390Y-117952287D01*
X144202581Y-118005375D01*
X144280776Y-118045218D01*
X144280778Y-118045218D01*
X144280781Y-118045220D01*
X144371856Y-118074812D01*
X144475465Y-118108477D01*
X144494697Y-118111523D01*
X144677648Y-118140500D01*
X144677649Y-118140500D01*
X144882351Y-118140500D01*
X144882352Y-118140500D01*
X145084534Y-118108477D01*
X145279219Y-118045220D01*
X145461610Y-117952287D01*
X145590482Y-117858657D01*
X145627213Y-117831971D01*
X145627215Y-117831968D01*
X145627219Y-117831966D01*
X145771966Y-117687219D01*
X145845181Y-117586445D01*
X145900511Y-117543780D01*
X145970125Y-117537801D01*
X146031920Y-117570406D01*
X146066277Y-117631245D01*
X146069500Y-117659331D01*
X146069500Y-118560664D01*
X146049815Y-118627703D01*
X146033181Y-118648345D01*
X139116345Y-125565181D01*
X139055022Y-125598666D01*
X139028664Y-125601500D01*
X134845578Y-125601500D01*
X134651172Y-125632291D01*
X134590348Y-125652053D01*
X134590348Y-125652054D01*
X134547103Y-125666105D01*
X134463970Y-125693117D01*
X134352677Y-125749825D01*
X134288593Y-125782477D01*
X134288590Y-125782478D01*
X134169307Y-125869144D01*
X134129354Y-125898172D01*
X134129352Y-125898174D01*
X134129351Y-125898174D01*
X124666174Y-135361351D01*
X124666174Y-135361352D01*
X124666172Y-135361354D01*
X124661558Y-135367705D01*
X124550476Y-135520594D01*
X124460669Y-135696851D01*
X124459608Y-135700612D01*
X124400291Y-135883169D01*
X124400291Y-135883172D01*
X124369500Y-136077577D01*
X124369500Y-137418422D01*
X124400291Y-137612827D01*
X124400291Y-137612830D01*
X124461114Y-137800020D01*
X124461116Y-137800025D01*
X124470985Y-137819395D01*
X124484500Y-137875688D01*
X124484500Y-138376970D01*
X124495060Y-138461049D01*
X124550136Y-138594015D01*
X124550137Y-138594016D01*
X124602121Y-138660935D01*
X124602127Y-138660941D01*
X124914067Y-138972882D01*
X124914077Y-138972891D01*
X124980982Y-139024863D01*
X124980983Y-139024863D01*
X124980984Y-139024864D01*
X125113950Y-139079940D01*
X125198023Y-139090500D01*
X126302872Y-139090499D01*
X126361711Y-139084174D01*
X126370196Y-139083262D01*
X126370341Y-139084617D01*
X126431885Y-139087910D01*
X126488561Y-139128771D01*
X126501129Y-139148556D01*
X126550476Y-139245405D01*
X126666172Y-139404646D01*
X130316172Y-143054646D01*
X130455354Y-143193828D01*
X130614595Y-143309524D01*
X130697455Y-143351743D01*
X130789970Y-143398882D01*
X130789972Y-143398882D01*
X130789975Y-143398884D01*
X130890317Y-143431487D01*
X130977173Y-143459709D01*
X131171578Y-143490500D01*
X131171583Y-143490500D01*
X147418422Y-143490500D01*
X147612826Y-143459709D01*
X147800026Y-143398884D01*
X147975405Y-143309524D01*
X148134646Y-143193828D01*
X149259230Y-142069244D01*
X172219500Y-142069244D01*
X172219500Y-142410755D01*
X172257734Y-142750092D01*
X172257736Y-142750108D01*
X172333726Y-143083044D01*
X172333730Y-143083056D01*
X172446515Y-143405375D01*
X172446524Y-143405397D01*
X172594686Y-143713059D01*
X172594690Y-143713065D01*
X172776380Y-144002222D01*
X172989303Y-144269219D01*
X173230781Y-144510697D01*
X173497778Y-144723620D01*
X173784481Y-144903768D01*
X173786940Y-144905313D01*
X174094602Y-145053475D01*
X174094611Y-145053478D01*
X174094618Y-145053482D01*
X174136342Y-145068082D01*
X174416943Y-145166269D01*
X174416955Y-145166273D01*
X174749895Y-145242264D01*
X175089245Y-145280499D01*
X175089246Y-145280500D01*
X175089249Y-145280500D01*
X175430754Y-145280500D01*
X175430754Y-145280499D01*
X175770105Y-145242264D01*
X176103045Y-145166273D01*
X176425382Y-145053482D01*
X176733065Y-144905310D01*
X177022222Y-144723620D01*
X177289219Y-144510697D01*
X177530697Y-144269219D01*
X177743620Y-144002222D01*
X177925310Y-143713065D01*
X177987110Y-143584736D01*
X178073475Y-143405397D01*
X178073476Y-143405393D01*
X178073482Y-143405382D01*
X178186273Y-143083045D01*
X178262264Y-142750105D01*
X178300500Y-142410751D01*
X178300500Y-142069249D01*
X178262264Y-141729895D01*
X178186273Y-141396955D01*
X178181140Y-141382287D01*
X178104046Y-141161966D01*
X178073482Y-141074618D01*
X178073478Y-141074611D01*
X178073475Y-141074602D01*
X177925313Y-140766940D01*
X177880579Y-140695746D01*
X177743620Y-140477778D01*
X177530697Y-140210781D01*
X177289219Y-139969303D01*
X177022222Y-139756380D01*
X176848104Y-139646974D01*
X176733059Y-139574686D01*
X176425397Y-139426524D01*
X176425375Y-139426515D01*
X176103056Y-139313730D01*
X176103044Y-139313726D01*
X175770108Y-139237736D01*
X175770092Y-139237734D01*
X175430755Y-139199500D01*
X175430751Y-139199500D01*
X175089249Y-139199500D01*
X175089244Y-139199500D01*
X174749907Y-139237734D01*
X174749891Y-139237736D01*
X174416955Y-139313726D01*
X174416943Y-139313730D01*
X174094624Y-139426515D01*
X174094602Y-139426524D01*
X173786940Y-139574686D01*
X173497779Y-139756379D01*
X173230781Y-139969302D01*
X172989302Y-140210781D01*
X172776379Y-140477779D01*
X172594686Y-140766940D01*
X172446524Y-141074602D01*
X172446515Y-141074624D01*
X172333730Y-141396943D01*
X172333726Y-141396955D01*
X172257736Y-141729891D01*
X172257734Y-141729907D01*
X172219500Y-142069244D01*
X149259230Y-142069244D01*
X153353828Y-137974646D01*
X153469524Y-137815405D01*
X153558884Y-137640026D01*
X153619709Y-137452826D01*
X153625159Y-137418417D01*
X153650500Y-137258421D01*
X153650500Y-132649336D01*
X153670185Y-132582297D01*
X153686819Y-132561655D01*
X157226889Y-129021585D01*
X160973828Y-125274646D01*
X161089524Y-125115405D01*
X161178884Y-124940025D01*
X161239709Y-124752826D01*
X161243828Y-124726821D01*
X161270500Y-124558422D01*
X161270500Y-115431230D01*
X161290185Y-115364191D01*
X161342989Y-115318436D01*
X161412147Y-115308492D01*
X161475703Y-115337517D01*
X161482181Y-115343549D01*
X161581344Y-115442712D01*
X161730666Y-115534814D01*
X161897203Y-115589999D01*
X161999991Y-115600500D01*
X163200008Y-115600499D01*
X163302797Y-115589999D01*
X163469334Y-115534814D01*
X163618656Y-115442712D01*
X163637819Y-115423549D01*
X163699142Y-115390064D01*
X163768834Y-115395048D01*
X163824767Y-115436920D01*
X163849184Y-115502384D01*
X163849500Y-115511230D01*
X163849500Y-128409664D01*
X163829815Y-128476703D01*
X163813181Y-128497345D01*
X154146174Y-138164351D01*
X154146174Y-138164352D01*
X154146172Y-138164354D01*
X154119811Y-138200637D01*
X154030476Y-138323594D01*
X153941117Y-138498969D01*
X153880290Y-138686173D01*
X153849500Y-138880577D01*
X153849500Y-139077422D01*
X153880290Y-139271826D01*
X153941117Y-139459030D01*
X153985985Y-139547086D01*
X153999500Y-139603381D01*
X153999500Y-140406610D01*
X154025964Y-140573703D01*
X154026598Y-140577701D01*
X154080127Y-140742445D01*
X154158768Y-140896788D01*
X154260586Y-141036928D01*
X154383072Y-141159414D01*
X154523212Y-141261232D01*
X154677555Y-141339873D01*
X154842299Y-141393402D01*
X155013389Y-141420500D01*
X155013390Y-141420500D01*
X155186610Y-141420500D01*
X155186611Y-141420500D01*
X155357701Y-141393402D01*
X155522445Y-141339873D01*
X155676788Y-141261232D01*
X155816928Y-141159414D01*
X155939414Y-141036928D01*
X156041232Y-140896788D01*
X156119873Y-140742445D01*
X156151292Y-140645745D01*
X156190728Y-140588072D01*
X156255086Y-140560873D01*
X156323933Y-140572787D01*
X156375409Y-140620031D01*
X156387152Y-140645744D01*
X156394780Y-140669220D01*
X156487715Y-140851613D01*
X156608028Y-141017213D01*
X156752786Y-141161971D01*
X156889410Y-141261232D01*
X156918390Y-141282287D01*
X157027639Y-141337952D01*
X157100776Y-141375218D01*
X157100778Y-141375218D01*
X157100781Y-141375220D01*
X157205137Y-141409127D01*
X157295465Y-141438477D01*
X157396557Y-141454488D01*
X157497648Y-141470500D01*
X157497649Y-141470500D01*
X157702351Y-141470500D01*
X157702352Y-141470500D01*
X157904534Y-141438477D01*
X158099219Y-141375220D01*
X158281610Y-141282287D01*
X158374590Y-141214732D01*
X158447213Y-141161971D01*
X158447215Y-141161968D01*
X158447219Y-141161966D01*
X158591966Y-141017219D01*
X158591968Y-141017215D01*
X158591971Y-141017213D01*
X158644732Y-140944590D01*
X158712287Y-140851610D01*
X158805220Y-140669219D01*
X158868477Y-140474534D01*
X158900500Y-140272352D01*
X158900500Y-139736228D01*
X159249500Y-139736228D01*
X159249500Y-139903771D01*
X159282182Y-140068074D01*
X159282184Y-140068082D01*
X159346295Y-140222860D01*
X159439373Y-140362162D01*
X159557837Y-140480626D01*
X159650494Y-140542537D01*
X159697137Y-140573703D01*
X159697138Y-140573703D01*
X159697139Y-140573704D01*
X159732201Y-140588227D01*
X159851918Y-140637816D01*
X160009793Y-140669219D01*
X160016228Y-140670499D01*
X160016232Y-140670500D01*
X160016233Y-140670500D01*
X160183768Y-140670500D01*
X160183769Y-140670499D01*
X160348082Y-140637816D01*
X160502863Y-140573703D01*
X160642162Y-140480626D01*
X160760626Y-140362162D01*
X160853703Y-140222863D01*
X160917816Y-140068082D01*
X160950500Y-139903767D01*
X160950500Y-139736233D01*
X160917816Y-139571918D01*
X160853703Y-139417137D01*
X160820635Y-139367648D01*
X160760626Y-139277837D01*
X160642162Y-139159373D01*
X160502860Y-139066295D01*
X160348082Y-139002184D01*
X160348074Y-139002182D01*
X160183771Y-138969500D01*
X160183767Y-138969500D01*
X160016233Y-138969500D01*
X160016228Y-138969500D01*
X159851925Y-139002182D01*
X159851917Y-139002184D01*
X159697139Y-139066295D01*
X159557837Y-139159373D01*
X159439373Y-139277837D01*
X159346295Y-139417139D01*
X159282184Y-139571917D01*
X159282182Y-139571925D01*
X159249500Y-139736228D01*
X158900500Y-139736228D01*
X158900500Y-139367648D01*
X158868477Y-139165466D01*
X158866497Y-139159373D01*
X158835985Y-139065465D01*
X158805220Y-138970781D01*
X158805218Y-138970778D01*
X158805218Y-138970776D01*
X158759262Y-138880583D01*
X158712287Y-138788390D01*
X158704556Y-138777749D01*
X158591971Y-138622786D01*
X158447213Y-138478028D01*
X158281613Y-138357715D01*
X158281612Y-138357714D01*
X158281610Y-138357713D01*
X158214648Y-138323594D01*
X158099223Y-138264781D01*
X157901810Y-138200637D01*
X157844135Y-138161199D01*
X157816937Y-138096840D01*
X157828852Y-138027994D01*
X157852445Y-137995028D01*
X163637819Y-132209655D01*
X163699142Y-132176170D01*
X163768834Y-132181154D01*
X163824767Y-132223026D01*
X163849184Y-132288490D01*
X163849500Y-132297336D01*
X163849500Y-138495613D01*
X163829815Y-138562652D01*
X163777011Y-138608407D01*
X163707853Y-138618351D01*
X163644297Y-138589326D01*
X163625182Y-138568498D01*
X163591971Y-138522786D01*
X163447213Y-138378028D01*
X163281613Y-138257715D01*
X163281612Y-138257714D01*
X163281610Y-138257713D01*
X163223770Y-138228242D01*
X163099223Y-138164781D01*
X162904534Y-138101522D01*
X162729995Y-138073878D01*
X162702352Y-138069500D01*
X162497648Y-138069500D01*
X162473329Y-138073351D01*
X162295465Y-138101522D01*
X162100776Y-138164781D01*
X161918386Y-138257715D01*
X161752786Y-138378028D01*
X161608028Y-138522786D01*
X161487715Y-138688386D01*
X161394781Y-138870776D01*
X161331522Y-139065465D01*
X161299500Y-139267648D01*
X161299500Y-140372351D01*
X161331522Y-140574534D01*
X161394781Y-140769223D01*
X161487715Y-140951613D01*
X161608028Y-141117213D01*
X161752786Y-141261971D01*
X161907749Y-141374556D01*
X161918390Y-141382287D01*
X162028669Y-141438477D01*
X162100776Y-141475218D01*
X162100778Y-141475218D01*
X162100781Y-141475220D01*
X162205137Y-141509127D01*
X162295465Y-141538477D01*
X162396557Y-141554488D01*
X162497648Y-141570500D01*
X162497649Y-141570500D01*
X162702351Y-141570500D01*
X162702352Y-141570500D01*
X162904534Y-141538477D01*
X163099219Y-141475220D01*
X163281610Y-141382287D01*
X163374590Y-141314732D01*
X163447213Y-141261971D01*
X163447215Y-141261968D01*
X163447219Y-141261966D01*
X163591966Y-141117219D01*
X163591968Y-141117215D01*
X163591971Y-141117213D01*
X163650300Y-141036928D01*
X163712287Y-140951610D01*
X163805220Y-140769219D01*
X163829092Y-140695745D01*
X163868529Y-140638072D01*
X163932888Y-140610873D01*
X164001734Y-140622787D01*
X164053210Y-140670031D01*
X164064952Y-140695741D01*
X164080127Y-140742445D01*
X164158768Y-140896788D01*
X164260586Y-141036928D01*
X164383072Y-141159414D01*
X164523212Y-141261232D01*
X164677555Y-141339873D01*
X164842299Y-141393402D01*
X165013389Y-141420500D01*
X165013390Y-141420500D01*
X165186610Y-141420500D01*
X165186611Y-141420500D01*
X165357701Y-141393402D01*
X165522445Y-141339873D01*
X165676788Y-141261232D01*
X165816928Y-141159414D01*
X165939414Y-141036928D01*
X166041232Y-140896788D01*
X166119873Y-140742445D01*
X166173402Y-140577701D01*
X166195588Y-140437616D01*
X166207577Y-140400720D01*
X166227224Y-140362162D01*
X166258884Y-140300025D01*
X166319709Y-140112826D01*
X166342441Y-139969302D01*
X166350500Y-139918422D01*
X166350500Y-132649336D01*
X166370185Y-132582297D01*
X166386819Y-132561655D01*
X169514761Y-129433713D01*
X173909500Y-129433713D01*
X173909500Y-129646286D01*
X173940898Y-129844530D01*
X173942754Y-129856243D01*
X173956926Y-129899861D01*
X174008444Y-130058414D01*
X174104951Y-130247820D01*
X174229890Y-130419786D01*
X174380213Y-130570109D01*
X174552179Y-130695048D01*
X174552181Y-130695049D01*
X174552184Y-130695051D01*
X174741588Y-130791557D01*
X174943757Y-130857246D01*
X175153713Y-130890500D01*
X175153714Y-130890500D01*
X175366286Y-130890500D01*
X175366287Y-130890500D01*
X175576243Y-130857246D01*
X175778412Y-130791557D01*
X175967816Y-130695051D01*
X176085535Y-130609524D01*
X176139786Y-130570109D01*
X176139788Y-130570106D01*
X176139792Y-130570104D01*
X176290104Y-130419792D01*
X176290106Y-130419788D01*
X176290109Y-130419786D01*
X176415048Y-130247820D01*
X176415047Y-130247820D01*
X176415051Y-130247816D01*
X176511557Y-130058412D01*
X176577246Y-129856243D01*
X176610500Y-129646287D01*
X176610500Y-129433713D01*
X176577246Y-129223757D01*
X176511557Y-129021588D01*
X176415051Y-128832184D01*
X176415049Y-128832181D01*
X176415048Y-128832179D01*
X176290109Y-128660213D01*
X176139786Y-128509890D01*
X175967820Y-128384951D01*
X175778414Y-128288444D01*
X175778413Y-128288443D01*
X175778412Y-128288443D01*
X175576243Y-128222754D01*
X175576241Y-128222753D01*
X175576240Y-128222753D01*
X175414957Y-128197208D01*
X175366287Y-128189500D01*
X175153713Y-128189500D01*
X175105042Y-128197208D01*
X174943760Y-128222753D01*
X174741585Y-128288444D01*
X174552179Y-128384951D01*
X174380213Y-128509890D01*
X174229890Y-128660213D01*
X174104951Y-128832179D01*
X174008444Y-129021585D01*
X173942753Y-129223760D01*
X173909500Y-129433713D01*
X169514761Y-129433713D01*
X169607314Y-129341160D01*
X170288266Y-128660208D01*
X171133828Y-127814646D01*
X171249524Y-127655405D01*
X171338884Y-127480026D01*
X171399709Y-127292826D01*
X171430500Y-127098421D01*
X171430500Y-116669244D01*
X172219500Y-116669244D01*
X172219500Y-117010755D01*
X172257734Y-117350092D01*
X172257736Y-117350108D01*
X172333726Y-117683044D01*
X172333730Y-117683056D01*
X172446515Y-118005375D01*
X172446524Y-118005397D01*
X172594686Y-118313059D01*
X172641796Y-118388034D01*
X172776380Y-118602222D01*
X172989303Y-118869219D01*
X173230781Y-119110697D01*
X173497778Y-119323620D01*
X173744142Y-119478421D01*
X173786940Y-119505313D01*
X174094602Y-119653475D01*
X174094611Y-119653478D01*
X174094618Y-119653482D01*
X174094624Y-119653484D01*
X174416943Y-119766269D01*
X174416955Y-119766273D01*
X174749895Y-119842264D01*
X175089245Y-119880499D01*
X175089246Y-119880500D01*
X175089249Y-119880500D01*
X175430754Y-119880500D01*
X175430754Y-119880499D01*
X175770105Y-119842264D01*
X176103045Y-119766273D01*
X176425382Y-119653482D01*
X176733065Y-119505310D01*
X177022222Y-119323620D01*
X177289219Y-119110697D01*
X177530697Y-118869219D01*
X177743620Y-118602222D01*
X177925310Y-118313065D01*
X177991904Y-118174781D01*
X178073475Y-118005397D01*
X178073476Y-118005393D01*
X178073482Y-118005382D01*
X178186273Y-117683045D01*
X178262264Y-117350105D01*
X178300500Y-117010751D01*
X178300500Y-116669249D01*
X178262264Y-116329895D01*
X178186273Y-115996955D01*
X178184812Y-115992781D01*
X178097530Y-115743342D01*
X178073482Y-115674618D01*
X178073478Y-115674611D01*
X178073475Y-115674602D01*
X177925313Y-115366940D01*
X177923586Y-115364191D01*
X177743620Y-115077778D01*
X177530697Y-114810781D01*
X177289219Y-114569303D01*
X177022222Y-114356380D01*
X176839524Y-114241583D01*
X176733059Y-114174686D01*
X176425397Y-114026524D01*
X176425375Y-114026515D01*
X176103056Y-113913730D01*
X176103044Y-113913726D01*
X175770108Y-113837736D01*
X175770092Y-113837734D01*
X175430755Y-113799500D01*
X175430751Y-113799500D01*
X175089249Y-113799500D01*
X175089244Y-113799500D01*
X174749907Y-113837734D01*
X174749891Y-113837736D01*
X174416955Y-113913726D01*
X174416943Y-113913730D01*
X174094624Y-114026515D01*
X174094602Y-114026524D01*
X173786940Y-114174686D01*
X173497779Y-114356379D01*
X173230781Y-114569302D01*
X172989302Y-114810781D01*
X172776379Y-115077779D01*
X172594686Y-115366940D01*
X172446524Y-115674602D01*
X172446515Y-115674624D01*
X172333730Y-115996943D01*
X172333726Y-115996955D01*
X172257736Y-116329891D01*
X172257734Y-116329907D01*
X172219500Y-116669244D01*
X171430500Y-116669244D01*
X171430500Y-106581577D01*
X171412586Y-106468483D01*
X171399709Y-106387174D01*
X171399708Y-106387170D01*
X171399708Y-106387169D01*
X171340391Y-106204612D01*
X171339329Y-106200847D01*
X171249523Y-106024594D01*
X171230487Y-105998393D01*
X171133828Y-105865354D01*
X166252584Y-100984110D01*
X166229780Y-100952723D01*
X166225639Y-100944595D01*
X166212287Y-100918390D01*
X166091966Y-100752781D01*
X165947219Y-100608034D01*
X165947213Y-100608028D01*
X165781613Y-100487715D01*
X165781612Y-100487714D01*
X165781610Y-100487713D01*
X165721898Y-100457288D01*
X165599223Y-100394781D01*
X165404534Y-100331522D01*
X165229995Y-100303878D01*
X165202352Y-100299500D01*
X164997648Y-100299500D01*
X164973329Y-100303351D01*
X164795465Y-100331522D01*
X164600776Y-100394781D01*
X164418386Y-100487715D01*
X164252786Y-100608028D01*
X164108032Y-100752782D01*
X164108031Y-100752784D01*
X164067447Y-100808642D01*
X164012117Y-100851307D01*
X163942503Y-100857285D01*
X163880709Y-100824678D01*
X163849425Y-100774760D01*
X163834814Y-100730666D01*
X163742712Y-100581344D01*
X163618656Y-100457288D01*
X163469334Y-100365186D01*
X163302797Y-100310001D01*
X163302795Y-100310000D01*
X163200010Y-100299500D01*
X161999998Y-100299500D01*
X161999981Y-100299501D01*
X161897203Y-100310000D01*
X161897200Y-100310001D01*
X161730668Y-100365185D01*
X161730663Y-100365187D01*
X161581342Y-100457289D01*
X161482181Y-100556451D01*
X161420858Y-100589936D01*
X161351166Y-100584952D01*
X161295233Y-100543080D01*
X161270816Y-100477616D01*
X161270500Y-100468770D01*
X161270500Y-88729244D01*
X172219500Y-88729244D01*
X172219500Y-89070755D01*
X172257734Y-89410092D01*
X172257736Y-89410108D01*
X172333726Y-89743044D01*
X172333730Y-89743056D01*
X172446515Y-90065375D01*
X172446524Y-90065397D01*
X172594686Y-90373059D01*
X172594690Y-90373065D01*
X172776380Y-90662222D01*
X172989303Y-90929219D01*
X173230781Y-91170697D01*
X173497778Y-91383620D01*
X173786935Y-91565310D01*
X173786940Y-91565313D01*
X174094602Y-91713475D01*
X174094611Y-91713478D01*
X174094618Y-91713482D01*
X174094624Y-91713484D01*
X174416943Y-91826269D01*
X174416955Y-91826273D01*
X174749895Y-91902264D01*
X175089245Y-91940499D01*
X175089246Y-91940500D01*
X175089249Y-91940500D01*
X175430754Y-91940500D01*
X175430754Y-91940499D01*
X175770105Y-91902264D01*
X176103045Y-91826273D01*
X176425382Y-91713482D01*
X176733065Y-91565310D01*
X177022222Y-91383620D01*
X177289219Y-91170697D01*
X177530697Y-90929219D01*
X177743620Y-90662222D01*
X177925310Y-90373065D01*
X177990923Y-90236818D01*
X178073475Y-90065397D01*
X178073476Y-90065393D01*
X178073482Y-90065382D01*
X178186273Y-89743045D01*
X178262264Y-89410105D01*
X178300500Y-89070751D01*
X178300500Y-88729249D01*
X178262264Y-88389895D01*
X178186273Y-88056955D01*
X178184813Y-88052784D01*
X178107056Y-87830566D01*
X178073482Y-87734618D01*
X178073478Y-87734611D01*
X178073475Y-87734602D01*
X177925313Y-87426940D01*
X177887413Y-87366623D01*
X177743620Y-87137778D01*
X177530697Y-86870781D01*
X177289219Y-86629303D01*
X177022222Y-86416380D01*
X176733065Y-86234690D01*
X176733066Y-86234690D01*
X176733059Y-86234686D01*
X176425397Y-86086524D01*
X176425375Y-86086515D01*
X176103056Y-85973730D01*
X176103044Y-85973726D01*
X175770108Y-85897736D01*
X175770092Y-85897734D01*
X175430755Y-85859500D01*
X175430751Y-85859500D01*
X175089249Y-85859500D01*
X175089244Y-85859500D01*
X174749907Y-85897734D01*
X174749891Y-85897736D01*
X174416955Y-85973726D01*
X174416943Y-85973730D01*
X174094624Y-86086515D01*
X174094602Y-86086524D01*
X173786940Y-86234686D01*
X173497779Y-86416379D01*
X173230781Y-86629302D01*
X172989302Y-86870781D01*
X172776379Y-87137779D01*
X172594686Y-87426940D01*
X172446524Y-87734602D01*
X172446515Y-87734624D01*
X172333730Y-88056943D01*
X172333726Y-88056955D01*
X172257736Y-88389891D01*
X172257734Y-88389907D01*
X172219500Y-88729244D01*
X161270500Y-88729244D01*
X161270500Y-64029335D01*
X161290185Y-63962296D01*
X161306814Y-63941659D01*
X162692425Y-62556047D01*
X162753746Y-62522564D01*
X162760694Y-62521259D01*
X162904534Y-62498477D01*
X163099219Y-62435220D01*
X163281610Y-62342287D01*
X163374590Y-62274732D01*
X163447213Y-62221971D01*
X163447215Y-62221968D01*
X163447219Y-62221966D01*
X163591966Y-62077219D01*
X163591968Y-62077215D01*
X163591971Y-62077213D01*
X163644732Y-62004590D01*
X163712287Y-61911610D01*
X163805220Y-61729219D01*
X163812846Y-61705747D01*
X163852283Y-61648072D01*
X163916641Y-61620873D01*
X163985488Y-61632787D01*
X164036964Y-61680031D01*
X164048706Y-61705744D01*
X164080127Y-61802445D01*
X164158768Y-61956788D01*
X164260586Y-62096928D01*
X164383072Y-62219414D01*
X164523212Y-62321232D01*
X164677555Y-62399873D01*
X164842299Y-62453402D01*
X165013389Y-62480500D01*
X165013390Y-62480500D01*
X165186610Y-62480500D01*
X165186611Y-62480500D01*
X165357701Y-62453402D01*
X165522445Y-62399873D01*
X165676788Y-62321232D01*
X165816928Y-62219414D01*
X165939414Y-62096928D01*
X166041232Y-61956788D01*
X166119873Y-61802445D01*
X166173402Y-61637701D01*
X166200500Y-61466611D01*
X166200500Y-60293389D01*
X166173402Y-60122299D01*
X166119873Y-59957555D01*
X166041232Y-59803212D01*
X165939414Y-59663072D01*
X165816928Y-59540586D01*
X165676788Y-59438768D01*
X165522445Y-59360127D01*
X165357701Y-59306598D01*
X165357699Y-59306597D01*
X165357698Y-59306597D01*
X165226271Y-59285781D01*
X165186611Y-59279500D01*
X165013389Y-59279500D01*
X164973728Y-59285781D01*
X164842302Y-59306597D01*
X164677552Y-59360128D01*
X164523211Y-59438768D01*
X164443256Y-59496859D01*
X164383072Y-59540586D01*
X164383070Y-59540588D01*
X164383069Y-59540588D01*
X164260588Y-59663069D01*
X164260588Y-59663070D01*
X164260586Y-59663072D01*
X164246267Y-59682781D01*
X164158768Y-59803211D01*
X164080128Y-59957550D01*
X164064954Y-60004251D01*
X164056751Y-60029500D01*
X164048708Y-60054253D01*
X164009270Y-60111928D01*
X163944911Y-60139126D01*
X163876065Y-60127211D01*
X163824589Y-60079967D01*
X163812847Y-60054256D01*
X163805220Y-60030781D01*
X163805218Y-60030778D01*
X163805218Y-60030776D01*
X163754265Y-59930776D01*
X163712287Y-59848390D01*
X163679463Y-59803211D01*
X163591971Y-59682786D01*
X163447213Y-59538028D01*
X163281613Y-59417715D01*
X163281612Y-59417714D01*
X163281610Y-59417713D01*
X163224653Y-59388691D01*
X163099223Y-59324781D01*
X162904534Y-59261522D01*
X162729995Y-59233878D01*
X162702352Y-59229500D01*
X162497648Y-59229500D01*
X162473329Y-59233351D01*
X162295465Y-59261522D01*
X162100776Y-59324781D01*
X161918386Y-59417715D01*
X161752786Y-59538028D01*
X161608028Y-59682786D01*
X161487715Y-59848386D01*
X161394781Y-60030778D01*
X161394780Y-60030780D01*
X161394780Y-60030781D01*
X161365044Y-60122299D01*
X161331522Y-60225469D01*
X161308741Y-60369293D01*
X161278811Y-60432428D01*
X161273949Y-60437575D01*
X161096427Y-60615097D01*
X161035104Y-60648582D01*
X160965412Y-60643598D01*
X160909479Y-60601726D01*
X160894185Y-60574869D01*
X160853704Y-60477138D01*
X160760626Y-60337837D01*
X160642162Y-60219373D01*
X160502860Y-60126295D01*
X160348082Y-60062184D01*
X160348074Y-60062182D01*
X160183771Y-60029500D01*
X160183767Y-60029500D01*
X160016233Y-60029500D01*
X160016228Y-60029500D01*
X159851925Y-60062182D01*
X159851917Y-60062184D01*
X159697139Y-60126295D01*
X159557837Y-60219373D01*
X159439373Y-60337837D01*
X159346295Y-60477139D01*
X159282184Y-60631917D01*
X159282182Y-60631925D01*
X159249500Y-60796228D01*
X159249500Y-60963771D01*
X159282182Y-61128074D01*
X159282184Y-61128082D01*
X159346295Y-61282860D01*
X159439373Y-61422162D01*
X159557837Y-61540626D01*
X159697138Y-61633704D01*
X159761375Y-61660311D01*
X159794869Y-61674185D01*
X159849272Y-61718026D01*
X159871337Y-61784320D01*
X159854058Y-61852019D01*
X159835097Y-61876427D01*
X159066174Y-62645351D01*
X159066172Y-62645354D01*
X159016485Y-62713741D01*
X158950476Y-62804594D01*
X158860669Y-62980851D01*
X158859608Y-62984612D01*
X158800291Y-63167169D01*
X158800291Y-63167172D01*
X158769500Y-63361577D01*
X158769500Y-123890664D01*
X158749815Y-123957703D01*
X158733181Y-123978345D01*
X151446174Y-131265351D01*
X151446174Y-131265352D01*
X151446172Y-131265354D01*
X151396485Y-131333741D01*
X151330476Y-131424594D01*
X151240669Y-131600851D01*
X151239608Y-131604612D01*
X151180291Y-131787169D01*
X151180291Y-131787172D01*
X151149500Y-131981577D01*
X151149500Y-136590664D01*
X151129815Y-136657703D01*
X151113181Y-136678345D01*
X146838345Y-140953181D01*
X146777022Y-140986666D01*
X146750664Y-140989500D01*
X131839336Y-140989500D01*
X131772297Y-140969815D01*
X131751655Y-140953181D01*
X130095459Y-139296985D01*
X130061974Y-139235662D01*
X130066958Y-139165970D01*
X130108830Y-139110037D01*
X130171921Y-139085812D01*
X130189971Y-139084173D01*
X130350178Y-139034251D01*
X130457290Y-138969500D01*
X130493777Y-138947443D01*
X130493778Y-138947441D01*
X130493783Y-138947439D01*
X130532319Y-138908903D01*
X130593642Y-138875418D01*
X130663334Y-138880402D01*
X130707681Y-138908903D01*
X130746217Y-138947439D01*
X130746222Y-138947443D01*
X130844842Y-139007060D01*
X130889822Y-139034251D01*
X131050029Y-139084173D01*
X131119653Y-139090500D01*
X132120346Y-139090499D01*
X132120353Y-139090499D01*
X132189966Y-139084174D01*
X132189969Y-139084173D01*
X132189971Y-139084173D01*
X132350178Y-139034251D01*
X132457290Y-138969500D01*
X132493777Y-138947443D01*
X132493778Y-138947441D01*
X132493783Y-138947439D01*
X132612439Y-138828783D01*
X132620001Y-138816275D01*
X132697309Y-138688390D01*
X132699251Y-138685178D01*
X132749173Y-138524971D01*
X132755500Y-138455347D01*
X132755499Y-137049778D01*
X143379500Y-137049778D01*
X143379500Y-137270221D01*
X143413985Y-137487952D01*
X143482103Y-137697603D01*
X143482104Y-137697606D01*
X143542127Y-137815405D01*
X143572843Y-137875688D01*
X143582187Y-137894025D01*
X143711752Y-138072358D01*
X143711756Y-138072363D01*
X143867636Y-138228243D01*
X143867641Y-138228247D01*
X143998878Y-138323595D01*
X144045978Y-138357815D01*
X144174375Y-138423237D01*
X144242393Y-138457895D01*
X144242396Y-138457896D01*
X144304358Y-138478028D01*
X144452049Y-138526015D01*
X144669778Y-138560500D01*
X144669779Y-138560500D01*
X144890221Y-138560500D01*
X144890222Y-138560500D01*
X145107951Y-138526015D01*
X145317606Y-138457895D01*
X145514022Y-138357815D01*
X145692365Y-138228242D01*
X145848242Y-138072365D01*
X145977815Y-137894022D01*
X146077895Y-137697606D01*
X146100955Y-137626630D01*
X146131203Y-137577269D01*
X149543829Y-134164645D01*
X149659524Y-134005405D01*
X149748884Y-133830026D01*
X149809709Y-133642826D01*
X149840500Y-133448421D01*
X149840500Y-129919500D01*
X149846569Y-129881182D01*
X149854672Y-129856243D01*
X149858477Y-129844534D01*
X149890500Y-129642352D01*
X149890500Y-129437648D01*
X149875218Y-129341160D01*
X149858477Y-129235465D01*
X149801456Y-129059974D01*
X149795220Y-129040781D01*
X149795218Y-129040778D01*
X149795218Y-129040776D01*
X149761503Y-128974607D01*
X149702287Y-128858390D01*
X149686001Y-128835974D01*
X149581971Y-128692786D01*
X149437213Y-128548028D01*
X149271613Y-128427715D01*
X149271612Y-128427714D01*
X149271610Y-128427713D01*
X149187681Y-128384949D01*
X149089223Y-128334781D01*
X148894534Y-128271522D01*
X148719995Y-128243878D01*
X148692352Y-128239500D01*
X148487648Y-128239500D01*
X148463329Y-128243351D01*
X148285465Y-128271522D01*
X148090776Y-128334781D01*
X147908386Y-128427715D01*
X147742786Y-128548028D01*
X147598028Y-128692786D01*
X147477715Y-128858386D01*
X147384781Y-129040776D01*
X147321522Y-129235465D01*
X147289500Y-129437648D01*
X147289500Y-129642351D01*
X147321522Y-129844530D01*
X147321522Y-129844531D01*
X147333431Y-129881182D01*
X147339500Y-129919500D01*
X147339500Y-132780663D01*
X147319815Y-132847702D01*
X147303181Y-132868344D01*
X144362730Y-135808794D01*
X144313367Y-135839044D01*
X144242394Y-135862105D01*
X144060432Y-135954820D01*
X144045974Y-135962187D01*
X143867641Y-136091752D01*
X143867636Y-136091756D01*
X143711756Y-136247636D01*
X143711752Y-136247641D01*
X143582187Y-136425974D01*
X143482104Y-136622393D01*
X143482103Y-136622396D01*
X143413985Y-136832047D01*
X143379500Y-137049778D01*
X132755499Y-137049778D01*
X132755499Y-136184654D01*
X132755499Y-136184645D01*
X132749174Y-136115033D01*
X132749171Y-136115022D01*
X132699252Y-135954824D01*
X132699250Y-135954820D01*
X132612443Y-135811222D01*
X132612439Y-135811217D01*
X132493782Y-135692560D01*
X132493777Y-135692556D01*
X132350180Y-135605750D01*
X132350179Y-135605749D01*
X132350178Y-135605749D01*
X132189971Y-135555827D01*
X132189969Y-135555826D01*
X132189967Y-135555826D01*
X132141221Y-135551396D01*
X132120347Y-135549500D01*
X132120344Y-135549500D01*
X131119645Y-135549500D01*
X131050033Y-135555825D01*
X131050022Y-135555828D01*
X130889824Y-135605747D01*
X130889820Y-135605749D01*
X130746222Y-135692556D01*
X130746216Y-135692561D01*
X130707680Y-135731097D01*
X130646357Y-135764582D01*
X130576665Y-135759596D01*
X130532320Y-135731097D01*
X130493783Y-135692561D01*
X130493777Y-135692556D01*
X130350180Y-135605750D01*
X130350179Y-135605749D01*
X130350178Y-135605749D01*
X130189971Y-135555827D01*
X130189969Y-135555826D01*
X130189967Y-135555826D01*
X130141221Y-135551396D01*
X130120347Y-135549500D01*
X130120344Y-135549500D01*
X129119645Y-135549500D01*
X129050033Y-135555825D01*
X129050022Y-135555828D01*
X128889824Y-135605747D01*
X128889820Y-135605749D01*
X128746222Y-135692556D01*
X128746216Y-135692561D01*
X128707680Y-135731097D01*
X128646357Y-135764582D01*
X128576665Y-135759596D01*
X128532320Y-135731097D01*
X128493783Y-135692561D01*
X128493777Y-135692556D01*
X128350179Y-135605749D01*
X128350175Y-135605747D01*
X128247558Y-135573771D01*
X128189410Y-135535034D01*
X128161436Y-135471009D01*
X128172518Y-135402023D01*
X128196764Y-135367708D01*
X135425655Y-128138819D01*
X135486978Y-128105334D01*
X135513336Y-128102500D01*
X137870158Y-128102500D01*
X137937197Y-128122185D01*
X137982952Y-128174989D01*
X137992896Y-128244147D01*
X137963871Y-128307703D01*
X137926453Y-128336985D01*
X137748386Y-128427715D01*
X137582786Y-128548028D01*
X137438028Y-128692786D01*
X137317715Y-128858386D01*
X137224781Y-129040776D01*
X137161522Y-129235465D01*
X137129500Y-129437648D01*
X137129500Y-129642351D01*
X137161522Y-129844534D01*
X137224781Y-130039223D01*
X137288691Y-130164653D01*
X137304362Y-130195408D01*
X137317715Y-130221613D01*
X137438028Y-130387213D01*
X137582786Y-130531971D01*
X137689531Y-130609524D01*
X137748390Y-130652287D01*
X137832319Y-130695051D01*
X137930776Y-130745218D01*
X137930778Y-130745218D01*
X137930781Y-130745220D01*
X137975374Y-130759709D01*
X138125465Y-130808477D01*
X138226557Y-130824488D01*
X138327648Y-130840500D01*
X138327649Y-130840500D01*
X138532351Y-130840500D01*
X138532352Y-130840500D01*
X138734534Y-130808477D01*
X138762714Y-130799320D01*
X138771184Y-130796569D01*
X138809502Y-130790500D01*
X139798422Y-130790500D01*
X139992826Y-130759709D01*
X140180026Y-130698884D01*
X140355405Y-130609524D01*
X140514646Y-130493828D01*
X150813829Y-120194646D01*
X150929524Y-120035405D01*
X151018884Y-119860026D01*
X151079709Y-119672826D01*
X151089656Y-119610025D01*
X151110500Y-119478421D01*
X151110500Y-114341902D01*
X153439500Y-114341902D01*
X153439500Y-114578097D01*
X153476446Y-114811368D01*
X153549433Y-115035996D01*
X153617373Y-115169334D01*
X153656657Y-115246433D01*
X153795483Y-115437510D01*
X153962490Y-115604517D01*
X154153567Y-115743343D01*
X154252991Y-115794002D01*
X154364003Y-115850566D01*
X154364005Y-115850566D01*
X154364008Y-115850568D01*
X154484412Y-115889689D01*
X154588631Y-115923553D01*
X154821903Y-115960500D01*
X154821908Y-115960500D01*
X155058097Y-115960500D01*
X155291368Y-115923553D01*
X155515992Y-115850568D01*
X155726433Y-115743343D01*
X155917510Y-115604517D01*
X156084517Y-115437510D01*
X156223343Y-115246433D01*
X156330568Y-115035992D01*
X156403553Y-114811368D01*
X156408842Y-114777974D01*
X156440500Y-114578097D01*
X156440500Y-114341902D01*
X156403553Y-114108631D01*
X156330566Y-113884003D01*
X156236807Y-113699992D01*
X156223343Y-113673567D01*
X156084517Y-113482490D01*
X155917510Y-113315483D01*
X155726433Y-113176657D01*
X155696297Y-113161302D01*
X155515996Y-113069433D01*
X155291368Y-112996446D01*
X155058097Y-112959500D01*
X155058092Y-112959500D01*
X154821908Y-112959500D01*
X154821903Y-112959500D01*
X154588631Y-112996446D01*
X154364003Y-113069433D01*
X154153566Y-113176657D01*
X154062144Y-113243080D01*
X153962490Y-113315483D01*
X153962488Y-113315485D01*
X153962487Y-113315485D01*
X153795485Y-113482487D01*
X153795485Y-113482488D01*
X153795483Y-113482490D01*
X153764832Y-113524678D01*
X153656657Y-113673566D01*
X153549433Y-113884003D01*
X153476446Y-114108631D01*
X153439500Y-114341902D01*
X151110500Y-114341902D01*
X151110500Y-109121577D01*
X151079709Y-108927173D01*
X151018882Y-108739970D01*
X150929523Y-108564594D01*
X150813828Y-108405354D01*
X150674646Y-108266172D01*
X148472584Y-106064110D01*
X148449780Y-106032723D01*
X148445638Y-106024594D01*
X148432287Y-105998390D01*
X148311966Y-105832781D01*
X148167219Y-105688034D01*
X148167213Y-105688028D01*
X148001614Y-105567715D01*
X147853853Y-105492427D01*
X147803057Y-105444452D01*
X147786262Y-105376631D01*
X147808799Y-105310496D01*
X147853853Y-105271457D01*
X147975405Y-105209524D01*
X148134646Y-105093828D01*
X149210826Y-104017648D01*
X151368000Y-104017648D01*
X151368000Y-104222352D01*
X151370545Y-104238422D01*
X151400022Y-104424534D01*
X151463281Y-104619223D01*
X151556215Y-104801613D01*
X151676528Y-104967213D01*
X151821286Y-105111971D01*
X151976249Y-105224556D01*
X151986890Y-105232287D01*
X152103107Y-105291503D01*
X152169276Y-105325218D01*
X152169278Y-105325218D01*
X152169281Y-105325220D01*
X152230829Y-105345218D01*
X152363965Y-105388477D01*
X152465057Y-105404488D01*
X152566148Y-105420500D01*
X152566149Y-105420500D01*
X152770851Y-105420500D01*
X152770852Y-105420500D01*
X152973034Y-105388477D01*
X153167719Y-105325220D01*
X153350110Y-105232287D01*
X153443090Y-105164732D01*
X153515713Y-105111971D01*
X153515715Y-105111968D01*
X153515719Y-105111966D01*
X153660466Y-104967219D01*
X153660468Y-104967215D01*
X153660471Y-104967213D01*
X153714903Y-104892292D01*
X153780787Y-104801610D01*
X153873720Y-104619219D01*
X153936977Y-104424534D01*
X153969000Y-104222352D01*
X153969000Y-104017648D01*
X153936977Y-103815466D01*
X153873720Y-103620781D01*
X153873718Y-103620778D01*
X153873718Y-103620776D01*
X153840003Y-103554607D01*
X153780787Y-103438390D01*
X153768459Y-103421422D01*
X153660471Y-103272786D01*
X153515713Y-103128028D01*
X153350113Y-103007715D01*
X153350112Y-103007714D01*
X153350110Y-103007713D01*
X153293153Y-102978691D01*
X153167723Y-102914781D01*
X152973034Y-102851522D01*
X152798495Y-102823878D01*
X152770852Y-102819500D01*
X152566148Y-102819500D01*
X152541829Y-102823351D01*
X152363965Y-102851522D01*
X152169276Y-102914781D01*
X151986886Y-103007715D01*
X151821286Y-103128028D01*
X151676528Y-103272786D01*
X151556215Y-103438386D01*
X151463281Y-103620776D01*
X151400022Y-103815465D01*
X151368000Y-104017648D01*
X149210826Y-104017648D01*
X150762829Y-102465645D01*
X150878524Y-102306405D01*
X150967884Y-102131025D01*
X151028709Y-101943826D01*
X151034932Y-101904534D01*
X151059500Y-101749422D01*
X151059500Y-86321902D01*
X153439500Y-86321902D01*
X153439500Y-86558097D01*
X153476446Y-86791368D01*
X153549433Y-87015996D01*
X153645338Y-87204218D01*
X153656657Y-87226433D01*
X153795483Y-87417510D01*
X153962490Y-87584517D01*
X154153567Y-87723343D01*
X154220188Y-87757288D01*
X154364003Y-87830566D01*
X154364005Y-87830566D01*
X154364008Y-87830568D01*
X154484412Y-87869689D01*
X154588631Y-87903553D01*
X154821903Y-87940500D01*
X154821908Y-87940500D01*
X155058097Y-87940500D01*
X155291368Y-87903553D01*
X155515992Y-87830568D01*
X155726433Y-87723343D01*
X155917510Y-87584517D01*
X156084517Y-87417510D01*
X156223343Y-87226433D01*
X156330568Y-87015992D01*
X156403553Y-86791368D01*
X156410696Y-86746269D01*
X156440500Y-86558097D01*
X156440500Y-86321902D01*
X156403553Y-86088631D01*
X156330566Y-85864003D01*
X156223342Y-85653566D01*
X156220150Y-85649172D01*
X156084517Y-85462490D01*
X155917510Y-85295483D01*
X155726433Y-85156657D01*
X155515996Y-85049433D01*
X155291368Y-84976446D01*
X155058097Y-84939500D01*
X155058092Y-84939500D01*
X154821908Y-84939500D01*
X154821903Y-84939500D01*
X154588631Y-84976446D01*
X154364003Y-85049433D01*
X154153566Y-85156657D01*
X154044550Y-85235862D01*
X153962490Y-85295483D01*
X153962488Y-85295485D01*
X153962487Y-85295485D01*
X153795485Y-85462487D01*
X153795485Y-85462488D01*
X153795483Y-85462490D01*
X153756764Y-85515782D01*
X153656657Y-85653566D01*
X153549433Y-85864003D01*
X153476446Y-86088631D01*
X153439500Y-86321902D01*
X151059500Y-86321902D01*
X151059500Y-81900336D01*
X151079185Y-81833297D01*
X151095819Y-81812655D01*
X152392123Y-80516351D01*
X156053828Y-76854646D01*
X156169524Y-76695405D01*
X156258884Y-76520026D01*
X156319709Y-76332826D01*
X156350500Y-76138422D01*
X156350500Y-62204386D01*
X156370185Y-62137347D01*
X156422989Y-62091592D01*
X156492147Y-62081648D01*
X156555703Y-62110673D01*
X156574819Y-62131502D01*
X156608030Y-62177215D01*
X156752786Y-62321971D01*
X156907749Y-62434556D01*
X156918390Y-62442287D01*
X157028667Y-62498476D01*
X157100776Y-62535218D01*
X157100778Y-62535218D01*
X157100781Y-62535220D01*
X157205137Y-62569127D01*
X157295465Y-62598477D01*
X157396557Y-62614488D01*
X157497648Y-62630500D01*
X157497649Y-62630500D01*
X157702351Y-62630500D01*
X157702352Y-62630500D01*
X157904534Y-62598477D01*
X158099219Y-62535220D01*
X158281610Y-62442287D01*
X158374590Y-62374732D01*
X158447213Y-62321971D01*
X158447215Y-62321968D01*
X158447219Y-62321966D01*
X158591966Y-62177219D01*
X158591968Y-62177215D01*
X158591971Y-62177213D01*
X158661402Y-62081648D01*
X158712287Y-62011610D01*
X158805220Y-61829219D01*
X158868477Y-61634534D01*
X158900500Y-61432352D01*
X158900500Y-60327648D01*
X158883351Y-60219373D01*
X158868477Y-60125465D01*
X158813919Y-59957555D01*
X158805220Y-59930781D01*
X158805218Y-59930778D01*
X158805218Y-59930776D01*
X158771503Y-59864607D01*
X158712287Y-59748390D01*
X158704556Y-59737749D01*
X158591971Y-59582786D01*
X158447213Y-59438028D01*
X158281613Y-59317715D01*
X158281612Y-59317714D01*
X158281610Y-59317713D01*
X158206613Y-59279500D01*
X158099223Y-59224781D01*
X157904534Y-59161522D01*
X157729995Y-59133878D01*
X157702352Y-59129500D01*
X157497648Y-59129500D01*
X157473329Y-59133351D01*
X157295465Y-59161522D01*
X157100776Y-59224781D01*
X156918386Y-59317715D01*
X156752786Y-59438028D01*
X156608028Y-59582786D01*
X156487715Y-59748386D01*
X156394779Y-59930780D01*
X156370906Y-60004254D01*
X156331468Y-60061929D01*
X156267109Y-60089126D01*
X156198263Y-60077211D01*
X156146788Y-60029966D01*
X156135046Y-60004255D01*
X156119873Y-59957555D01*
X156041232Y-59803212D01*
X155939414Y-59663072D01*
X155816928Y-59540586D01*
X155676788Y-59438768D01*
X155522445Y-59360127D01*
X155357701Y-59306598D01*
X155357699Y-59306597D01*
X155357698Y-59306597D01*
X155226271Y-59285781D01*
X155186611Y-59279500D01*
X155013389Y-59279500D01*
X154973728Y-59285781D01*
X154842302Y-59306597D01*
X154677552Y-59360128D01*
X154523211Y-59438768D01*
X154443256Y-59496859D01*
X154383072Y-59540586D01*
X154383070Y-59540588D01*
X154383069Y-59540588D01*
X154260588Y-59663069D01*
X154260588Y-59663070D01*
X154260586Y-59663072D01*
X154246267Y-59682781D01*
X154158768Y-59803211D01*
X154080128Y-59957552D01*
X154026597Y-60122301D01*
X154004410Y-60262383D01*
X153992422Y-60299278D01*
X153941114Y-60399976D01*
X153941114Y-60399978D01*
X153880291Y-60587169D01*
X153880291Y-60587172D01*
X153849500Y-60781577D01*
X153849500Y-75470664D01*
X153829815Y-75537703D01*
X153813181Y-75558345D01*
X148855174Y-80516351D01*
X148855174Y-80516352D01*
X148855172Y-80516354D01*
X148805485Y-80584741D01*
X148739476Y-80675594D01*
X148649669Y-80851851D01*
X148648608Y-80855612D01*
X148589291Y-81038169D01*
X148589291Y-81038172D01*
X148558500Y-81232577D01*
X148558500Y-88010472D01*
X148538815Y-88077511D01*
X148486011Y-88123266D01*
X148416853Y-88133210D01*
X148353297Y-88104185D01*
X148334182Y-88083358D01*
X148311967Y-88052782D01*
X148167213Y-87908028D01*
X148001613Y-87787715D01*
X148001612Y-87787714D01*
X148001610Y-87787713D01*
X147941898Y-87757288D01*
X147819223Y-87694781D01*
X147624534Y-87631522D01*
X147449995Y-87603878D01*
X147422352Y-87599500D01*
X147217648Y-87599500D01*
X147193329Y-87603351D01*
X147015465Y-87631522D01*
X146820776Y-87694781D01*
X146638386Y-87787715D01*
X146472786Y-87908028D01*
X146328032Y-88052782D01*
X146328031Y-88052784D01*
X146287447Y-88108642D01*
X146232117Y-88151307D01*
X146162503Y-88157285D01*
X146100709Y-88124678D01*
X146069425Y-88074760D01*
X146054814Y-88030666D01*
X145962712Y-87881344D01*
X145838656Y-87757288D01*
X145689334Y-87665186D01*
X145522797Y-87610001D01*
X145522795Y-87610000D01*
X145420010Y-87599500D01*
X144219998Y-87599500D01*
X144219981Y-87599501D01*
X144117203Y-87610000D01*
X144117200Y-87610001D01*
X143950668Y-87665185D01*
X143950663Y-87665187D01*
X143801342Y-87757289D01*
X143677289Y-87881342D01*
X143585187Y-88030663D01*
X143585185Y-88030668D01*
X143560824Y-88104185D01*
X143530001Y-88197203D01*
X143530001Y-88197204D01*
X143530000Y-88197204D01*
X143519500Y-88299983D01*
X143519500Y-88380663D01*
X143499815Y-88447702D01*
X143483181Y-88468344D01*
X141286173Y-90665352D01*
X141174818Y-90818618D01*
X141119487Y-90861283D01*
X141049874Y-90867262D01*
X140988079Y-90834656D01*
X140953722Y-90773817D01*
X140950500Y-90745732D01*
X140950500Y-89742005D01*
X140956794Y-89703001D01*
X140973411Y-89652855D01*
X140989999Y-89602797D01*
X141000500Y-89500009D01*
X141000499Y-88299992D01*
X140989999Y-88197203D01*
X140934814Y-88030666D01*
X140842712Y-87881344D01*
X140718656Y-87757288D01*
X140569334Y-87665186D01*
X140402797Y-87610001D01*
X140402795Y-87610000D01*
X140300010Y-87599500D01*
X139099998Y-87599500D01*
X139099981Y-87599501D01*
X138997203Y-87610000D01*
X138997200Y-87610001D01*
X138830668Y-87665185D01*
X138830663Y-87665187D01*
X138681342Y-87757289D01*
X138557289Y-87881342D01*
X138465187Y-88030663D01*
X138465186Y-88030666D01*
X138450576Y-88074758D01*
X138450575Y-88074760D01*
X138410802Y-88132205D01*
X138346286Y-88159027D01*
X138277510Y-88146712D01*
X138232551Y-88108640D01*
X138191971Y-88052787D01*
X138191967Y-88052782D01*
X138047213Y-87908028D01*
X137881613Y-87787715D01*
X137881612Y-87787714D01*
X137881610Y-87787713D01*
X137821898Y-87757288D01*
X137699223Y-87694781D01*
X137504534Y-87631522D01*
X137329995Y-87603878D01*
X137302352Y-87599500D01*
X137097648Y-87599500D01*
X137073329Y-87603351D01*
X136895465Y-87631522D01*
X136700776Y-87694781D01*
X136518386Y-87787715D01*
X136352786Y-87908028D01*
X136208028Y-88052786D01*
X136087715Y-88218386D01*
X135994781Y-88400776D01*
X135931522Y-88595465D01*
X135899500Y-88797648D01*
X135899500Y-89002351D01*
X135931522Y-89204534D01*
X135994781Y-89399223D01*
X136046135Y-89500009D01*
X136072361Y-89551481D01*
X136087715Y-89581613D01*
X136208028Y-89747213D01*
X136352786Y-89891971D01*
X136487802Y-89990064D01*
X136518390Y-90012287D01*
X136622581Y-90065375D01*
X136700776Y-90105218D01*
X136700778Y-90105218D01*
X136700781Y-90105220D01*
X136791856Y-90134812D01*
X136895465Y-90168477D01*
X136996557Y-90184488D01*
X137097648Y-90200500D01*
X137097649Y-90200500D01*
X137302351Y-90200500D01*
X137302352Y-90200500D01*
X137504534Y-90168477D01*
X137699219Y-90105220D01*
X137881610Y-90012287D01*
X137974590Y-89944732D01*
X138047213Y-89891971D01*
X138047215Y-89891968D01*
X138047219Y-89891966D01*
X138191966Y-89747219D01*
X138192635Y-89746299D01*
X138225181Y-89701502D01*
X138280510Y-89658836D01*
X138350123Y-89652855D01*
X138411919Y-89685460D01*
X138446277Y-89746299D01*
X138449500Y-89774386D01*
X138449500Y-93410663D01*
X138429815Y-93477702D01*
X138413181Y-93498344D01*
X134004110Y-97907414D01*
X133972727Y-97930216D01*
X133938386Y-97947714D01*
X133772786Y-98068028D01*
X133628032Y-98212782D01*
X133628028Y-98212787D01*
X133554818Y-98313553D01*
X133499488Y-98356219D01*
X133429875Y-98362198D01*
X133368080Y-98329592D01*
X133333723Y-98268754D01*
X133330500Y-98240668D01*
X133330500Y-89742005D01*
X133336794Y-89703001D01*
X133353411Y-89652855D01*
X133369999Y-89602797D01*
X133380500Y-89500009D01*
X133380499Y-88299992D01*
X133369999Y-88197203D01*
X133314814Y-88030666D01*
X133222712Y-87881344D01*
X133098656Y-87757288D01*
X132949334Y-87665186D01*
X132782797Y-87610001D01*
X132782795Y-87610000D01*
X132680010Y-87599500D01*
X131479998Y-87599500D01*
X131479981Y-87599501D01*
X131377203Y-87610000D01*
X131377200Y-87610001D01*
X131210668Y-87665185D01*
X131210663Y-87665187D01*
X131061342Y-87757289D01*
X130937289Y-87881342D01*
X130845187Y-88030663D01*
X130845186Y-88030666D01*
X130830576Y-88074758D01*
X130830575Y-88074760D01*
X130790802Y-88132205D01*
X130726286Y-88159027D01*
X130657510Y-88146712D01*
X130612551Y-88108640D01*
X130571971Y-88052787D01*
X130571967Y-88052782D01*
X130427213Y-87908028D01*
X130261613Y-87787715D01*
X130261612Y-87787714D01*
X130261610Y-87787713D01*
X130201898Y-87757288D01*
X130079223Y-87694781D01*
X129884534Y-87631522D01*
X129709995Y-87603878D01*
X129682352Y-87599500D01*
X129477648Y-87599500D01*
X129453329Y-87603351D01*
X129275465Y-87631522D01*
X129080776Y-87694781D01*
X128898386Y-87787715D01*
X128732786Y-87908028D01*
X128588032Y-88052782D01*
X128588028Y-88052787D01*
X128474818Y-88208609D01*
X128419488Y-88251275D01*
X128349875Y-88257254D01*
X128288080Y-88224649D01*
X128253723Y-88163810D01*
X128250500Y-88135724D01*
X128250500Y-71478277D01*
X128232586Y-71365183D01*
X128219709Y-71283874D01*
X128219708Y-71283870D01*
X128219708Y-71283869D01*
X128160391Y-71101312D01*
X128159329Y-71097547D01*
X128069523Y-70921294D01*
X127953828Y-70762054D01*
X123306818Y-66115044D01*
X123273333Y-66053721D01*
X123270499Y-66027363D01*
X123270499Y-64447129D01*
X123270498Y-64447123D01*
X123270497Y-64447116D01*
X123264091Y-64387517D01*
X123213796Y-64252669D01*
X123213795Y-64252668D01*
X123213793Y-64252664D01*
X123127547Y-64137455D01*
X123127544Y-64137452D01*
X123012335Y-64051206D01*
X123012328Y-64051202D01*
X122877482Y-64000908D01*
X122877483Y-64000908D01*
X122817883Y-63994501D01*
X122817881Y-63994500D01*
X122817873Y-63994500D01*
X122817864Y-63994500D01*
X121022129Y-63994500D01*
X121022123Y-63994501D01*
X120962516Y-64000908D01*
X120827671Y-64051202D01*
X120827664Y-64051206D01*
X120712455Y-64137452D01*
X120712452Y-64137455D01*
X120626206Y-64252664D01*
X120626202Y-64252671D01*
X120575908Y-64387517D01*
X120569501Y-64447116D01*
X120569501Y-64447123D01*
X120569500Y-64447135D01*
X120569500Y-65650662D01*
X120549815Y-65717701D01*
X120533181Y-65738343D01*
X111328343Y-74943181D01*
X111267020Y-74976666D01*
X111240663Y-74979500D01*
X111159999Y-74979500D01*
X111159980Y-74979501D01*
X111057203Y-74990000D01*
X111057200Y-74990001D01*
X110956997Y-75023206D01*
X110917993Y-75029500D01*
X104789336Y-75029500D01*
X104722297Y-75009815D01*
X104701655Y-74993181D01*
X95906818Y-66198344D01*
X95892114Y-66171416D01*
X95875522Y-66145598D01*
X95874630Y-66139397D01*
X95873333Y-66137021D01*
X95870499Y-66110663D01*
X95870499Y-65916096D01*
X107329500Y-65916096D01*
X107329500Y-66163903D01*
X107329501Y-66163919D01*
X107361846Y-66409606D01*
X107425990Y-66648992D01*
X107520819Y-66877931D01*
X107520827Y-66877948D01*
X107644729Y-67092551D01*
X107644740Y-67092567D01*
X107795595Y-67289166D01*
X107795601Y-67289173D01*
X107970826Y-67464398D01*
X107970833Y-67464404D01*
X107988385Y-67477872D01*
X108167441Y-67615266D01*
X108167448Y-67615270D01*
X108382051Y-67739172D01*
X108382056Y-67739174D01*
X108382059Y-67739176D01*
X108382063Y-67739177D01*
X108382068Y-67739180D01*
X108611007Y-67834009D01*
X108611009Y-67834009D01*
X108611015Y-67834012D01*
X108850390Y-67898153D01*
X109096090Y-67930500D01*
X109096097Y-67930500D01*
X109343903Y-67930500D01*
X109343910Y-67930500D01*
X109589610Y-67898153D01*
X109828985Y-67834012D01*
X110057941Y-67739176D01*
X110272559Y-67615266D01*
X110469168Y-67464403D01*
X110644403Y-67289168D01*
X110795266Y-67092559D01*
X110919176Y-66877941D01*
X111014012Y-66648985D01*
X111078153Y-66409610D01*
X111110500Y-66163910D01*
X111110500Y-65916090D01*
X111078153Y-65670390D01*
X111014012Y-65431015D01*
X110919176Y-65202059D01*
X110919174Y-65202056D01*
X110919172Y-65202051D01*
X110795270Y-64987448D01*
X110795266Y-64987441D01*
X110644403Y-64790832D01*
X110644398Y-64790826D01*
X110469173Y-64615601D01*
X110469166Y-64615595D01*
X110272567Y-64464740D01*
X110272565Y-64464738D01*
X110272559Y-64464734D01*
X110272554Y-64464731D01*
X110272551Y-64464729D01*
X110057948Y-64340827D01*
X110057931Y-64340819D01*
X109828992Y-64245990D01*
X109680510Y-64206204D01*
X109589610Y-64181847D01*
X109589609Y-64181846D01*
X109589606Y-64181846D01*
X109343919Y-64149501D01*
X109343916Y-64149500D01*
X109343910Y-64149500D01*
X109096090Y-64149500D01*
X109096084Y-64149500D01*
X109096080Y-64149501D01*
X108850393Y-64181846D01*
X108611007Y-64245990D01*
X108382068Y-64340819D01*
X108382051Y-64340827D01*
X108167448Y-64464729D01*
X108167432Y-64464740D01*
X107970833Y-64615595D01*
X107970826Y-64615601D01*
X107795601Y-64790826D01*
X107795595Y-64790833D01*
X107644740Y-64987432D01*
X107644729Y-64987448D01*
X107520827Y-65202051D01*
X107520819Y-65202068D01*
X107425990Y-65431007D01*
X107361846Y-65670393D01*
X107329501Y-65916080D01*
X107329500Y-65916096D01*
X95870499Y-65916096D01*
X95870499Y-64602129D01*
X95870498Y-64602123D01*
X95870497Y-64602116D01*
X95864091Y-64542517D01*
X95828513Y-64447128D01*
X95813797Y-64407671D01*
X95813793Y-64407664D01*
X95727547Y-64292455D01*
X95727544Y-64292452D01*
X95612335Y-64206206D01*
X95612328Y-64206202D01*
X95477482Y-64155908D01*
X95477483Y-64155908D01*
X95417883Y-64149501D01*
X95417881Y-64149500D01*
X95417873Y-64149500D01*
X95417864Y-64149500D01*
X92542129Y-64149500D01*
X92542123Y-64149501D01*
X92482516Y-64155908D01*
X92347671Y-64206202D01*
X92347664Y-64206206D01*
X92232455Y-64292452D01*
X92232452Y-64292455D01*
X92146206Y-64407664D01*
X92146202Y-64407671D01*
X92095908Y-64542517D01*
X92089501Y-64602116D01*
X92089501Y-64602123D01*
X92089500Y-64602135D01*
X83050500Y-64602135D01*
X83050500Y-58249244D01*
X129039500Y-58249244D01*
X129039500Y-58590755D01*
X129077734Y-58930092D01*
X129077736Y-58930108D01*
X129153726Y-59263044D01*
X129153730Y-59263056D01*
X129266515Y-59585375D01*
X129266524Y-59585397D01*
X129414686Y-59893059D01*
X129452587Y-59953377D01*
X129596380Y-60182222D01*
X129745564Y-60369293D01*
X129795912Y-60432428D01*
X129809303Y-60449219D01*
X130050781Y-60690697D01*
X130317778Y-60903620D01*
X130606935Y-61085310D01*
X130606940Y-61085313D01*
X130914602Y-61233475D01*
X130914611Y-61233478D01*
X130914618Y-61233482D01*
X130914624Y-61233484D01*
X131236943Y-61346269D01*
X131236955Y-61346273D01*
X131569895Y-61422264D01*
X131909245Y-61460499D01*
X131909246Y-61460500D01*
X131909249Y-61460500D01*
X132250754Y-61460500D01*
X132250754Y-61460499D01*
X132590105Y-61422264D01*
X132923045Y-61346273D01*
X133245382Y-61233482D01*
X133464265Y-61128074D01*
X133553059Y-61085313D01*
X133553059Y-61085312D01*
X133553065Y-61085310D01*
X133842222Y-60903620D01*
X134109219Y-60690697D01*
X134350697Y-60449219D01*
X134563620Y-60182222D01*
X134745310Y-59893065D01*
X134893482Y-59585382D01*
X135006273Y-59263045D01*
X135082264Y-58930105D01*
X135120500Y-58590751D01*
X135120500Y-58249249D01*
X135120499Y-58249244D01*
X172219500Y-58249244D01*
X172219500Y-58590755D01*
X172257734Y-58930092D01*
X172257736Y-58930108D01*
X172333726Y-59263044D01*
X172333730Y-59263056D01*
X172446515Y-59585375D01*
X172446524Y-59585397D01*
X172594686Y-59893059D01*
X172632587Y-59953377D01*
X172776380Y-60182222D01*
X172925564Y-60369293D01*
X172975912Y-60432428D01*
X172989303Y-60449219D01*
X173230781Y-60690697D01*
X173497778Y-60903620D01*
X173786935Y-61085310D01*
X173786940Y-61085313D01*
X174094602Y-61233475D01*
X174094611Y-61233478D01*
X174094618Y-61233482D01*
X174094624Y-61233484D01*
X174416943Y-61346269D01*
X174416955Y-61346273D01*
X174749895Y-61422264D01*
X175089245Y-61460499D01*
X175089246Y-61460500D01*
X175089249Y-61460500D01*
X175430754Y-61460500D01*
X175430754Y-61460499D01*
X175770105Y-61422264D01*
X176103045Y-61346273D01*
X176425382Y-61233482D01*
X176644265Y-61128074D01*
X176733059Y-61085313D01*
X176733059Y-61085312D01*
X176733065Y-61085310D01*
X177022222Y-60903620D01*
X177289219Y-60690697D01*
X177530697Y-60449219D01*
X177743620Y-60182222D01*
X177925310Y-59893065D01*
X178073482Y-59585382D01*
X178186273Y-59263045D01*
X178262264Y-58930105D01*
X178300500Y-58590751D01*
X178300500Y-58249249D01*
X178262264Y-57909895D01*
X178186273Y-57576955D01*
X178073482Y-57254618D01*
X178073478Y-57254611D01*
X178073475Y-57254602D01*
X177925313Y-56946940D01*
X177789314Y-56730500D01*
X177743620Y-56657778D01*
X177530697Y-56390781D01*
X177289219Y-56149303D01*
X177022222Y-55936380D01*
X176799180Y-55796233D01*
X176733059Y-55754686D01*
X176425397Y-55606524D01*
X176425375Y-55606515D01*
X176103056Y-55493730D01*
X176103044Y-55493726D01*
X175770108Y-55417736D01*
X175770092Y-55417734D01*
X175430755Y-55379500D01*
X175430751Y-55379500D01*
X175089249Y-55379500D01*
X175089244Y-55379500D01*
X174749907Y-55417734D01*
X174749891Y-55417736D01*
X174416955Y-55493726D01*
X174416943Y-55493730D01*
X174094624Y-55606515D01*
X174094602Y-55606524D01*
X173786940Y-55754686D01*
X173497779Y-55936379D01*
X173230781Y-56149302D01*
X172989302Y-56390781D01*
X172776379Y-56657779D01*
X172594686Y-56946940D01*
X172446524Y-57254602D01*
X172446515Y-57254624D01*
X172333730Y-57576943D01*
X172333726Y-57576955D01*
X172257736Y-57909891D01*
X172257734Y-57909907D01*
X172219500Y-58249244D01*
X135120499Y-58249244D01*
X135082264Y-57909895D01*
X135006273Y-57576955D01*
X134893482Y-57254618D01*
X134893478Y-57254611D01*
X134893475Y-57254602D01*
X134745313Y-56946940D01*
X134609314Y-56730500D01*
X134563620Y-56657778D01*
X134350697Y-56390781D01*
X134109219Y-56149303D01*
X133842222Y-55936380D01*
X133619180Y-55796233D01*
X133619172Y-55796228D01*
X154249500Y-55796228D01*
X154249500Y-55963771D01*
X154282182Y-56128074D01*
X154282184Y-56128082D01*
X154346295Y-56282860D01*
X154439373Y-56422162D01*
X154557837Y-56540626D01*
X154632970Y-56590828D01*
X154697137Y-56633703D01*
X154851918Y-56697816D01*
X154984651Y-56724218D01*
X155016228Y-56730499D01*
X155016232Y-56730500D01*
X155016233Y-56730500D01*
X155183768Y-56730500D01*
X155183769Y-56730499D01*
X155348082Y-56697816D01*
X155502863Y-56633703D01*
X155642162Y-56540626D01*
X155760626Y-56422162D01*
X155853703Y-56282863D01*
X155917816Y-56128082D01*
X155950500Y-55963767D01*
X155950500Y-55796233D01*
X155950499Y-55796228D01*
X164249500Y-55796228D01*
X164249500Y-55963771D01*
X164282182Y-56128074D01*
X164282184Y-56128082D01*
X164346295Y-56282860D01*
X164439373Y-56422162D01*
X164557837Y-56540626D01*
X164632970Y-56590828D01*
X164697137Y-56633703D01*
X164851918Y-56697816D01*
X164984651Y-56724218D01*
X165016228Y-56730499D01*
X165016232Y-56730500D01*
X165016233Y-56730500D01*
X165183768Y-56730500D01*
X165183769Y-56730499D01*
X165348082Y-56697816D01*
X165502863Y-56633703D01*
X165642162Y-56540626D01*
X165760626Y-56422162D01*
X165853703Y-56282863D01*
X165917816Y-56128082D01*
X165950500Y-55963767D01*
X165950500Y-55796233D01*
X165917816Y-55631918D01*
X165860575Y-55493727D01*
X165853704Y-55477139D01*
X165760626Y-55337837D01*
X165642162Y-55219373D01*
X165502860Y-55126295D01*
X165348082Y-55062184D01*
X165348074Y-55062182D01*
X165183771Y-55029500D01*
X165183767Y-55029500D01*
X165016233Y-55029500D01*
X165016228Y-55029500D01*
X164851925Y-55062182D01*
X164851917Y-55062184D01*
X164697139Y-55126295D01*
X164557837Y-55219373D01*
X164439373Y-55337837D01*
X164346295Y-55477139D01*
X164282184Y-55631917D01*
X164282182Y-55631925D01*
X164249500Y-55796228D01*
X155950499Y-55796228D01*
X155917816Y-55631918D01*
X155860575Y-55493727D01*
X155853704Y-55477139D01*
X155760626Y-55337837D01*
X155642162Y-55219373D01*
X155502860Y-55126295D01*
X155348082Y-55062184D01*
X155348074Y-55062182D01*
X155183771Y-55029500D01*
X155183767Y-55029500D01*
X155016233Y-55029500D01*
X155016228Y-55029500D01*
X154851925Y-55062182D01*
X154851917Y-55062184D01*
X154697139Y-55126295D01*
X154557837Y-55219373D01*
X154439373Y-55337837D01*
X154346295Y-55477139D01*
X154282184Y-55631917D01*
X154282182Y-55631925D01*
X154249500Y-55796228D01*
X133619172Y-55796228D01*
X133553059Y-55754686D01*
X133245397Y-55606524D01*
X133245375Y-55606515D01*
X132923056Y-55493730D01*
X132923044Y-55493726D01*
X132590108Y-55417736D01*
X132590092Y-55417734D01*
X132250755Y-55379500D01*
X132250751Y-55379500D01*
X131909249Y-55379500D01*
X131909244Y-55379500D01*
X131569907Y-55417734D01*
X131569891Y-55417736D01*
X131236955Y-55493726D01*
X131236943Y-55493730D01*
X130914624Y-55606515D01*
X130914602Y-55606524D01*
X130606940Y-55754686D01*
X130317779Y-55936379D01*
X130050781Y-56149302D01*
X129809302Y-56390781D01*
X129596379Y-56657779D01*
X129414686Y-56946940D01*
X129266524Y-57254602D01*
X129266515Y-57254624D01*
X129153730Y-57576943D01*
X129153726Y-57576955D01*
X129077736Y-57909891D01*
X129077734Y-57909907D01*
X129039500Y-58249244D01*
X83050500Y-58249244D01*
X83050500Y-53296228D01*
X154249500Y-53296228D01*
X154249500Y-53463771D01*
X154282182Y-53628074D01*
X154282184Y-53628082D01*
X154346295Y-53782860D01*
X154439373Y-53922162D01*
X154557837Y-54040626D01*
X154650494Y-54102537D01*
X154697137Y-54133703D01*
X154851918Y-54197816D01*
X155016228Y-54230499D01*
X155016232Y-54230500D01*
X155016233Y-54230500D01*
X155183768Y-54230500D01*
X155183769Y-54230499D01*
X155348082Y-54197816D01*
X155502863Y-54133703D01*
X155642162Y-54040626D01*
X155760626Y-53922162D01*
X155853703Y-53782863D01*
X155917816Y-53628082D01*
X155950500Y-53463767D01*
X155950500Y-53296233D01*
X155950499Y-53296228D01*
X164249500Y-53296228D01*
X164249500Y-53463771D01*
X164282182Y-53628074D01*
X164282184Y-53628082D01*
X164346295Y-53782860D01*
X164439373Y-53922162D01*
X164557837Y-54040626D01*
X164650494Y-54102537D01*
X164697137Y-54133703D01*
X164851918Y-54197816D01*
X165016228Y-54230499D01*
X165016232Y-54230500D01*
X165016233Y-54230500D01*
X165183768Y-54230500D01*
X165183769Y-54230499D01*
X165348082Y-54197816D01*
X165502863Y-54133703D01*
X165642162Y-54040626D01*
X165760626Y-53922162D01*
X165853703Y-53782863D01*
X165917816Y-53628082D01*
X165950500Y-53463767D01*
X165950500Y-53296233D01*
X165917816Y-53131918D01*
X165853703Y-52977137D01*
X165822537Y-52930494D01*
X165760626Y-52837837D01*
X165642162Y-52719373D01*
X165502860Y-52626295D01*
X165348082Y-52562184D01*
X165348074Y-52562182D01*
X165183771Y-52529500D01*
X165183767Y-52529500D01*
X165016233Y-52529500D01*
X165016228Y-52529500D01*
X164851925Y-52562182D01*
X164851917Y-52562184D01*
X164697139Y-52626295D01*
X164557837Y-52719373D01*
X164439373Y-52837837D01*
X164346295Y-52977139D01*
X164282184Y-53131917D01*
X164282182Y-53131925D01*
X164249500Y-53296228D01*
X155950499Y-53296228D01*
X155917816Y-53131918D01*
X155853703Y-52977137D01*
X155822537Y-52930494D01*
X155760626Y-52837837D01*
X155642162Y-52719373D01*
X155502860Y-52626295D01*
X155348082Y-52562184D01*
X155348074Y-52562182D01*
X155183771Y-52529500D01*
X155183767Y-52529500D01*
X155016233Y-52529500D01*
X155016228Y-52529500D01*
X154851925Y-52562182D01*
X154851917Y-52562184D01*
X154697139Y-52626295D01*
X154557837Y-52719373D01*
X154439373Y-52837837D01*
X154346295Y-52977139D01*
X154282184Y-53131917D01*
X154282182Y-53131925D01*
X154249500Y-53296228D01*
X83050500Y-53296228D01*
X83050500Y-52004500D01*
X83070185Y-51937461D01*
X83122989Y-51891706D01*
X83174500Y-51880500D01*
X153534108Y-51880500D01*
X157275500Y-51880500D01*
X157342539Y-51900185D01*
G37*
%TD.AperFunction*%
%TD*%
M02*
