%TF.GenerationSoftware,KiCad,Pcbnew,9.0.7-1.fc43*%
%TF.CreationDate,2026-03-15T14:55:25+08:00*%
%TF.ProjectId,BoomBay,426f6f6d-4261-4792-9e6b-696361645f70,1.01*%
%TF.SameCoordinates,Original*%
%TF.FileFunction,Drillmap*%
%TF.FilePolarity,Positive*%
%FSLAX45Y45*%
G04 Gerber Fmt 4.5, Leading zero omitted, Abs format (unit mm)*
G04 Created by KiCad (PCBNEW 9.0.7-1.fc43) date 2026-03-15 14:55:25*
%MOMM*%
%LPD*%
G01*
G04 APERTURE LIST*
%ADD10C,0.050000*%
%ADD11C,0.120000*%
%ADD12C,0.200000*%
G04 APERTURE END LIST*
D10*
X17780000Y-5842000D02*
G75*
G02*
X17272000Y-5842000I-254000J0D01*
G01*
X17272000Y-5842000D02*
G75*
G02*
X17780000Y-5842000I254000J0D01*
G01*
X9398000Y-11684000D02*
G75*
G02*
X8890000Y-11684000I-254000J0D01*
G01*
X8890000Y-11684000D02*
G75*
G02*
X9398000Y-11684000I254000J0D01*
G01*
X17780000Y-8890000D02*
G75*
G02*
X17272000Y-8890000I-254000J0D01*
G01*
X17272000Y-8890000D02*
G75*
G02*
X17780000Y-8890000I254000J0D01*
G01*
X11176000Y-14224000D02*
G75*
G02*
X10668000Y-14224000I-254000J0D01*
G01*
X10668000Y-14224000D02*
G75*
G02*
X11176000Y-14224000I254000J0D01*
G01*
X13462000Y-5842000D02*
G75*
G02*
X12954000Y-5842000I-254000J0D01*
G01*
X12954000Y-5842000D02*
G75*
G02*
X13462000Y-5842000I254000J0D01*
G01*
X17780000Y-14224000D02*
G75*
G02*
X17272000Y-14224000I-254000J0D01*
G01*
X17272000Y-14224000D02*
G75*
G02*
X17780000Y-14224000I254000J0D01*
G01*
X18245000Y-5138000D02*
X18245000Y-14932000D01*
X8255000Y-14932000D02*
X8255000Y-5138000D01*
X16660000Y-14932000D02*
X18245000Y-14932000D01*
X15360000Y-14932000D02*
X8255000Y-14932000D01*
X9398000Y-8382000D02*
G75*
G02*
X8890000Y-8382000I-254000J0D01*
G01*
X8890000Y-8382000D02*
G75*
G02*
X9398000Y-8382000I254000J0D01*
G01*
X17780000Y-11684000D02*
G75*
G02*
X17272000Y-11684000I-254000J0D01*
G01*
X17272000Y-11684000D02*
G75*
G02*
X17780000Y-11684000I254000J0D01*
G01*
X9398000Y-14224000D02*
G75*
G02*
X8890000Y-14224000I-254000J0D01*
G01*
X8890000Y-14224000D02*
G75*
G02*
X9398000Y-14224000I254000J0D01*
G01*
X15360000Y-5138000D02*
X8255000Y-5138000D01*
X16660000Y-5138000D02*
X18245000Y-5138000D01*
D11*
X15790000Y-5138000D02*
X15360000Y-5138000D01*
X15790000Y-5238000D02*
X15790000Y-5138000D01*
X15830000Y-5278000D02*
X16190000Y-5278000D01*
X16230000Y-5138000D02*
X16660000Y-5138000D01*
X16230000Y-5238000D02*
X16230000Y-5138000D01*
X15830000Y-5278000D02*
G75*
G02*
X15790000Y-5238000I0J40000D01*
G01*
X16230000Y-5238000D02*
G75*
G02*
X16190000Y-5278000I-40000J0D01*
G01*
X15790000Y-14832000D02*
X15790000Y-14932000D01*
X15790000Y-14932000D02*
X15360000Y-14932000D01*
X16190000Y-14792000D02*
X15830000Y-14792000D01*
X16230000Y-14832000D02*
X16230000Y-14932000D01*
X16230000Y-14932000D02*
X16660000Y-14932000D01*
X15790000Y-14832000D02*
G75*
G02*
X15830000Y-14792000I40000J0D01*
G01*
X16190000Y-14792000D02*
G75*
G02*
X16230000Y-14832000I0J-40000D01*
G01*
D12*
D11*
X15450000Y-5278000D02*
X15570000Y-5398000D01*
X15570000Y-5278000D02*
X15450000Y-5398000D01*
X15450000Y-5528000D02*
X15570000Y-5648000D01*
X15570000Y-5528000D02*
X15450000Y-5648000D01*
X15450000Y-14422000D02*
X15570000Y-14542000D01*
X15570000Y-14422000D02*
X15450000Y-14542000D01*
X15450000Y-14672000D02*
X15570000Y-14792000D01*
X15570000Y-14672000D02*
X15450000Y-14792000D01*
X15950000Y-6028000D02*
X16070000Y-6148000D01*
X16070000Y-6028000D02*
X15950000Y-6148000D01*
X15950000Y-13922000D02*
X16070000Y-14042000D01*
X16070000Y-13922000D02*
X15950000Y-14042000D01*
X16450000Y-5278000D02*
X16570000Y-5398000D01*
X16570000Y-5278000D02*
X16450000Y-5398000D01*
X16450000Y-5528000D02*
X16570000Y-5648000D01*
X16570000Y-5528000D02*
X16450000Y-5648000D01*
X16450000Y-14422000D02*
X16570000Y-14542000D01*
X16570000Y-14422000D02*
X16450000Y-14542000D01*
X16450000Y-14672000D02*
X16570000Y-14792000D01*
X16570000Y-14672000D02*
X16450000Y-14792000D01*
D12*
X8513277Y-15249484D02*
X8513277Y-15049484D01*
X8513277Y-15049484D02*
X8560896Y-15049484D01*
X8560896Y-15049484D02*
X8589467Y-15059008D01*
X8589467Y-15059008D02*
X8608515Y-15078055D01*
X8608515Y-15078055D02*
X8618039Y-15097103D01*
X8618039Y-15097103D02*
X8627563Y-15135198D01*
X8627563Y-15135198D02*
X8627563Y-15163769D01*
X8627563Y-15163769D02*
X8618039Y-15201865D01*
X8618039Y-15201865D02*
X8608515Y-15220912D01*
X8608515Y-15220912D02*
X8589467Y-15239960D01*
X8589467Y-15239960D02*
X8560896Y-15249484D01*
X8560896Y-15249484D02*
X8513277Y-15249484D01*
X8713277Y-15249484D02*
X8713277Y-15116150D01*
X8713277Y-15154246D02*
X8722801Y-15135198D01*
X8722801Y-15135198D02*
X8732324Y-15125674D01*
X8732324Y-15125674D02*
X8751372Y-15116150D01*
X8751372Y-15116150D02*
X8770420Y-15116150D01*
X8837086Y-15249484D02*
X8837086Y-15116150D01*
X8837086Y-15049484D02*
X8827563Y-15059008D01*
X8827563Y-15059008D02*
X8837086Y-15068531D01*
X8837086Y-15068531D02*
X8846610Y-15059008D01*
X8846610Y-15059008D02*
X8837086Y-15049484D01*
X8837086Y-15049484D02*
X8837086Y-15068531D01*
X8960896Y-15249484D02*
X8941848Y-15239960D01*
X8941848Y-15239960D02*
X8932324Y-15220912D01*
X8932324Y-15220912D02*
X8932324Y-15049484D01*
X9065658Y-15249484D02*
X9046610Y-15239960D01*
X9046610Y-15239960D02*
X9037086Y-15220912D01*
X9037086Y-15220912D02*
X9037086Y-15049484D01*
X9294229Y-15249484D02*
X9294229Y-15049484D01*
X9294229Y-15049484D02*
X9360896Y-15192341D01*
X9360896Y-15192341D02*
X9427563Y-15049484D01*
X9427563Y-15049484D02*
X9427563Y-15249484D01*
X9608515Y-15249484D02*
X9608515Y-15144722D01*
X9608515Y-15144722D02*
X9598991Y-15125674D01*
X9598991Y-15125674D02*
X9579944Y-15116150D01*
X9579944Y-15116150D02*
X9541848Y-15116150D01*
X9541848Y-15116150D02*
X9522801Y-15125674D01*
X9608515Y-15239960D02*
X9589467Y-15249484D01*
X9589467Y-15249484D02*
X9541848Y-15249484D01*
X9541848Y-15249484D02*
X9522801Y-15239960D01*
X9522801Y-15239960D02*
X9513277Y-15220912D01*
X9513277Y-15220912D02*
X9513277Y-15201865D01*
X9513277Y-15201865D02*
X9522801Y-15182817D01*
X9522801Y-15182817D02*
X9541848Y-15173293D01*
X9541848Y-15173293D02*
X9589467Y-15173293D01*
X9589467Y-15173293D02*
X9608515Y-15163769D01*
X9703753Y-15116150D02*
X9703753Y-15316150D01*
X9703753Y-15125674D02*
X9722801Y-15116150D01*
X9722801Y-15116150D02*
X9760896Y-15116150D01*
X9760896Y-15116150D02*
X9779944Y-15125674D01*
X9779944Y-15125674D02*
X9789467Y-15135198D01*
X9789467Y-15135198D02*
X9798991Y-15154246D01*
X9798991Y-15154246D02*
X9798991Y-15211388D01*
X9798991Y-15211388D02*
X9789467Y-15230436D01*
X9789467Y-15230436D02*
X9779944Y-15239960D01*
X9779944Y-15239960D02*
X9760896Y-15249484D01*
X9760896Y-15249484D02*
X9722801Y-15249484D01*
X9722801Y-15249484D02*
X9703753Y-15239960D01*
X9884705Y-15230436D02*
X9894229Y-15239960D01*
X9894229Y-15239960D02*
X9884705Y-15249484D01*
X9884705Y-15249484D02*
X9875182Y-15239960D01*
X9875182Y-15239960D02*
X9884705Y-15230436D01*
X9884705Y-15230436D02*
X9884705Y-15249484D01*
X9884705Y-15125674D02*
X9894229Y-15135198D01*
X9894229Y-15135198D02*
X9884705Y-15144722D01*
X9884705Y-15144722D02*
X9875182Y-15135198D01*
X9875182Y-15135198D02*
X9884705Y-15125674D01*
X9884705Y-15125674D02*
X9884705Y-15144722D01*
D11*
X8132500Y-15518000D02*
X8252500Y-15638000D01*
X8252500Y-15518000D02*
X8132500Y-15638000D01*
D12*
X8618039Y-15669484D02*
X8503753Y-15669484D01*
X8560896Y-15669484D02*
X8560896Y-15469484D01*
X8560896Y-15469484D02*
X8541848Y-15498055D01*
X8541848Y-15498055D02*
X8522801Y-15517103D01*
X8522801Y-15517103D02*
X8503753Y-15526627D01*
X8703753Y-15650436D02*
X8713277Y-15659960D01*
X8713277Y-15659960D02*
X8703753Y-15669484D01*
X8703753Y-15669484D02*
X8694229Y-15659960D01*
X8694229Y-15659960D02*
X8703753Y-15650436D01*
X8703753Y-15650436D02*
X8703753Y-15669484D01*
X8789467Y-15488531D02*
X8798991Y-15479008D01*
X8798991Y-15479008D02*
X8818039Y-15469484D01*
X8818039Y-15469484D02*
X8865658Y-15469484D01*
X8865658Y-15469484D02*
X8884705Y-15479008D01*
X8884705Y-15479008D02*
X8894229Y-15488531D01*
X8894229Y-15488531D02*
X8903753Y-15507579D01*
X8903753Y-15507579D02*
X8903753Y-15526627D01*
X8903753Y-15526627D02*
X8894229Y-15555198D01*
X8894229Y-15555198D02*
X8779944Y-15669484D01*
X8779944Y-15669484D02*
X8903753Y-15669484D01*
X9027563Y-15469484D02*
X9046610Y-15469484D01*
X9046610Y-15469484D02*
X9065658Y-15479008D01*
X9065658Y-15479008D02*
X9075182Y-15488531D01*
X9075182Y-15488531D02*
X9084705Y-15507579D01*
X9084705Y-15507579D02*
X9094229Y-15545674D01*
X9094229Y-15545674D02*
X9094229Y-15593293D01*
X9094229Y-15593293D02*
X9084705Y-15631388D01*
X9084705Y-15631388D02*
X9075182Y-15650436D01*
X9075182Y-15650436D02*
X9065658Y-15659960D01*
X9065658Y-15659960D02*
X9046610Y-15669484D01*
X9046610Y-15669484D02*
X9027563Y-15669484D01*
X9027563Y-15669484D02*
X9008515Y-15659960D01*
X9008515Y-15659960D02*
X8998991Y-15650436D01*
X8998991Y-15650436D02*
X8989467Y-15631388D01*
X8989467Y-15631388D02*
X8979944Y-15593293D01*
X8979944Y-15593293D02*
X8979944Y-15545674D01*
X8979944Y-15545674D02*
X8989467Y-15507579D01*
X8989467Y-15507579D02*
X8998991Y-15488531D01*
X8998991Y-15488531D02*
X9008515Y-15479008D01*
X9008515Y-15479008D02*
X9027563Y-15469484D01*
X9218039Y-15469484D02*
X9237086Y-15469484D01*
X9237086Y-15469484D02*
X9256134Y-15479008D01*
X9256134Y-15479008D02*
X9265658Y-15488531D01*
X9265658Y-15488531D02*
X9275182Y-15507579D01*
X9275182Y-15507579D02*
X9284705Y-15545674D01*
X9284705Y-15545674D02*
X9284705Y-15593293D01*
X9284705Y-15593293D02*
X9275182Y-15631388D01*
X9275182Y-15631388D02*
X9265658Y-15650436D01*
X9265658Y-15650436D02*
X9256134Y-15659960D01*
X9256134Y-15659960D02*
X9237086Y-15669484D01*
X9237086Y-15669484D02*
X9218039Y-15669484D01*
X9218039Y-15669484D02*
X9198991Y-15659960D01*
X9198991Y-15659960D02*
X9189467Y-15650436D01*
X9189467Y-15650436D02*
X9179944Y-15631388D01*
X9179944Y-15631388D02*
X9170420Y-15593293D01*
X9170420Y-15593293D02*
X9170420Y-15545674D01*
X9170420Y-15545674D02*
X9179944Y-15507579D01*
X9179944Y-15507579D02*
X9189467Y-15488531D01*
X9189467Y-15488531D02*
X9198991Y-15479008D01*
X9198991Y-15479008D02*
X9218039Y-15469484D01*
X9370420Y-15669484D02*
X9370420Y-15536150D01*
X9370420Y-15555198D02*
X9379944Y-15545674D01*
X9379944Y-15545674D02*
X9398991Y-15536150D01*
X9398991Y-15536150D02*
X9427563Y-15536150D01*
X9427563Y-15536150D02*
X9446610Y-15545674D01*
X9446610Y-15545674D02*
X9456134Y-15564722D01*
X9456134Y-15564722D02*
X9456134Y-15669484D01*
X9456134Y-15564722D02*
X9465658Y-15545674D01*
X9465658Y-15545674D02*
X9484705Y-15536150D01*
X9484705Y-15536150D02*
X9513277Y-15536150D01*
X9513277Y-15536150D02*
X9532325Y-15545674D01*
X9532325Y-15545674D02*
X9541848Y-15564722D01*
X9541848Y-15564722D02*
X9541848Y-15669484D01*
X9637086Y-15669484D02*
X9637086Y-15536150D01*
X9637086Y-15555198D02*
X9646610Y-15545674D01*
X9646610Y-15545674D02*
X9665658Y-15536150D01*
X9665658Y-15536150D02*
X9694229Y-15536150D01*
X9694229Y-15536150D02*
X9713277Y-15545674D01*
X9713277Y-15545674D02*
X9722801Y-15564722D01*
X9722801Y-15564722D02*
X9722801Y-15669484D01*
X9722801Y-15564722D02*
X9732325Y-15545674D01*
X9732325Y-15545674D02*
X9751372Y-15536150D01*
X9751372Y-15536150D02*
X9779944Y-15536150D01*
X9779944Y-15536150D02*
X9798991Y-15545674D01*
X9798991Y-15545674D02*
X9808515Y-15564722D01*
X9808515Y-15564722D02*
X9808515Y-15669484D01*
X10198991Y-15459960D02*
X10027563Y-15717103D01*
X10456134Y-15469484D02*
X10475182Y-15469484D01*
X10475182Y-15469484D02*
X10494229Y-15479008D01*
X10494229Y-15479008D02*
X10503753Y-15488531D01*
X10503753Y-15488531D02*
X10513277Y-15507579D01*
X10513277Y-15507579D02*
X10522801Y-15545674D01*
X10522801Y-15545674D02*
X10522801Y-15593293D01*
X10522801Y-15593293D02*
X10513277Y-15631388D01*
X10513277Y-15631388D02*
X10503753Y-15650436D01*
X10503753Y-15650436D02*
X10494229Y-15659960D01*
X10494229Y-15659960D02*
X10475182Y-15669484D01*
X10475182Y-15669484D02*
X10456134Y-15669484D01*
X10456134Y-15669484D02*
X10437087Y-15659960D01*
X10437087Y-15659960D02*
X10427563Y-15650436D01*
X10427563Y-15650436D02*
X10418039Y-15631388D01*
X10418039Y-15631388D02*
X10408515Y-15593293D01*
X10408515Y-15593293D02*
X10408515Y-15545674D01*
X10408515Y-15545674D02*
X10418039Y-15507579D01*
X10418039Y-15507579D02*
X10427563Y-15488531D01*
X10427563Y-15488531D02*
X10437087Y-15479008D01*
X10437087Y-15479008D02*
X10456134Y-15469484D01*
X10608515Y-15650436D02*
X10618039Y-15659960D01*
X10618039Y-15659960D02*
X10608515Y-15669484D01*
X10608515Y-15669484D02*
X10598991Y-15659960D01*
X10598991Y-15659960D02*
X10608515Y-15650436D01*
X10608515Y-15650436D02*
X10608515Y-15669484D01*
X10741848Y-15469484D02*
X10760896Y-15469484D01*
X10760896Y-15469484D02*
X10779944Y-15479008D01*
X10779944Y-15479008D02*
X10789468Y-15488531D01*
X10789468Y-15488531D02*
X10798991Y-15507579D01*
X10798991Y-15507579D02*
X10808515Y-15545674D01*
X10808515Y-15545674D02*
X10808515Y-15593293D01*
X10808515Y-15593293D02*
X10798991Y-15631388D01*
X10798991Y-15631388D02*
X10789468Y-15650436D01*
X10789468Y-15650436D02*
X10779944Y-15659960D01*
X10779944Y-15659960D02*
X10760896Y-15669484D01*
X10760896Y-15669484D02*
X10741848Y-15669484D01*
X10741848Y-15669484D02*
X10722801Y-15659960D01*
X10722801Y-15659960D02*
X10713277Y-15650436D01*
X10713277Y-15650436D02*
X10703753Y-15631388D01*
X10703753Y-15631388D02*
X10694229Y-15593293D01*
X10694229Y-15593293D02*
X10694229Y-15545674D01*
X10694229Y-15545674D02*
X10703753Y-15507579D01*
X10703753Y-15507579D02*
X10713277Y-15488531D01*
X10713277Y-15488531D02*
X10722801Y-15479008D01*
X10722801Y-15479008D02*
X10741848Y-15469484D01*
X10979944Y-15536150D02*
X10979944Y-15669484D01*
X10932325Y-15459960D02*
X10884706Y-15602817D01*
X10884706Y-15602817D02*
X11008515Y-15602817D01*
X11065658Y-15469484D02*
X11198991Y-15469484D01*
X11198991Y-15469484D02*
X11113277Y-15669484D01*
X11265658Y-15488531D02*
X11275182Y-15479008D01*
X11275182Y-15479008D02*
X11294229Y-15469484D01*
X11294229Y-15469484D02*
X11341848Y-15469484D01*
X11341848Y-15469484D02*
X11360896Y-15479008D01*
X11360896Y-15479008D02*
X11370420Y-15488531D01*
X11370420Y-15488531D02*
X11379944Y-15507579D01*
X11379944Y-15507579D02*
X11379944Y-15526627D01*
X11379944Y-15526627D02*
X11370420Y-15555198D01*
X11370420Y-15555198D02*
X11256134Y-15669484D01*
X11256134Y-15669484D02*
X11379944Y-15669484D01*
X11456134Y-15469484D02*
X11456134Y-15507579D01*
X11532325Y-15469484D02*
X11532325Y-15507579D01*
X11827563Y-15745674D02*
X11818039Y-15736150D01*
X11818039Y-15736150D02*
X11798991Y-15707579D01*
X11798991Y-15707579D02*
X11789468Y-15688531D01*
X11789468Y-15688531D02*
X11779944Y-15659960D01*
X11779944Y-15659960D02*
X11770420Y-15612341D01*
X11770420Y-15612341D02*
X11770420Y-15574246D01*
X11770420Y-15574246D02*
X11779944Y-15526627D01*
X11779944Y-15526627D02*
X11789468Y-15498055D01*
X11789468Y-15498055D02*
X11798991Y-15479008D01*
X11798991Y-15479008D02*
X11818039Y-15450436D01*
X11818039Y-15450436D02*
X11827563Y-15440912D01*
X12008515Y-15669484D02*
X11894229Y-15669484D01*
X11951372Y-15669484D02*
X11951372Y-15469484D01*
X11951372Y-15469484D02*
X11932325Y-15498055D01*
X11932325Y-15498055D02*
X11913277Y-15517103D01*
X11913277Y-15517103D02*
X11894229Y-15526627D01*
X12132325Y-15469484D02*
X12151372Y-15469484D01*
X12151372Y-15469484D02*
X12170420Y-15479008D01*
X12170420Y-15479008D02*
X12179944Y-15488531D01*
X12179944Y-15488531D02*
X12189468Y-15507579D01*
X12189468Y-15507579D02*
X12198991Y-15545674D01*
X12198991Y-15545674D02*
X12198991Y-15593293D01*
X12198991Y-15593293D02*
X12189468Y-15631388D01*
X12189468Y-15631388D02*
X12179944Y-15650436D01*
X12179944Y-15650436D02*
X12170420Y-15659960D01*
X12170420Y-15659960D02*
X12151372Y-15669484D01*
X12151372Y-15669484D02*
X12132325Y-15669484D01*
X12132325Y-15669484D02*
X12113277Y-15659960D01*
X12113277Y-15659960D02*
X12103753Y-15650436D01*
X12103753Y-15650436D02*
X12094229Y-15631388D01*
X12094229Y-15631388D02*
X12084706Y-15593293D01*
X12084706Y-15593293D02*
X12084706Y-15545674D01*
X12084706Y-15545674D02*
X12094229Y-15507579D01*
X12094229Y-15507579D02*
X12103753Y-15488531D01*
X12103753Y-15488531D02*
X12113277Y-15479008D01*
X12113277Y-15479008D02*
X12132325Y-15469484D01*
X12437087Y-15669484D02*
X12437087Y-15469484D01*
X12522801Y-15669484D02*
X12522801Y-15564722D01*
X12522801Y-15564722D02*
X12513277Y-15545674D01*
X12513277Y-15545674D02*
X12494230Y-15536150D01*
X12494230Y-15536150D02*
X12465658Y-15536150D01*
X12465658Y-15536150D02*
X12446610Y-15545674D01*
X12446610Y-15545674D02*
X12437087Y-15555198D01*
X12646610Y-15669484D02*
X12627563Y-15659960D01*
X12627563Y-15659960D02*
X12618039Y-15650436D01*
X12618039Y-15650436D02*
X12608515Y-15631388D01*
X12608515Y-15631388D02*
X12608515Y-15574246D01*
X12608515Y-15574246D02*
X12618039Y-15555198D01*
X12618039Y-15555198D02*
X12627563Y-15545674D01*
X12627563Y-15545674D02*
X12646610Y-15536150D01*
X12646610Y-15536150D02*
X12675182Y-15536150D01*
X12675182Y-15536150D02*
X12694230Y-15545674D01*
X12694230Y-15545674D02*
X12703753Y-15555198D01*
X12703753Y-15555198D02*
X12713277Y-15574246D01*
X12713277Y-15574246D02*
X12713277Y-15631388D01*
X12713277Y-15631388D02*
X12703753Y-15650436D01*
X12703753Y-15650436D02*
X12694230Y-15659960D01*
X12694230Y-15659960D02*
X12675182Y-15669484D01*
X12675182Y-15669484D02*
X12646610Y-15669484D01*
X12827563Y-15669484D02*
X12808515Y-15659960D01*
X12808515Y-15659960D02*
X12798991Y-15640912D01*
X12798991Y-15640912D02*
X12798991Y-15469484D01*
X12979944Y-15659960D02*
X12960896Y-15669484D01*
X12960896Y-15669484D02*
X12922801Y-15669484D01*
X12922801Y-15669484D02*
X12903753Y-15659960D01*
X12903753Y-15659960D02*
X12894230Y-15640912D01*
X12894230Y-15640912D02*
X12894230Y-15564722D01*
X12894230Y-15564722D02*
X12903753Y-15545674D01*
X12903753Y-15545674D02*
X12922801Y-15536150D01*
X12922801Y-15536150D02*
X12960896Y-15536150D01*
X12960896Y-15536150D02*
X12979944Y-15545674D01*
X12979944Y-15545674D02*
X12989468Y-15564722D01*
X12989468Y-15564722D02*
X12989468Y-15583769D01*
X12989468Y-15583769D02*
X12894230Y-15602817D01*
X13065658Y-15659960D02*
X13084706Y-15669484D01*
X13084706Y-15669484D02*
X13122801Y-15669484D01*
X13122801Y-15669484D02*
X13141849Y-15659960D01*
X13141849Y-15659960D02*
X13151372Y-15640912D01*
X13151372Y-15640912D02*
X13151372Y-15631388D01*
X13151372Y-15631388D02*
X13141849Y-15612341D01*
X13141849Y-15612341D02*
X13122801Y-15602817D01*
X13122801Y-15602817D02*
X13094230Y-15602817D01*
X13094230Y-15602817D02*
X13075182Y-15593293D01*
X13075182Y-15593293D02*
X13065658Y-15574246D01*
X13065658Y-15574246D02*
X13065658Y-15564722D01*
X13065658Y-15564722D02*
X13075182Y-15545674D01*
X13075182Y-15545674D02*
X13094230Y-15536150D01*
X13094230Y-15536150D02*
X13122801Y-15536150D01*
X13122801Y-15536150D02*
X13141849Y-15545674D01*
X13218039Y-15745674D02*
X13227563Y-15736150D01*
X13227563Y-15736150D02*
X13246611Y-15707579D01*
X13246611Y-15707579D02*
X13256134Y-15688531D01*
X13256134Y-15688531D02*
X13265658Y-15659960D01*
X13265658Y-15659960D02*
X13275182Y-15612341D01*
X13275182Y-15612341D02*
X13275182Y-15574246D01*
X13275182Y-15574246D02*
X13265658Y-15526627D01*
X13265658Y-15526627D02*
X13256134Y-15498055D01*
X13256134Y-15498055D02*
X13246611Y-15479008D01*
X13246611Y-15479008D02*
X13227563Y-15450436D01*
X13227563Y-15450436D02*
X13218039Y-15440912D01*
X13579944Y-15745674D02*
X13570420Y-15736150D01*
X13570420Y-15736150D02*
X13551372Y-15707579D01*
X13551372Y-15707579D02*
X13541849Y-15688531D01*
X13541849Y-15688531D02*
X13532325Y-15659960D01*
X13532325Y-15659960D02*
X13522801Y-15612341D01*
X13522801Y-15612341D02*
X13522801Y-15574246D01*
X13522801Y-15574246D02*
X13532325Y-15526627D01*
X13532325Y-15526627D02*
X13541849Y-15498055D01*
X13541849Y-15498055D02*
X13551372Y-15479008D01*
X13551372Y-15479008D02*
X13570420Y-15450436D01*
X13570420Y-15450436D02*
X13579944Y-15440912D01*
X13656134Y-15536150D02*
X13656134Y-15669484D01*
X13656134Y-15555198D02*
X13665658Y-15545674D01*
X13665658Y-15545674D02*
X13684706Y-15536150D01*
X13684706Y-15536150D02*
X13713277Y-15536150D01*
X13713277Y-15536150D02*
X13732325Y-15545674D01*
X13732325Y-15545674D02*
X13741849Y-15564722D01*
X13741849Y-15564722D02*
X13741849Y-15669484D01*
X13865658Y-15669484D02*
X13846611Y-15659960D01*
X13846611Y-15659960D02*
X13837087Y-15650436D01*
X13837087Y-15650436D02*
X13827563Y-15631388D01*
X13827563Y-15631388D02*
X13827563Y-15574246D01*
X13827563Y-15574246D02*
X13837087Y-15555198D01*
X13837087Y-15555198D02*
X13846611Y-15545674D01*
X13846611Y-15545674D02*
X13865658Y-15536150D01*
X13865658Y-15536150D02*
X13894230Y-15536150D01*
X13894230Y-15536150D02*
X13913277Y-15545674D01*
X13913277Y-15545674D02*
X13922801Y-15555198D01*
X13922801Y-15555198D02*
X13932325Y-15574246D01*
X13932325Y-15574246D02*
X13932325Y-15631388D01*
X13932325Y-15631388D02*
X13922801Y-15650436D01*
X13922801Y-15650436D02*
X13913277Y-15659960D01*
X13913277Y-15659960D02*
X13894230Y-15669484D01*
X13894230Y-15669484D02*
X13865658Y-15669484D01*
X13989468Y-15536150D02*
X14065658Y-15536150D01*
X14018039Y-15469484D02*
X14018039Y-15640912D01*
X14018039Y-15640912D02*
X14027563Y-15659960D01*
X14027563Y-15659960D02*
X14046611Y-15669484D01*
X14046611Y-15669484D02*
X14065658Y-15669484D01*
X14284706Y-15536150D02*
X14284706Y-15736150D01*
X14284706Y-15545674D02*
X14303753Y-15536150D01*
X14303753Y-15536150D02*
X14341849Y-15536150D01*
X14341849Y-15536150D02*
X14360896Y-15545674D01*
X14360896Y-15545674D02*
X14370420Y-15555198D01*
X14370420Y-15555198D02*
X14379944Y-15574246D01*
X14379944Y-15574246D02*
X14379944Y-15631388D01*
X14379944Y-15631388D02*
X14370420Y-15650436D01*
X14370420Y-15650436D02*
X14360896Y-15659960D01*
X14360896Y-15659960D02*
X14341849Y-15669484D01*
X14341849Y-15669484D02*
X14303753Y-15669484D01*
X14303753Y-15669484D02*
X14284706Y-15659960D01*
X14494230Y-15669484D02*
X14475182Y-15659960D01*
X14475182Y-15659960D02*
X14465658Y-15640912D01*
X14465658Y-15640912D02*
X14465658Y-15469484D01*
X14656134Y-15669484D02*
X14656134Y-15564722D01*
X14656134Y-15564722D02*
X14646611Y-15545674D01*
X14646611Y-15545674D02*
X14627563Y-15536150D01*
X14627563Y-15536150D02*
X14589468Y-15536150D01*
X14589468Y-15536150D02*
X14570420Y-15545674D01*
X14656134Y-15659960D02*
X14637087Y-15669484D01*
X14637087Y-15669484D02*
X14589468Y-15669484D01*
X14589468Y-15669484D02*
X14570420Y-15659960D01*
X14570420Y-15659960D02*
X14560896Y-15640912D01*
X14560896Y-15640912D02*
X14560896Y-15621865D01*
X14560896Y-15621865D02*
X14570420Y-15602817D01*
X14570420Y-15602817D02*
X14589468Y-15593293D01*
X14589468Y-15593293D02*
X14637087Y-15593293D01*
X14637087Y-15593293D02*
X14656134Y-15583769D01*
X14722801Y-15536150D02*
X14798992Y-15536150D01*
X14751373Y-15469484D02*
X14751373Y-15640912D01*
X14751373Y-15640912D02*
X14760896Y-15659960D01*
X14760896Y-15659960D02*
X14779944Y-15669484D01*
X14779944Y-15669484D02*
X14798992Y-15669484D01*
X14941849Y-15659960D02*
X14922801Y-15669484D01*
X14922801Y-15669484D02*
X14884706Y-15669484D01*
X14884706Y-15669484D02*
X14865658Y-15659960D01*
X14865658Y-15659960D02*
X14856134Y-15640912D01*
X14856134Y-15640912D02*
X14856134Y-15564722D01*
X14856134Y-15564722D02*
X14865658Y-15545674D01*
X14865658Y-15545674D02*
X14884706Y-15536150D01*
X14884706Y-15536150D02*
X14922801Y-15536150D01*
X14922801Y-15536150D02*
X14941849Y-15545674D01*
X14941849Y-15545674D02*
X14951373Y-15564722D01*
X14951373Y-15564722D02*
X14951373Y-15583769D01*
X14951373Y-15583769D02*
X14856134Y-15602817D01*
X15122801Y-15669484D02*
X15122801Y-15469484D01*
X15122801Y-15659960D02*
X15103754Y-15669484D01*
X15103754Y-15669484D02*
X15065658Y-15669484D01*
X15065658Y-15669484D02*
X15046611Y-15659960D01*
X15046611Y-15659960D02*
X15037087Y-15650436D01*
X15037087Y-15650436D02*
X15027563Y-15631388D01*
X15027563Y-15631388D02*
X15027563Y-15574246D01*
X15027563Y-15574246D02*
X15037087Y-15555198D01*
X15037087Y-15555198D02*
X15046611Y-15545674D01*
X15046611Y-15545674D02*
X15065658Y-15536150D01*
X15065658Y-15536150D02*
X15103754Y-15536150D01*
X15103754Y-15536150D02*
X15122801Y-15545674D01*
X15198992Y-15745674D02*
X15208515Y-15736150D01*
X15208515Y-15736150D02*
X15227563Y-15707579D01*
X15227563Y-15707579D02*
X15237087Y-15688531D01*
X15237087Y-15688531D02*
X15246611Y-15659960D01*
X15246611Y-15659960D02*
X15256134Y-15612341D01*
X15256134Y-15612341D02*
X15256134Y-15574246D01*
X15256134Y-15574246D02*
X15246611Y-15526627D01*
X15246611Y-15526627D02*
X15237087Y-15498055D01*
X15237087Y-15498055D02*
X15227563Y-15479008D01*
X15227563Y-15479008D02*
X15208515Y-15450436D01*
X15208515Y-15450436D02*
X15198992Y-15440912D01*
M02*
