%TF.GenerationSoftware,KiCad,Pcbnew,9.0.7-1.fc43*%
%TF.CreationDate,2026-03-15T14:55:22+08:00*%
%TF.ProjectId,BoomBay,426f6f6d-4261-4792-9e6b-696361645f70,1.01*%
%TF.SameCoordinates,Original*%
%TF.FileFunction,Profile,NP*%
%FSLAX46Y46*%
G04 Gerber Fmt 4.6, Leading zero omitted, Abs format (unit mm)*
G04 Created by KiCad (PCBNEW 9.0.7-1.fc43) date 2026-03-15 14:55:22*
%MOMM*%
%LPD*%
G01*
G04 APERTURE LIST*
%TA.AperFunction,Profile*%
%ADD10C,0.050000*%
%TD*%
%TA.AperFunction,Profile*%
%ADD11C,0.120000*%
%TD*%
G04 APERTURE END LIST*
D10*
X177800000Y-58420000D02*
G75*
G02*
X172720000Y-58420000I-2540000J0D01*
G01*
X172720000Y-58420000D02*
G75*
G02*
X177800000Y-58420000I2540000J0D01*
G01*
X93980000Y-116840000D02*
G75*
G02*
X88900000Y-116840000I-2540000J0D01*
G01*
X88900000Y-116840000D02*
G75*
G02*
X93980000Y-116840000I2540000J0D01*
G01*
X177800000Y-88900000D02*
G75*
G02*
X172720000Y-88900000I-2540000J0D01*
G01*
X172720000Y-88900000D02*
G75*
G02*
X177800000Y-88900000I2540000J0D01*
G01*
X111760000Y-142240000D02*
G75*
G02*
X106680000Y-142240000I-2540000J0D01*
G01*
X106680000Y-142240000D02*
G75*
G02*
X111760000Y-142240000I2540000J0D01*
G01*
X134620000Y-58420000D02*
G75*
G02*
X129540000Y-58420000I-2540000J0D01*
G01*
X129540000Y-58420000D02*
G75*
G02*
X134620000Y-58420000I2540000J0D01*
G01*
X177800000Y-142240000D02*
G75*
G02*
X172720000Y-142240000I-2540000J0D01*
G01*
X172720000Y-142240000D02*
G75*
G02*
X177800000Y-142240000I2540000J0D01*
G01*
X182450000Y-51380000D02*
X182450000Y-149320000D01*
X82550000Y-149320000D02*
X82550000Y-51380000D01*
X166600000Y-149320000D02*
X182450000Y-149320000D01*
X153600000Y-149320000D02*
X82550000Y-149320000D01*
X93980000Y-83820000D02*
G75*
G02*
X88900000Y-83820000I-2540000J0D01*
G01*
X88900000Y-83820000D02*
G75*
G02*
X93980000Y-83820000I2540000J0D01*
G01*
X177800000Y-116840000D02*
G75*
G02*
X172720000Y-116840000I-2540000J0D01*
G01*
X172720000Y-116840000D02*
G75*
G02*
X177800000Y-116840000I2540000J0D01*
G01*
X93980000Y-142240000D02*
G75*
G02*
X88900000Y-142240000I-2540000J0D01*
G01*
X88900000Y-142240000D02*
G75*
G02*
X93980000Y-142240000I2540000J0D01*
G01*
X153600000Y-51380000D02*
X82550000Y-51380000D01*
X166600000Y-51380000D02*
X182450000Y-51380000D01*
D11*
%TO.C,CNR2*%
X157900000Y-51380000D02*
X153600000Y-51380000D01*
X157900000Y-52380000D02*
X157900000Y-51380000D01*
X158300000Y-52780000D02*
X161900000Y-52780000D01*
X162300000Y-51380000D02*
X166600000Y-51380000D01*
X162300000Y-52380000D02*
X162300000Y-51380000D01*
X158300000Y-52780000D02*
G75*
G02*
X157900000Y-52380000I0J400000D01*
G01*
X162300000Y-52380000D02*
G75*
G02*
X161900000Y-52780000I-400002J2D01*
G01*
%TO.C,CNR1*%
X157900000Y-148320000D02*
X157900000Y-149320000D01*
X157900000Y-149320000D02*
X153600000Y-149320000D01*
X161900000Y-147920000D02*
X158300000Y-147920000D01*
X162300000Y-148320000D02*
X162300000Y-149320000D01*
X162300000Y-149320000D02*
X166600000Y-149320000D01*
X157900000Y-148320000D02*
G75*
G02*
X158300000Y-147920000I400002J-2D01*
G01*
X161900000Y-147920000D02*
G75*
G02*
X162300000Y-148320000I0J-400000D01*
G01*
%TD*%
M02*
