%TF.GenerationSoftware,KiCad,Pcbnew,9.0.7-1.fc43*%
%TF.CreationDate,2026-03-15T14:55:22+08:00*%
%TF.ProjectId,BoomBay,426f6f6d-4261-4792-9e6b-696361645f70,1.01*%
%TF.SameCoordinates,Original*%
%TF.FileFunction,Soldermask,Top*%
%TF.FilePolarity,Negative*%
%FSLAX46Y46*%
G04 Gerber Fmt 4.6, Leading zero omitted, Abs format (unit mm)*
G04 Created by KiCad (PCBNEW 9.0.7-1.fc43) date 2026-03-15 14:55:22*
%MOMM*%
%LPD*%
G01*
G04 APERTURE LIST*
G04 Aperture macros list*
%AMRoundRect*
0 Rectangle with rounded corners*
0 $1 Rounding radius*
0 $2 $3 $4 $5 $6 $7 $8 $9 X,Y pos of 4 corners*
0 Add a 4 corners polygon primitive as box body*
4,1,4,$2,$3,$4,$5,$6,$7,$8,$9,$2,$3,0*
0 Add four circle primitives for the rounded corners*
1,1,$1+$1,$2,$3*
1,1,$1+$1,$4,$5*
1,1,$1+$1,$6,$7*
1,1,$1+$1,$8,$9*
0 Add four rect primitives between the rounded corners*
20,1,$1+$1,$2,$3,$4,$5,0*
20,1,$1+$1,$4,$5,$6,$7,0*
20,1,$1+$1,$6,$7,$8,$9,0*
20,1,$1+$1,$8,$9,$2,$3,0*%
%AMOutline5P*
0 Free polygon, 5 corners , with rotation*
0 The origin of the aperture is its center*
0 number of corners: always 5*
0 $1 to $10 corner X, Y*
0 $11 Rotation angle, in degrees counterclockwise*
0 create outline with 5 corners*
4,1,5,$1,$2,$3,$4,$5,$6,$7,$8,$9,$10,$1,$2,$11*%
%AMOutline6P*
0 Free polygon, 6 corners , with rotation*
0 The origin of the aperture is its center*
0 number of corners: always 6*
0 $1 to $12 corner X, Y*
0 $13 Rotation angle, in degrees counterclockwise*
0 create outline with 6 corners*
4,1,6,$1,$2,$3,$4,$5,$6,$7,$8,$9,$10,$11,$12,$1,$2,$13*%
%AMOutline7P*
0 Free polygon, 7 corners , with rotation*
0 The origin of the aperture is its center*
0 number of corners: always 7*
0 $1 to $14 corner X, Y*
0 $15 Rotation angle, in degrees counterclockwise*
0 create outline with 7 corners*
4,1,7,$1,$2,$3,$4,$5,$6,$7,$8,$9,$10,$11,$12,$13,$14,$1,$2,$15*%
%AMOutline8P*
0 Free polygon, 8 corners , with rotation*
0 The origin of the aperture is its center*
0 number of corners: always 8*
0 $1 to $16 corner X, Y*
0 $17 Rotation angle, in degrees counterclockwise*
0 create outline with 8 corners*
4,1,8,$1,$2,$3,$4,$5,$6,$7,$8,$9,$10,$11,$12,$13,$14,$15,$16,$1,$2,$17*%
G04 Aperture macros list end*
%ADD10C,1.200000*%
%ADD11O,1.200000X2.200000*%
%ADD12O,1.600000X2.300000*%
%ADD13O,2.200000X1.200000*%
%ADD14O,1.600000X2.500000*%
%ADD15C,1.600000*%
%ADD16R,1.700000X1.700000*%
%ADD17C,1.700000*%
%ADD18RoundRect,0.250000X0.550000X0.550000X-0.550000X0.550000X-0.550000X-0.550000X0.550000X-0.550000X0*%
%ADD19RoundRect,0.250000X-0.550000X-0.550000X0.550000X-0.550000X0.550000X0.550000X-0.550000X0.550000X0*%
%ADD20C,2.000000*%
%ADD21RoundRect,0.250000X-0.550000X0.550000X-0.550000X-0.550000X0.550000X-0.550000X0.550000X0.550000X0*%
%ADD22Outline5P,-1.270000X0.381000X-1.016000X0.635000X1.270000X0.635000X1.270000X-0.635000X-1.270000X-0.635000X90.000000*%
%ADD23RoundRect,0.190500X0.444500X-1.079500X0.444500X1.079500X-0.444500X1.079500X-0.444500X-1.079500X0*%
%ADD24O,1.270000X2.540000*%
%ADD25R,1.800000X1.800000*%
%ADD26C,1.800000*%
%ADD27R,2.780000X2.780000*%
%ADD28C,2.780000*%
G04 APERTURE END LIST*
D10*
%TO.C,CNR2*%
X165100000Y-55880000D03*
X165100000Y-53380000D03*
X160100000Y-60880000D03*
X155100000Y-55880000D03*
X155100000Y-53380000D03*
D11*
X165100000Y-60880000D03*
D12*
X162600000Y-60880000D03*
D13*
X160100000Y-55880000D03*
D11*
X155100000Y-60880000D03*
D14*
X157600000Y-60880000D03*
%TD*%
D15*
%TO.C,R2*%
X99060000Y-99060000D03*
X109220000Y-99060000D03*
%TD*%
%TO.C,R1*%
X99060000Y-93980000D03*
X109220000Y-93980000D03*
%TD*%
D16*
%TO.C,J4*%
X172720000Y-129540000D03*
D17*
X175260000Y-129540000D03*
%TD*%
D15*
%TO.C,C2*%
X116840000Y-104140000D03*
X116840000Y-99140000D03*
%TD*%
%TO.C,C1*%
X116840000Y-116760000D03*
X116840000Y-111760000D03*
%TD*%
D18*
%TO.C,C5*%
X129540000Y-116840000D03*
D15*
X127040000Y-116840000D03*
%TD*%
D16*
%TO.C,J2*%
X91440000Y-129540000D03*
D17*
X93980000Y-129540000D03*
%TD*%
D19*
%TO.C,C9*%
X162600000Y-114300000D03*
D15*
X165100000Y-114300000D03*
%TD*%
D20*
%TO.C,C10*%
X154940000Y-124460000D03*
X154940000Y-114460000D03*
%TD*%
D21*
%TO.C,C15*%
X111760000Y-76280000D03*
D15*
X111760000Y-81280000D03*
%TD*%
D16*
%TO.C,J3*%
X121920000Y-65345000D03*
D17*
X124460000Y-65345000D03*
%TD*%
D22*
%TO.C,VR1*%
X125620000Y-137320000D03*
D23*
X127620000Y-137320000D03*
X129620000Y-137320000D03*
X131620000Y-137320000D03*
D22*
X133620000Y-137320000D03*
D24*
X124620000Y-147320000D03*
X134620000Y-147320000D03*
%TD*%
D19*
%TO.C,C13*%
X162600000Y-101600000D03*
D15*
X165100000Y-101600000D03*
%TD*%
D20*
%TO.C,C12*%
X154940000Y-96440000D03*
X154940000Y-86440000D03*
%TD*%
D18*
%TO.C,C4*%
X132080000Y-88900000D03*
D15*
X129580000Y-88900000D03*
%TD*%
%TO.C,C14*%
X152668500Y-104120000D03*
X152668500Y-101620000D03*
%TD*%
D21*
%TO.C,U1*%
X147320000Y-99060000D03*
D15*
X144780000Y-99060000D03*
X142240000Y-99060000D03*
X139700000Y-99060000D03*
X137160000Y-99060000D03*
X134620000Y-99060000D03*
X132080000Y-99060000D03*
X129540000Y-99060000D03*
X129540000Y-106680000D03*
X132080000Y-106680000D03*
X134620000Y-106680000D03*
X137160000Y-106680000D03*
X139700000Y-106680000D03*
X142240000Y-106680000D03*
X144780000Y-106680000D03*
X147320000Y-106680000D03*
%TD*%
D25*
%TO.C,D1*%
X142240000Y-137160000D03*
D26*
X144780000Y-137160000D03*
%TD*%
D19*
%TO.C,C11*%
X144820000Y-88900000D03*
D15*
X147320000Y-88900000D03*
%TD*%
D21*
%TO.C,C3*%
X123790400Y-98712800D03*
D15*
X123790400Y-101212800D03*
%TD*%
D18*
%TO.C,C7*%
X137120000Y-116840000D03*
D15*
X134620000Y-116840000D03*
%TD*%
%TO.C,R4*%
X109220000Y-109220000D03*
X99060000Y-109220000D03*
%TD*%
%TO.C,R6*%
X109220000Y-119380000D03*
X99060000Y-119380000D03*
%TD*%
D10*
%TO.C,CNR1*%
X155100000Y-144820000D03*
X155100000Y-147320000D03*
X160100000Y-139820000D03*
X165100000Y-144820000D03*
X165100000Y-147320000D03*
D11*
X155100000Y-139820000D03*
D12*
X157600000Y-139820000D03*
D13*
X160100000Y-144820000D03*
D11*
X165100000Y-139820000D03*
D14*
X162600000Y-139820000D03*
%TD*%
D15*
%TO.C,R5*%
X99060000Y-114300000D03*
X109220000Y-114300000D03*
%TD*%
D18*
%TO.C,C6*%
X139700000Y-88900000D03*
D15*
X137200000Y-88900000D03*
%TD*%
%TO.C,R3*%
X109220000Y-104140000D03*
X99060000Y-104140000D03*
%TD*%
D19*
%TO.C,C8*%
X142280000Y-116840000D03*
D15*
X144780000Y-116840000D03*
%TD*%
D27*
%TO.C,J5*%
X93980000Y-66040000D03*
D28*
X99060000Y-66040000D03*
X104140000Y-66040000D03*
X109220000Y-66040000D03*
%TD*%
D15*
%TO.C,R7*%
X138430000Y-129540000D03*
X148590000Y-129540000D03*
%TD*%
M02*
