%TF.GenerationSoftware,KiCad,Pcbnew,9.0.7-1.fc43*%
%TF.CreationDate,2026-03-15T14:55:25+08:00*%
%TF.ProjectId,BoomBay,426f6f6d-4261-4792-9e6b-696361645f70,1.01*%
%TF.SameCoordinates,Original*%
%TF.FileFunction,Plated,1,2,PTH,Mixed*%
%TF.FilePolarity,Positive*%
%FSLAX46Y46*%
G04 Gerber Fmt 4.6, Leading zero omitted, Abs format (unit mm)*
G04 Created by KiCad (PCBNEW 9.0.7-1.fc43) date 2026-03-15 14:55:25*
%MOMM*%
%LPD*%
G01*
G04 APERTURE LIST*
%TA.AperFunction,ViaDrill*%
%ADD10C,0.300000*%
%TD*%
G04 aperture for slot hole*
%TA.AperFunction,ComponentDrill*%
%ADD11C,0.400000*%
%TD*%
%TA.AperFunction,ComponentDrill*%
%ADD12C,0.800000*%
%TD*%
G04 aperture for slot hole*
%TA.AperFunction,ComponentDrill*%
%ADD13C,0.800000*%
%TD*%
%TA.AperFunction,ComponentDrill*%
%ADD14C,0.900000*%
%TD*%
%TA.AperFunction,ComponentDrill*%
%ADD15C,1.000000*%
%TD*%
%TA.AperFunction,ComponentDrill*%
%ADD16C,1.780000*%
%TD*%
G04 APERTURE END LIST*
D10*
X108115000Y-96520000D03*
X116030200Y-129540000D03*
X119380000Y-127000000D03*
X127000000Y-103323000D03*
D11*
%TO.C,CNR2*%
X155100000Y-61380000D02*
X155100000Y-60380000D01*
%TO.C,CNR1*%
X155100000Y-140320000D02*
X155100000Y-139320000D01*
%TO.C,CNR2*%
X159600000Y-55880000D02*
X160600000Y-55880000D01*
%TO.C,CNR1*%
X160600000Y-144820000D02*
X159600000Y-144820000D01*
%TO.C,CNR2*%
X165100000Y-60380000D02*
X165100000Y-61380000D01*
%TO.C,CNR1*%
X165100000Y-139320000D02*
X165100000Y-140320000D01*
D12*
%TO.C,R1*%
X99060000Y-93980000D03*
%TO.C,R2*%
X99060000Y-99060000D03*
%TO.C,R3*%
X99060000Y-104140000D03*
%TO.C,R4*%
X99060000Y-109220000D03*
%TO.C,R5*%
X99060000Y-114300000D03*
%TO.C,R6*%
X99060000Y-119380000D03*
%TO.C,R1*%
X109220000Y-93980000D03*
%TO.C,R2*%
X109220000Y-99060000D03*
%TO.C,R3*%
X109220000Y-104140000D03*
%TO.C,R4*%
X109220000Y-109220000D03*
%TO.C,R5*%
X109220000Y-114300000D03*
%TO.C,R6*%
X109220000Y-119380000D03*
%TO.C,C15*%
X111760000Y-76280000D03*
X111760000Y-81280000D03*
%TO.C,C2*%
X116840000Y-99140000D03*
X116840000Y-104140000D03*
%TO.C,C1*%
X116840000Y-111760000D03*
X116840000Y-116760000D03*
%TO.C,C3*%
X123790400Y-98712800D03*
X123790400Y-101212800D03*
%TO.C,VR1*%
X125620000Y-137320000D03*
%TO.C,C5*%
X127040000Y-116840000D03*
%TO.C,VR1*%
X127620000Y-137320000D03*
%TO.C,U1*%
X129540000Y-99060000D03*
X129540000Y-106680000D03*
%TO.C,C5*%
X129540000Y-116840000D03*
%TO.C,C4*%
X129580000Y-88900000D03*
%TO.C,VR1*%
X129620000Y-137320000D03*
X131620000Y-137320000D03*
%TO.C,C4*%
X132080000Y-88900000D03*
%TO.C,U1*%
X132080000Y-99060000D03*
X132080000Y-106680000D03*
%TO.C,VR1*%
X133620000Y-137320000D03*
%TO.C,U1*%
X134620000Y-99060000D03*
X134620000Y-106680000D03*
%TO.C,C7*%
X134620000Y-116840000D03*
X137120000Y-116840000D03*
%TO.C,U1*%
X137160000Y-99060000D03*
X137160000Y-106680000D03*
%TO.C,C6*%
X137200000Y-88900000D03*
%TO.C,R7*%
X138430000Y-129540000D03*
%TO.C,C6*%
X139700000Y-88900000D03*
%TO.C,U1*%
X139700000Y-99060000D03*
X139700000Y-106680000D03*
X142240000Y-99060000D03*
X142240000Y-106680000D03*
%TO.C,C8*%
X142280000Y-116840000D03*
%TO.C,U1*%
X144780000Y-99060000D03*
X144780000Y-106680000D03*
%TO.C,C8*%
X144780000Y-116840000D03*
%TO.C,C11*%
X144820000Y-88900000D03*
X147320000Y-88900000D03*
%TO.C,U1*%
X147320000Y-99060000D03*
X147320000Y-106680000D03*
%TO.C,R7*%
X148590000Y-129540000D03*
%TO.C,C14*%
X152668500Y-101620000D03*
X152668500Y-104120000D03*
D13*
%TO.C,CNR2*%
X157600000Y-61230000D02*
X157600000Y-60530000D01*
%TO.C,CNR1*%
X157600000Y-140170000D02*
X157600000Y-139470000D01*
%TO.C,CNR2*%
X162600000Y-60530000D02*
X162600000Y-61230000D01*
D12*
%TO.C,C13*%
X162600000Y-101600000D03*
%TO.C,C9*%
X162600000Y-114300000D03*
D13*
%TO.C,CNR1*%
X162600000Y-139470000D02*
X162600000Y-140170000D01*
D12*
%TO.C,C13*%
X165100000Y-101600000D03*
%TO.C,C9*%
X165100000Y-114300000D03*
D14*
%TO.C,D1*%
X142240000Y-137160000D03*
X144780000Y-137160000D03*
D15*
%TO.C,J2*%
X91440000Y-129540000D03*
X93980000Y-129540000D03*
%TO.C,J3*%
X121920000Y-65345000D03*
X124460000Y-65345000D03*
%TO.C,VR1*%
X124620000Y-147320000D03*
X134620000Y-147320000D03*
%TO.C,C12*%
X154940000Y-86440000D03*
X154940000Y-96440000D03*
%TO.C,C10*%
X154940000Y-114460000D03*
X154940000Y-124460000D03*
%TO.C,J4*%
X172720000Y-129540000D03*
X175260000Y-129540000D03*
D16*
%TO.C,J5*%
X93980000Y-66040000D03*
X99060000Y-66040000D03*
X104140000Y-66040000D03*
X109220000Y-66040000D03*
M02*
